<?xml version="1.0" encoding="utf-8"?>
<!-- Generator: Adobe Illustrator 26.0.2, SVG Export Plug-In . SVG Version: 6.00 Build 0)  -->
<svg version="1.1" id="Capa_1" xmlns="http://www.w3.org/2000/svg" xmlns:xlink="http://www.w3.org/1999/xlink" x="0px" y="0px"
	 viewBox="0 0 514.36 514.36" style="enable-background:new 0 0 514.36 514.36;" xml:space="preserve">
<style type="text/css">
	.st0{fill:#E2F4F7;}
	.st1{fill:#ED9996;}
	.st2{fill:#9E1533;}
	.st3{fill:#282828;}
	.st4{fill:#FFB1A5;}
	.st5{fill:#FFFFFF;}
	.st6{fill:#424242;}
	.st7{fill:#BC2445;}
	.st8{fill:#57DFED;}
</style>
<g id="XMLID_410_">
	<g id="XMLID_384_">
		<path id="XMLID_391_" class="st0" d="M433.08,239.73c-3.26-81.2-41.24-162.74-119.89-195.01c-44.63-18.31-95.2-8.32-129.09,26.69
			c-18.43,19.05-27.78,41.58-32.25,65.52c-0.71,1.5-1.36,3.03-1.92,4.64c-3.86,11.25-4.34,23.58-5.33,35.34
			c-1.91,22.6-5.75,42.22-22.25,58.67c-28.16,28.08-61,71.21-40.69,112.83c38.3,78.48,135.03,78.15,209.54,73.11
			c41.56-2.81,82.22-11.61,110.45-44.88C433.91,338.64,434.98,287.18,433.08,239.73z"/>
		<g id="XMLID_170_">
			<g id="XMLID_160_">
				<path id="XMLID_156_" class="st1" d="M301.72,240.68c2.68-1.6,21.1-23.21,29.95-5.96c8.85,17.25,66.66,145.64,45,154.24
					c-21.66,8.6-31.63,8.77-45-16C324.85,360.34,267.52,261.04,301.72,240.68z"/>
				<path id="XMLID_163_" class="st2" d="M354.93,287.42c-10.12-24.94-20.01-46.35-23.26-52.7c-8.85-17.25-27.26,4.37-29.95,5.96
					c-18.39,10.94-15.51,44.9-3.05,75.74C311.85,314.78,339.27,300.82,354.93,287.42z"/>
				<path id="XMLID_152_" class="st2" d="M239.13,218.55c-3.79,1.28-69.75,3.13-95.64,82.64s-14.1,127.16-14.1,127.16h159.24
					c0,0-15.3-115.81,26.89-149.23C357.7,245.71,239.13,218.55,239.13,218.55z"/>
				<path id="XMLID_154_" class="st1" d="M228.31,218.55c0,0,5.8,56.76,29.2,61.82c23.4,5.05,44.22-39.69,44.22-39.69L228.31,218.55
					z"/>
				<g id="XMLID_108_">
					<path id="XMLID_119_" class="st1" d="M340.41,194.65c-0.74,11.13-7.38,19.75-14.82,19.26c-7.44-0.5-12.87-9.92-12.13-21.06
						c0.74-11.13,7.38-19.75,14.82-19.26C335.72,174.09,341.15,183.52,340.41,194.65z"/>
					<path id="XMLID_129_" class="st3" d="M331.28,152.39c-0.01-0.12-0.09-0.2-0.15-0.3c0.21-0.48,0.18-1.05-0.31-1.53
						c-3.91-3.85-16.57-1.29-19.31,3.23c-2.21,3.65,0.2,10.74,0.89,14.43c1.81,9.79,4.14,19.48,6,29.26
						c0.23,1.21,1.98,1.32,2.55,0.33C328.64,184.48,333.06,167.83,331.28,152.39z"/>
					<path id="XMLID_121_" class="st4" d="M326.9,180.78c0.24,27.33,0.01,68.19-44.98,73.84c-30.72,3.86-58.48-21.82-65.91-57.93
						c-7.6-36.92,13.96-70.77,45.42-74.81C292.89,117.83,326.58,143.9,326.9,180.78z"/>
					<path id="XMLID_295_" class="st5" d="M298.96,226.74c-2.76-3.61-7.16-2.86-11.01-1.77c-3.36,0.95-6.16,2.25-9.72,1.47
						c-2.58-0.56-4.42-1.33-7.12-0.51c-1.95,0.6-3.41,1.58-4.26,2.93c-1.57,1.33-2.47,3.06-1.08,5.43c1.61,2.75,5.88,2.92,8.51,1.78
						c3.64-1.58,4.82-4.66,9.48-4.93c2.1-0.13,4.21,0.28,6.29,0.49c2.4,0.25,7.02,1.19,9.11-0.57
						C300.75,229.75,300.09,228.22,298.96,226.74z"/>
					<path id="XMLID_123_" class="st1" d="M226.95,187.21c6.71-7.03,12.65-14.79,17.68-23.1c2.63,2.32,6.83,2.63,9.78,0.72
						c0.5-0.32,0.97-0.7,1.53-0.88c1.7-0.55,3.32,0.88,4.79,1.91c3.88,2.73,9.33,3.05,13.5,0.79c1.82-0.99,3.51-2.45,5.57-2.59
						c3.51-0.23,6.37,3.46,9.89,3.26c2.68-0.15,4.72-2.51,7.3-3.26c4.22-1.22,8.28,2.07,12.5,3.29c4.98,1.44,10.76-0.31,14.05-4.31
						c0.86-1.04,1.58-2.28,1.69-3.63c0.08-0.96-0.15-1.91-0.43-2.83c-1.73-5.72-5.32-10.74-9.61-14.91
						c-3.61-3.51-7.81-6.51-12.56-8.21c-5.56-1.99-11.6-2.13-17.51-2.15c-9.02-0.04-18.14,0.13-26.86,2.41
						c-8.72,2.29-17.12,6.91-22.34,14.26c-3.73,5.25-5.64,11.55-7.24,17.79"/>
					<path id="XMLID_128_" class="st3" d="M341.83,139.12c1.72-5.46-1.44-11.08-5.76-14.31c-2.44-1.82-7.32-2.04-9.22-3.76
						c-2.6-2.35-0.73-5.97-2.31-9.2c-3.1-6.34-10.29-6.75-16.07-5.08c-5.48,1.58-2.05,2.18-5.45-1.25
						c-3.36-3.38-5.83-6.32-10.47-8.08c-8.41-3.18-12.56,0-18.98,4.78c-4.57,3.4-2.02,1.86-8.01-0.58
						c-3.65-1.49-8.14-1.73-11.97-1.06c-7.76,1.35-9.31,5.67-13.48,11.24c-3.5,4.67-4.81,2.14-10.21,2.71
						c-4.47,0.47-8.35,2.52-10.79,6.39c-1.91,3.02-2.4,6.24-1.75,9.73c1.06,5.73,1.77,3.65-3.61,6.99
						c-6.77,4.2-9.89,9.58-7.98,17.22c0.74,2.95,2.01,5.19,1.83,8.43c-0.1,1.75-0.81,3.55-0.91,5.37c-0.21,3.81,0.54,7.85,1.16,11.6
						c0.72,4.36,1.44,11.8,4.54,16.19c1.21,0.18,3.18,0.23,3.65,0.23c1,0.01,4.73,3.18,5.72,3.06c4.54-5.47,9.02-14.67,11.11-21.18
						c1.9-5.92,3.33-9.84,5.08-15.42c2.36-7.53,3.64-3.42,10.01-3.18c5.28,0.2,1.53-0.61,5.78-1.76c6.76-1.83,6.46,1.06,12.93,2.13
						c2.92,0.48,5.96,0.42,8.73-0.71c1.03-0.42,1.94-1.11,2.9-1.63c4.36-2.36,1.58-3.01,6.42-0.77c2.92,1.35,4.44,3.49,7.92,3.46
						c3.44-0.03,4.28-2.26,7.22-3.11c6.13-1.77,8.66,4.88,14.05,6.36c4.28,1.18,8.84-0.04,13.03-0.94
						c5.13-1.1,11.28-4.51,11.36-10.73c0.04-2.8-1.99-4.12-1.29-6.86C337.46,143.59,341.09,141.45,341.83,139.12z"/>
					
						<ellipse id="XMLID_124_" transform="matrix(0.9805 -0.1966 0.1966 0.9805 -35.7041 46.1384)" class="st4" cx="214.48" cy="202.86" rx="13.5" ry="20.2"/>
					<path id="XMLID_125_" class="st6" d="M326.93,162.99c5.13-1.1,11.28-4.51,11.36-10.73c0.04-2.8-1.99-4.12-1.29-6.86
						c0.46-1.8,4.09-3.94,4.83-6.28c1.72-5.46-1.44-11.08-5.76-14.31c-2.44-1.82-7.32-2.04-9.22-3.76c-2.6-2.35-0.73-5.97-2.31-9.2
						c-3.1-6.34-10.29-6.75-16.07-5.08c-5.48,1.58-2.05,2.18-5.45-1.25c-3.36-3.38-5.83-6.32-10.47-8.08
						c-8.41-3.18-12.56,0-18.98,4.78c-4.57,3.4-2.02,1.86-8.01-0.58c-3.65-1.49-8.14-1.73-11.97-1.06c-3.7,0.64-5.98,1.97-7.82,3.78
						c0.68-0.16,1.36-0.33,2.01-0.42c10.99-1.49,10.41,3.43,17.38,6.44c3.89,1.68,5.39,0.91,9.19,0.19
						c4.27-2.55,9.02-3.62,14.23-3.23c3.94,2.12,6.67,5.04,8.18,8.75c0.71,0.52,0.92,1.72,1.77,2.1c7.53,3.36,9.82-5.43,16.9,6.74
						c1.42,2.45,0.95,3.61,3.04,6.06c3.58,4.19,11.52-4.85,7.37,11.18c-0.43,1.64-2.47,2.13-2.74,4.16
						c-0.42,3.27,2.35,3.52,3.3,5.85c2.13,5.23,2.16,8.13-0.15,10.95C326.48,163.08,326.7,163.03,326.93,162.99z"/>
					<g id="XMLID_127_">
						<path id="XMLID_130_" class="st3" d="M262.24,199.74c0,2.52-1.44,4.55-3.21,4.55c-1.77,0-3.21-2.04-3.21-4.55
							c0-2.52,1.44-4.55,3.21-4.55C260.8,195.19,262.24,197.23,262.24,199.74z"/>
						<path id="XMLID_131_" class="st3" d="M315.45,195.19c0,2.52-1.44,4.55-3.21,4.55c-1.77,0-3.21-2.04-3.21-4.55
							s1.44-4.55,3.21-4.55C314.01,190.63,315.45,192.67,315.45,195.19z"/>
						<path id="XMLID_132_" class="st3" d="M317.93,177.56c-3.16,0.08-6.43,0.12-9.25-1.56c-2.4-1.43-3.89-3.94-5.72-5.97
							c-0.29-0.32-0.85,0.07-0.69,0.46c1.23,2.91,2.54,5.9,5.32,7.66c2.96,1.86,7.09,2.45,10.51,1.95
							C319.7,179.86,319.58,177.52,317.93,177.56z"/>
						<path id="XMLID_133_" class="st3" d="M262.64,175.2c-4.82,5.24-10.76,8.6-18.08,7.91c-1.13-0.11-1.38,1.75-0.27,1.99
							c5.86,1.26,18.61-2.35,19.46-9.44C263.82,175.09,262.99,174.81,262.64,175.2z"/>
						<path id="XMLID_135_" class="st3" d="M293.3,199.4c-1.03-5.41-0.7-11.02-1.17-16.49c-0.05-0.53-0.77-0.53-0.82,0
							c-0.48,4.81-0.82,9.69-0.25,14.51c0.77,6.52,4.22,14.38-5,16.5c-0.93,0.21-0.75,1.75,0.23,1.68c4.14-0.27,8.4-3.13,8.83-7.56
							C295.39,205.2,293.82,202.13,293.3,199.4z"/>
						<g id="XMLID_141_">
							<path id="XMLID_137_" class="st1" d="M256.98,208.24c-5.89-1.82-4.84-6.98-5.74-11.9c-0.09-0.5-0.79-0.41-0.93,0
								c-1.54,4.69,0.41,13.29,6.46,13.38C257.64,209.74,257.78,208.49,256.98,208.24z"/>
							<path id="XMLID_138_" class="st1" d="M252.92,211.07c-2.63-1.94-5.73-3.45-5.78-7.18c-0.01-0.45-0.66-0.44-0.69,0
								c-0.25,3.79,2.74,6.56,5.89,8.16C253.01,212.38,253.5,211.49,252.92,211.07z"/>
						</g>
						<g id="XMLID_136_">
							<path id="XMLID_139_" class="st1" d="M319,190.12c-0.1-0.41-0.75-0.33-0.74,0.1c0.09,3.24,0.7,6.8-0.9,9.78
								c-1.36,2.54-3.53,3.72-5.91,5.12c-0.67,0.39-0.23,1.54,0.54,1.28c2.83-0.95,5.36-2.93,6.76-5.59
								C320.58,197.31,319.94,193.76,319,190.12z"/>
							<path id="XMLID_140_" class="st1" d="M320.33,203.44c-0.57,0.84-1.31,1.46-2.06,2.12c-0.77,0.68-1.63,0.93-2.53,1.36
								c-1,0.47-0.51,2.13,0.56,2.08c2.66-0.14,4.52-2.75,5.03-5.14C321.46,203.25,320.68,202.92,320.33,203.44z"/>
						</g>
						<g id="XMLID_142_">
							<path id="XMLID_143_" class="st1" d="M278.17,236.03c-0.03-0.05-0.11-0.02-0.09,0.04c0.51,1.42,0.66,2.96,0.62,4.46
								c-0.04,1.66-0.75,2.66-1.3,4.13c-0.08,0.22,0.18,0.34,0.35,0.27c1.36-0.59,1.66-2.64,1.72-3.96
								C279.55,239.23,279.05,237.54,278.17,236.03z"/>
							<path id="XMLID_144_" class="st1" d="M287.01,239.65c-0.2-1.82-1.13-3.24-2.09-4.76c-0.24-0.38-0.78-0.05-0.59,0.35
								c0.8,1.68,1.52,3.27,1.54,5.17c0.02,1.91-0.7,3.64-0.98,5.5c-0.12,0.75,0.89,1.06,1.16,0.32
								C286.76,244.19,287.25,241.81,287.01,239.65z"/>
							<path id="XMLID_145_" class="st1" d="M293.13,240.87c-0.18-1.31-1.03-2.31-1.9-3.24c-0.51-0.55-1.24,0.15-0.97,0.75
								c0.38,0.84,0.64,1.69,0.73,2.62c0.09,0.97-0.38,1.71-0.52,2.63c-0.14,0.9,0.98,1.88,1.72,1
								C293.05,243.61,293.31,242.17,293.13,240.87z"/>
						</g>
					</g>
				</g>
				<g id="XMLID_146_">
					<g id="XMLID_147_">
						<path id="XMLID_159_" class="st4" d="M303.29,302.12c-0.88-2.12-2.36-4.49-3.64-6.22c-0.1-0.13-0.27-0.3-0.46-0.4
							c0.68-0.07,1.73-0.1,2.01-0.18c0.92-0.24,1.85-0.44,2.58-1.11c0.94-0.85,1.43-2.03,1.46-3.28c0.03-1.34-0.51-2.21-1.14-3.31
							c-0.84-1.47-1.57-1.71-1.23-1.98c1.21-0.96,3.6-0.89,4-2.86c0.34-1.68-1-3.43-2.08-4.52c-4.77-4.8-14.99-5.73-21.38-6.07
							c-2.03-0.11-7.48-0.39-7.48-0.39s-0.27-1.47,1.58-2.57c1.04-0.62,2.13-1.03,3.24-1.47c3.03-1.2,6.29-1.7,9.3-2.93
							c2.47-1.01,5.42-2.63,3.17-5.36c-4.34-5.26-15.07-1.03-20.08,0.71c-6.52,2.26-18.62,12.07-19.32,13.19
							c-3.04,4.86-4.81,11.23-6.02,16.75c-0.93,4.26-0.54,10.54-1.25,14.95c-6.97,3.95-42.05,21.03-45.01,22.35
							c-3.31,1.47,39.25-70.31,33.7-93.66c-5.55-23.35-30.99-15.78-43.22-8.32c-36.11,22.01-51.64,123.09-51.74,141.71
							c-0.1,18.62,9.76,38.97,36.51,36.62c26.75-2.35,92.65-76.51,92.65-76.51l-0.19-0.2c3.99-2.92,7.41-5.24,9.93-10
							c0.18-0.35,1.88-3.62,2.71-4.84c0.64-0.93,2.48-8.07,8.63-6.92c0.96,0.18,2.35,1.32,3.23,1.79c2.03,1.11,4.17,2.28,6.59,1.75
							C304.59,307.89,304.75,305.64,303.29,302.12z"/>
						<path id="XMLID_151_" class="st1" d="M187.55,331.87l13.98-4.46c-1.12,0.5,3.04-7.44,8.8-19.04L187.55,331.87z"/>
						<path id="XMLID_150_" class="st1" d="M220.27,287.58l-60.68-11.96c-4.5,12.43-8.17,25.66-11.05,38.16
							c27.36,10.07,46.1,8.23,56.43,5.35C208.63,311.7,214.58,300.09,220.27,287.58z"/>
						<path id="XMLID_148_" class="st3" d="M301.51,284.49c-5.66-3.09-16.12-7.77-22.44-3.89c-0.42,0.26-0.15,0.91,0.34,0.79
							c3.82-0.89,7.46-0.58,11.27,0.25c3.67,0.79,6.88,3.11,10.52,3.61C301.62,285.31,301.96,284.74,301.51,284.49z"/>
						<path id="XMLID_149_" class="st3" d="M298.55,295.26c-4.63-3.92-13.18-4.3-18.56-1.95c-0.61,0.27-0.18,1.29,0.45,1.08
							c6.65-2.22,11.41-0.46,17.73,1.52C298.53,296.02,298.85,295.51,298.55,295.26z"/>
					</g>
					<path id="XMLID_153_" class="st7" d="M235.23,233.75c-5.55-23.35-30.99-15.78-43.22-8.32c-19.25,11.73-37.31,44.43-45.65,76.63
						c16.39,8,49.46,15.43,63.24,14.25C220.06,295.38,239.35,251.09,235.23,233.75z"/>
				</g>
				<g id="XMLID_155_">
					<path id="XMLID_158_" class="st4" d="M362.39,299.32c0.82-7.98,2.12-16.37,0.89-24.25c-1.02-6.55-4.45-12.3-8.84-17.17
						c-0.02-0.05,0.01-0.1-0.03-0.16c-1.36-2.26-3.46-3.82-5.2-5.77c-1.95-2.19-3.05-3.14-5.74-4.4c-3.15-1.47-5.49-3.89-8.71-3.64
						c-3.7-1.25-7.16-1.07-8.99,1.61c-2.36,3.46,1.21,6.85,3.78,8.8c2.04,1.55,4.41,2.66,6.42,4.23c3.11,2.43,7.15,10.12,4.63,14.13
						c-3.68,5.84-6.9-0.93-8.79-4.19c-1.24-2.13-2.44-4.68-4.63-6.02c-3.61-2.22-6.3,0.72-6.62,4.39c-0.26,2.98,0.88,5.7,2.51,8.13
						c3.15,4.68,5.24,8.5,6.31,14.19c1.21,6.39,1.58,13.9,7.22,18.04c-0.25,8.06-3.48,59.9,1.67,73.53
						c3.87,10.23,10.9,17.23,31.83,14.55c0,0,16.22-6.58,16.22-21.62C386.34,362.58,365.08,306.49,362.39,299.32z"/>
					<path id="XMLID_165_" class="st3" d="M360.7,275.7c-3.03-4.37-13.26-25.75-20.82-21.41c-0.62,0.36-1.07,0.79-1.4,1.25
						c-0.95-1.34-2.1-3.31-1.87-4.79c0.68-4.39,3.29-3.93,5.67-3.11c2.5,0.86,4.94,2.75,6.86,4.51c4.65,4.26,7.32,10.47,10.66,15.73
						c0.17,0.26,0.56,0.03,0.41-0.24c-4.22-7.84-8.35-17.43-17.31-20.89c-3.7-2.87-9.78-5.91-12.83-1.66
						c-2.93,4.08,3.63,8.82,6.55,10.62c0.22,0.13,0.42,0.11,0.59,0.02c0.2,0.35,0.43,0.69,0.67,1.01c0,0,0.01,0.01,0.01,0.01
						c-1.05,3.99,4.32,9.99,6.12,12.4c2.91,3.9,4.77,7.74,1.41,12.32c-1.32,1.79-2.64,3.56-3.59,5.59c-1.41,3-2.1,6.14-0.16,9.01
						c0.5,0.73,1.67,0.07,1.2-0.7c-4.82-7.83,7.5-12.63,6.08-20c-0.62-3.21-14.89-18.74-7.91-20.42c4.8-1.16,10.54,8.55,12.66,11.59
						c2.17,3.13,4.01,6.68,6.55,9.54C360.46,276.3,360.89,275.98,360.7,275.7z M331.3,245.48c2.37-2.87,5.94-1.23,9.07,0.64
						c-4.27-0.33-5.38,4.02-3.95,7.94C333.72,252.25,328.87,248.43,331.3,245.48z"/>
				</g>
			</g>
			<g id="XMLID_106_">
				<path id="XMLID_161_" class="st8" d="M188.34,196.02c-7.39-5.61-17-14.38-21.88-22.38c-1.11-1.82-3.41-1.58-4.57,0
					c-2.08,2.83-2.87,8.11-5.87,9.72c-3.33,1.78-7.93-0.61-11.34-1.91c-5.61-2.14-12.94-6.61-19.22-5.83
					c-4.6,0.58-5.62,3.03-7.33,6.85c-1.93,4.31-2.29,6.47-7.43,7.66c-3.93,0.9-6.65,0.31-10.09,2.47c-2.74,1.72-2.03,5.52,0.86,6.56
					c4.95,1.78,15.17,1.32,19.61-2.06c2.3-1.76,3.75-4.78,4.7-7.44c0.31-0.87,0.47-4.23,1.16-4.76c2.02-1.55,5.27,0.32,7.2,0.93
					c7.15,2.26,14.44,7.69,22.33,6.49c7.94-1.21,7.31-7.63,9.11-13.64c8.03,4.78,13.69,13.93,21.95,18.71
					C188.45,197.92,189.14,196.62,188.34,196.02z"/>
				<path id="XMLID_166_" class="st8" d="M195.72,141.12c-4.71-8.46-9.06-17.92-11.79-27.25c-0.53-1.8-2.05-2.78-3.84-2.92
					c-6.85-0.55-16.05,4.36-20.34-2.4c-2.27-3.58-2.39-8.29-6.1-10.92c-6.51-4.63-16.57,0.22-23.7,3.77
					c-2.41-3.96-3.29-8.4-7.31-11.56c-4.32-3.4-10.48,2.67-6.11,6.11c4.36,3.44,5.32,9.8,9.03,13.98c1.35,1.53,3.56,1.46,5.24,0.68
					c3.96-1.85,12.47-7.59,16.78-5.92c2.25,0.87,2.6,3.51,3.47,5.5c1.9,4.37,3.66,8.99,8.34,10.99c5.48,2.33,9.84-2.04,14.95-1.53
					c8.36,0.84,14.19,17.06,18.71,23.05C194.22,144.22,196.72,142.9,195.72,141.12z"/>
				<path id="XMLID_167_" class="st8" d="M235.28,72.78c-4.54-2.6-13.66-1.96-16.01-7.42c-2.31-5.38,0.15-13.55-0.8-19.38
					c-0.77-4.68-8.73-3.64-8.33,1.13c0.66,7.93-2.24,18.77,3.36,25.45c3.49,4.15,10.7,6.62,16.71,6.63
					c-0.36,6.41-0.72,13.41,1.56,19.22c0.49,1.26,2.16,1.32,2.63,0c2.48-6.94,0.22-14.79,2.38-21.97
					C237.18,75.08,236.5,73.48,235.28,72.78z"/>
				<path id="XMLID_168_" class="st8" d="M433.67,118.71c-9.95,3.32-19.85,6.86-29.61,10.67c-5.68,2.21-7.99,4.55-14.66-0.9
					c-2.35-1.92-3.86-5.35-6.31-7.45c-1.65-1.41-4.12-1.68-5.75,0c-5.85,6.04-13.12,11.18-19.5,16.66c-1.2,1.03,0.35,2.99,1.68,2.18
					c4.13-2.52,8.42-5.56,12.86-7.5c5.1-2.22,5.67-2.89,9.43,0.54c3.67,3.36,5.02,8.39,10.6,9.5c5.34,1.06,11.44-3.1,16.05-4.89
					c9.12-3.55,18.39-6.77,27.68-9.83C441.81,125.82,439.37,116.81,433.67,118.71z"/>
				<path id="XMLID_169_" class="st8" d="M429.03,216.77c-12.08-1.84-24.83-1.86-36.45-5.94c1.8-6.99,1.5-15.85-4.34-20.32
					c-6.88-5.27-20.02-2.32-27.54-0.18c-2.36,0.67-2.59,4.46,0,5.01c5.01,1.07,10.11,0.27,15.19,0.63c9.66,0.69,9.5,8.71,6.33,16.31
					c-0.71,1.7,0.44,4.55,2.16,5.3c13.62,5.89,28.81,6.78,43.42,8.23C432.92,226.32,434.17,217.55,429.03,216.77z"/>
			</g>
		</g>
	</g>
</g>
</svg>
