<?xml version="1.0" encoding="utf-8"?>
<!-- Generator: Adobe Illustrator 26.0.1, SVG Export Plug-In . SVG Version: 6.00 Build 0)  -->
<svg version="1.1" id="Capa_1" xmlns="http://www.w3.org/2000/svg" xmlns:xlink="http://www.w3.org/1999/xlink" x="0px" y="0px"
	 viewBox="0 0 1920 1080" style="enable-background:new 0 0 1920 1080;" xml:space="preserve">
<style type="text/css">
	.st0{fill:#EBE8F5;}
	.st1{fill:#8A7DA9;}
	.st2{fill:#645782;}
	.st3{fill:#612E39;}
	.st4{fill:#AC414C;}
	.st5{fill:#E7AD7B;}
	.st6{fill:#563F67;}
	.st7{fill:#463353;}
	.st8{fill:#6E4570;}
	.st9{fill:#D66265;}
	.st10{fill:#BA5156;}
	.st11{fill:#EEB881;}
	.st12{fill:url(#SVGID_1_);}
	.st13{fill:#A56052;}
	.st14{fill:url(#SVGID_00000053533504545904208340000010283138672781077437_);}
	.st15{fill:none;stroke:#643619;stroke-width:0.5656;stroke-linecap:round;stroke-miterlimit:10;}
	.st16{fill:#994D1D;}
	.st17{fill:url(#SVGID_00000154414530486285824520000011746185311134533051_);}
	.st18{fill:#F4A29D;}
	.st19{fill:#F9C88C;}
</style>
<g>
	<g>
		<path class="st0" d="M946.44,405.83c-84.92,16.74-211.48-79.04-312.57-15.76c-132.69,83.06-127.13,317.82,79.07,417.04
			c206.19,99.22,513.18,12.09,623.41-230.27c114.57-251.88-64.83-320.36-144.36-295.3C1091.89,313.09,1061.85,383.08,946.44,405.83z
			"/>
		<path class="st0" d="M1286.11,677.73c-38.73,65.06,5.34,89.8,47.04,32.07c41.69-57.73,52.14-106.19,35.28-112.25
			C1346.12,589.55,1312.83,632.84,1286.11,677.73z"/>
		<circle class="st0" cx="1373.19" cy="567.73" r="16.74"/>
		
			<ellipse transform="matrix(0.9334 -0.3588 0.3588 0.9334 -22.2501 427.6322)" class="st0" cx="1140.93" cy="273.76" rx="45.24" ry="18.7"/>
		
			<ellipse transform="matrix(0.7006 -0.7135 0.7135 0.7006 -103.0219 521.4778)" class="st0" cx="569.94" cy="383.51" rx="67.7" ry="35.24"/>
		<path class="st0" d="M530.99,480.89c0,10.24-8.3,18.55-18.55,18.55c-10.24,0-18.55-8.3-18.55-18.55s8.3-18.55,18.55-18.55
			C522.68,462.34,530.99,470.64,530.99,480.89z"/>
	</g>
	<g>
		<g>
			<path class="st1" d="M1311.24,698.83c0,0,3.84-2.15,5.44-2.72c1.6-0.57,8.05-2.43,14.82-2.69c10.74-0.4,25.1,3.11,25.21,3.9
				c0.07,0.55-5.1-0.21-11.04,0.32c-2.4,0.21-11.72,1.88-18.57,2.93C1320.24,701.62,1311.24,698.83,1311.24,698.83z"/>
			<path class="st1" d="M1286.54,696.11c1-1.51,3.29-4.91,4.48-6.26c1.54-1.76,7.94-8.25,15.28-12.81
				c11.65-7.23,28.76-11.53,29.17-10.55c0.29,0.69-5.68,2.9-12.01,7.31c-2.56,1.78-12.18,9.81-19.31,15.48
				c-5.14,4.08-12.24,6.21-15.82,7.08c7.48,1.05,14.99,2.15,22.34,3.58c-0.44-0.54-0.71-0.89-0.71-0.89
				c1.14,0.16,5.22,0.91,9.9,2.56c0,0,0.01,0,0.01,0c0.22,0.08,0.44,0.16,0.66,0.24c0.06,0.02,0.11,0.04,0.16,0.06
				c0.07,0.03,0.15,0.06,0.22,0.08c0.66,0.25,1.33,0.51,2,0.8c0.03,0.01,0.06,0.03,0.09,0.04c0.21,0.09,0.43,0.19,0.64,0.28
				c0.05,0.02,0.1,0.04,0.15,0.06c0.2,0.09,0.4,0.18,0.61,0.28c0.06,0.03,0.13,0.06,0.19,0.09c0.19,0.09,0.38,0.18,0.57,0.28
				c0.08,0.04,0.15,0.08,0.23,0.11c0.18,0.09,0.36,0.18,0.53,0.27c0.09,0.05,0.18,0.1,0.27,0.14c0.16,0.09,0.33,0.17,0.49,0.26
				c0.11,0.06,0.21,0.12,0.32,0.18c0.15,0.08,0.3,0.17,0.44,0.25c0.12,0.07,0.25,0.15,0.37,0.22c0.13,0.08,0.26,0.15,0.39,0.23
				c0.15,0.09,0.3,0.19,0.45,0.28c0.1,0.06,0.2,0.13,0.3,0.19c0.24,0.16,0.49,0.32,0.72,0.49c0,0,0.01,0.01,0.01,0.01
				c6.11,4.28,13.84,9.89,18.55,13.18c0.39,0.27,0.76,0.53,1.11,0.77c0.87,0.6,1.59,1.09,2.12,1.43c0.04,0.03,0.08,0.05,0.12,0.08
				l7.3,4.01c0.66,0.32,1.28,0.62,1.86,0.9c1.62,0.77,2.91,1.36,3.67,1.8c0.15,0.09,0.28,0.17,0.39,0.24
				c0.16,0.11,0.27,0.21,0.33,0.29c0.04,0.06,0.05,0.11,0.04,0.15c-0.29,1.02-18.59-3.02-31.62-10.23
				c-8.21-4.54-15.7-11.12-17.53-12.9c-0.97-0.94-2.6-2.87-3.93-4.49c-1.89-0.24-3.78-0.49-5.68-0.76
				c-5.68-0.8-11.36-1.59-17.03-2.37c2.97,2.2,7.19,5.91,9.42,10.45c3.65,7.45,8.38,17.84,9.81,20.28c3.56,6.04,7.9,9.96,7.28,10.5
				c-0.87,0.76-14.35-8.58-21.35-18.89c-4.4-6.49-6.95-14.47-7.48-16.56c-0.34-1.36-0.65-4.29-0.83-6.2
				c-6.72-0.92-13.44-1.81-20.17-2.66c3.06,2.54,8.19,7.46,10.33,13.37c3.15,8.69,7.13,20.79,8.44,23.66
				c3.23,7.09,7.65,11.84,6.88,12.4c-1.09,0.8-15.18-10.75-21.75-22.92c-4.14-7.67-5.97-16.87-6.28-19.28
				c-0.22-1.68-0.15-5.42-0.09-7.55c-8.13-1.01-16.27-1.97-24.44-2.82c-0.79-0.08-1.58-0.16-2.37-0.24
				c2.72,2.05,10.04,8.1,12.83,15.68c3.46,9.39,7.82,22.45,9.25,25.55c3.53,7.66,8.33,12.77,7.5,13.39
				c-1.18,0.87-16.46-11.57-23.63-24.71c-4.52-8.27-6.54-18.22-6.89-20.82c-0.29-2.13-0.17-7.37-0.12-9.2
				c-7.99-0.82-15.98-1.56-23.99-2.24c3.53,3.08,10,9.53,12.38,17.21c3.34,10.79,7.48,25.78,8.91,29.35
				c3.54,8.82,8.68,14.8,7.69,15.47c-1.4,0.95-18.02-13.72-25.35-28.89c-4.62-9.56-6.29-20.93-6.53-23.9
				c-0.16-2.12,0.17-6.88,0.37-9.46c-7.75-0.64-15.51-1.22-23.28-1.74c3.38,2.82,11.59,10.41,14.38,19.61
				c3.55,11.69,7.93,27.94,9.46,31.81c3.77,9.57,9.3,16.06,8.23,16.78c-1.52,1.02-19.42-14.92-27.26-31.37
				c-4.94-10.36-6.68-22.68-6.91-25.9c-0.18-2.53,0.31-8.57,0.53-11.03c-4.23-0.28-8.47-0.54-12.71-0.78
				c-3.16-0.18-6.31-0.34-9.47-0.5c2.96,2.83,11.59,11.84,13.59,22.37c2.42,12.75,5.21,30.45,6.39,34.7
				c2.92,10.49,8.1,17.8,6.86,18.51c-1.76,1-19.14-17.23-25.62-35.37c-4.08-11.42-4.49-24.73-4.35-28.2
				c0.11-2.83,1.46-9.65,1.95-12.06c-9.22-0.45-18.44-0.81-27.67-1.08c3.5,3.57,10.49,11.69,12.21,20.99
				c2.31,12.54,4.96,29.94,6.1,34.11c2.82,10.32,11.12,20.42,9.89,21.1c-1.73,0.97-21.97-19.89-28.24-37.72
				c-3.95-11.24-4.28-24.31-4.13-27.72c0.11-2.45,1.18-7.94,1.77-10.84c-8.13-0.22-16.27-0.38-24.39-0.46
				c3.66,3.76,10.5,11.82,12.25,21.03c2.42,12.75,5.21,30.45,6.39,34.7c2.92,10.49,14.01,25.42,12.77,26.12
				c-1.76,1-25.05-24.85-31.52-42.98c-4.08-11.42-4.49-24.73-4.35-28.2c0.09-2.4,1.08-7.69,1.68-10.7
				c-9.24-0.08-18.47-0.08-27.71-0.11c3.42,3.46,10.66,11.71,12.41,21.19c2.31,12.54,4.96,29.94,6.1,34.11
				c2.82,10.32,15.67,30.3,14.45,30.99c-1.73,0.97-26.52-29.77-32.79-47.61c-3.95-11.24-4.28-24.31-4.13-27.72
				c0.11-2.49,1.21-8.12,1.8-10.98c-7.97-0.03-15.94-0.09-23.91-0.23c3.07,3.4,9.18,11.1,10.32,19.77
				c1.54,11.67,10.52,30.93,11.37,34.82c2.11,9.63,17.43,36.41,16.26,37.02c-1.66,0.86-34.9-39.28-39.86-55.96
				c-3.12-10.51-2.79-22.63-2.48-25.78c0.22-2.24,1.45-7.22,2.15-9.91c-3.57-0.07-7.14-0.16-10.71-0.28
				c-5.99-0.2-12.01-0.46-18.03-0.82c2.94,2.9,8.56,10.79,11.46,19.19c4.29,12.42,10.59,23.8,14.56,31.51
				c4.38,8.51,16.99,35.26,17.25,36.49c3.53,16.77-36.99-36.39-42.68-52.32c-3.58-10.04-3.93-21.73-3.81-24.77
				c0.09-2.34,1.15-7.79,1.63-10.19c-15.48-0.97-30.95-2.65-45.82-5.86c-1.98-0.43-1-2.25,0.94-1.93c2.7,0.45,5.42,0.84,8.13,1.27
				c12.55,1.96,25.22,3.25,37.94,4.09c-0.47-2.67-1.26-7.41-1.31-9.53c-0.06-3.05-1.9-16.81,1.87-26.64
				c5.98-15.6,39.65-59.21,43.72-58.06c4.54,1.29-13.28,28.64-19.15,47.6c-1.13,3.66-7.46,16.44-11.6,28.83
				c-2.61,7.83-7.94,14.87-11.19,17.95c8.59,0.53,17.21,0.86,25.82,1.06c0.9,0.02,1.8,0.03,2.7,0.05c-0.5-2.63-1.48-8.05-1.55-10.4
				c-0.1-3.17,0.37-15.28,4.18-25.51c6.04-16.23,31.28-56.56,32.87-55.57c1.13,0.7-9.72,33.97-12.46,43.41
				c-1.11,3.82-6.96,17.49-9.27,29.01c-1.75,8.77-8.65,16.11-11.84,19.11c8.62,0.15,17.23,0.21,25.85,0.24
				c-0.34-2.41-1.24-9.2-1.17-11.97c0.08-3.41,1.29-16.42,5.98-27.3c7.46-17.27,23.86-47.22,29.08-47.46c0,0-6.16,22.34-9.67,32.4
				c-1.42,4.07-5.23,21.2-8.38,33.51c-2.59,10.11-11.52,18.24-14.64,20.82c9.38,0.03,18.76,0.04,28.15,0.14
				c-0.25-2.55-0.85-9.22-0.67-11.97c0.22-3.43,1.99-16.53,7.19-27.39c8.26-17.24,22.8-41.39,24.43-40.23
				c1.15,0.82-0.22,15.43-4.19,25.49c-1.6,4.07-6.17,21.26-9.87,33.6c-2.98,9.95-12.06,17.83-15.47,20.52
				c1.84,0.02,3.69,0.04,5.53,0.07c5.42,0.08,10.84,0.2,16.26,0.35c-0.38-2.77-1.16-8.83-1.1-11.41c0.08-3.41,1.29-16.42,5.98-27.3
				c7.46-17.27,26.52-40.37,28.19-39.26c1.18,0.79-5.27,14.14-8.77,24.2c-1.42,4.07-5.23,21.2-8.38,33.51
				c-2.44,9.51-10.49,17.27-14.03,20.31c9.12,0.26,18.24,0.62,27.36,1.07c-0.28-3.02-0.72-8.45-0.57-10.86
				c0.22-3.43,1.99-16.53,7.19-27.39c8.26-17.24,25.92-37.88,27.55-36.72c1.15,0.82-3.34,11.91-7.3,21.97
				c-1.6,4.07-6.17,21.26-9.87,33.6c-2.68,8.93-10.26,16.19-14.26,19.53c6.48,0.33,12.95,0.7,19.42,1.12
				c2.37,0.15,4.73,0.32,7.1,0.48c-0.02-2.79-0.01-7.99,0.33-10.26c0.48-3.19,3.18-15.31,8.9-25.2
				c9.09-15.71,28.18-30.01,29.61-28.86c1.01,0.81-5,6.79-9.51,16c-1.82,3.72-7.46,19.53-11.9,30.87
				c-3.23,8.25-10.98,14.72-14.96,17.63c7.16,0.52,14.31,1.09,21.45,1.72c0.12-2.46,0.42-7.62,0.88-9.81
				c0.62-2.92,3.76-14.01,9.59-22.96c9.25-14.2,27.65-26.83,28.92-25.73c0.89,0.78-4.99,6.11-9.65,14.46
				c-1.89,3.38-7.95,17.78-12.67,28.1c-3.57,7.8-11.54,13.69-15.21,16.1c7.28,0.65,14.54,1.36,21.8,2.12
				c0.21-2.33,0.6-6.07,1.03-7.77c0.64-2.55,3.77-12.22,9.19-19.96c8.6-12.29,25.19-23.03,26.26-22.04
				c0.76,0.7-4.59,5.27-8.96,12.51c-1.77,2.93-7.58,15.45-12.07,24.41c-3.05,6.09-9.17,10.76-12.79,13.13
				c3.35,0.36,6.71,0.73,10.06,1.11c4.65,0.53,9.29,1.09,13.93,1.67c0.68-1.96,2.08-5.89,2.95-7.53c1.17-2.23,6.26-10.59,13-16.92
				c10.69-10.05,28.34-17.72,29.1-16.69c0.53,0.73-5.41,4.2-11.07,10.21c-2.29,2.43-10.48,13.04-16.65,20.59
				c-4.44,5.44-11.68,9.02-15.38,10.59c5.94,0.75,11.87,1.54,17.8,2.36C1283.71,695.72,1285.12,695.91,1286.54,696.11z"/>
		</g>
		<g>
			<path class="st1" d="M619.37,371.32c0,0-1.82-3.33-2.73-4.48s-4.76-5.47-9.59-8.76c-7.66-5.22-19.76-9.24-20.2-8.72
				c-0.31,0.37,3.82,2.18,7.92,5.3c1.66,1.26,7.7,6.75,12.22,10.66C611.52,369.23,619.37,371.32,619.37,371.32z"/>
			<path class="st1" d="M638.65,380.66c-0.04-1.56-0.15-5.1-0.39-6.63c-0.32-1.99-2.01-9.67-5.28-16.36
				c-5.19-10.62-15.71-21.61-16.46-21.08c-0.53,0.37,2.82,4.72,5.42,10.85c1.05,2.48,4.39,12.75,7,20.16
				c1.88,5.33,6.09,10.15,8.31,12.43c-5.94-2.67-11.93-5.3-17.95-7.63c0.57-0.2,0.93-0.32,0.93-0.32c-0.91-0.4-4.23-1.73-8.4-2.67
				c0,0-0.01,0-0.01,0c-0.2-0.04-0.4-0.09-0.6-0.13c-0.05-0.01-0.1-0.02-0.15-0.03c-0.07-0.01-0.13-0.03-0.2-0.04
				c-0.59-0.12-1.2-0.23-1.82-0.33c-0.03,0-0.06-0.01-0.08-0.01c-0.2-0.03-0.4-0.06-0.6-0.09c-0.05-0.01-0.09-0.01-0.14-0.02
				c-0.19-0.03-0.38-0.05-0.57-0.07c-0.06-0.01-0.12-0.02-0.18-0.02c-0.18-0.02-0.36-0.04-0.54-0.06c-0.07-0.01-0.15-0.02-0.22-0.02
				c-0.17-0.02-0.34-0.03-0.51-0.05c-0.09-0.01-0.18-0.01-0.26-0.02c-0.16-0.01-0.32-0.02-0.48-0.03c-0.1-0.01-0.21-0.01-0.31-0.02
				c-0.15-0.01-0.29-0.01-0.44-0.02c-0.12,0-0.25-0.01-0.37-0.01c-0.13,0-0.26-0.01-0.39-0.01c-0.15,0-0.3,0-0.46,0
				c-0.1,0-0.21,0-0.31,0c-0.25,0-0.5,0.01-0.75,0.03c0,0-0.01,0-0.01,0c-6.42,0.32-14.64,0.87-19.59,1.12
				c-0.41,0.02-0.8,0.04-1.17,0.06c-0.91,0.04-1.66,0.07-2.2,0.07c-0.05,0-0.08,0-0.13,0l-7.17-0.42c-0.63-0.07-1.22-0.13-1.77-0.2
				c-1.54-0.18-2.75-0.34-3.5-0.37c-0.15-0.01-0.28-0.01-0.4,0c-0.17,0.01-0.3,0.03-0.38,0.06c-0.05,0.02-0.09,0.05-0.1,0.09
				c-0.25,0.88,14.96,6.32,27.78,7.03c8.08,0.45,16.56-0.92,18.72-1.38c1.14-0.24,3.22-0.9,4.93-1.47c1.49,0.7,2.99,1.37,4.49,2.05
				c4.51,2.02,9.02,4.05,13.53,6.08c-3.18,0.25-7.96,1.01-11.67,3.31c-6.08,3.77-14.3,9.19-16.47,10.31
				c-5.37,2.78-10.34,3.65-10.13,4.32c0.29,0.96,14.42,0.32,24.25-4c6.19-2.72,11.71-7.37,13.06-8.67c0.87-0.84,2.44-2.84,3.45-4.15
				c5.33,2.41,10.64,4.84,15.95,7.31c-3.4,0.45-9.4,1.69-13.68,5.02c-6.29,4.9-14.74,11.91-17.02,13.41
				c-5.62,3.7-11.02,5.14-10.71,5.9c0.43,1.09,16.01-0.89,26.39-6.76c6.54-3.7,12.1-9.58,13.43-11.2c0.93-1.13,2.6-3.89,3.53-5.47
				c6.4,2.99,12.78,6.03,19.14,9.15c0.61,0.3,1.22,0.61,1.84,0.91c-2.92,0.25-11.05,1.31-16.56,5.56
				c-6.83,5.27-16.01,12.81-18.48,14.41c-6.09,3.97-11.94,5.51-11.62,6.34c0.46,1.17,17.33-0.9,28.59-7.2
				c7.09-3.97,13.13-10.3,14.58-12.04c1.19-1.43,3.5-5.3,4.3-6.66c6.21,3.07,12.39,6.19,18.55,9.37
				c-3.99,0.63-11.67,2.37-16.93,6.89c-7.39,6.34-17.29,15.4-19.97,17.35c-6.63,4.82-13.13,6.83-12.71,7.77
				c0.59,1.33,19.45-1.75,31.76-9.47c7.76-4.86,14.19-12.39,15.73-14.46c1.09-1.47,3.04-5.1,4.07-7.08
				c5.96,3.09,11.89,6.22,17.8,9.41c-3.76,0.51-13.24,2.29-19.49,7.72c-7.95,6.91-18.61,16.77-21.5,18.89
				c-7.14,5.26-14.16,7.46-13.71,8.48c0.64,1.44,21.03-1.98,34.3-10.4c8.36-5.3,15.28-13.5,16.93-15.74c1.29-1.77,3.7-6.4,4.67-8.3
				c3.22,1.74,6.43,3.49,9.63,5.26c2.39,1.32,4.76,2.65,7.14,3.98c-3.46,0.71-13.9,3.33-20.18,10.1
				c-7.62,8.2-17.77,19.85-20.58,22.41c-6.95,6.32-14.08,9.29-13.5,10.37c0.83,1.53,21.88-3.81,34.93-14.07
				c8.22-6.47,14.62-16,16.11-18.6c1.22-2.11,3.36-7.71,4.11-9.7c6.94,3.9,13.84,7.87,20.7,11.9c-4.19,1-13.02,3.72-18.54,9.73
				c-7.44,8.1-17.35,19.59-20.1,22.11c-6.79,6.24-17.48,9.81-16.9,10.87c0.82,1.51,25.16-4.45,37.92-14.59
				c8.04-6.39,14.28-15.79,15.73-18.35c1.04-1.84,2.78-6.34,3.68-8.73c6.04,3.57,12.05,7.19,18.03,10.85
				c-4.4,1.07-13.09,3.82-18.59,9.74c-7.62,8.2-17.77,19.85-20.58,22.41c-6.95,6.32-21.89,12.14-21.3,13.22
				c0.83,1.53,29.69-6.66,42.73-16.93c8.22-6.47,14.62-16,16.11-18.6c1.03-1.8,2.74-6.11,3.69-8.59
				c6.78,4.18,13.53,8.42,20.29,12.63c-4.09,0.96-13.15,3.66-18.78,9.79c-7.44,8.1-17.35,19.59-20.1,22.11
				c-6.79,6.24-25.34,14.94-24.76,16.01c0.82,1.51,33.02-9.58,45.78-19.72c8.04-6.39,14.28-15.79,15.73-18.35
				c1.06-1.87,2.84-6.49,3.72-8.84c5.83,3.63,11.68,7.25,17.57,10.79c-3.8,1.07-11.79,3.9-16.6,9.7
				c-6.48,7.82-21.87,17.76-24.28,20.21c-5.96,6.06-29.43,18.59-28.85,19.57c0.82,1.39,43.5-12.67,54.77-22.58
				c7.1-6.24,12.42-15.25,13.64-17.69c0.87-1.74,2.25-5.94,2.98-8.22c2.64,1.58,5.29,3.16,7.95,4.71c4.46,2.6,8.98,5.17,13.54,7.67
				c-3.48,0.77-11.2,3.95-17.17,8.76c-8.83,7.1-18.65,12.52-25.08,16.33c-7.1,4.2-28.58,17.96-29.33,18.73
				c-10.27,10.63,43.71-9.61,55.16-18.63c7.22-5.69,12.84-14.06,14.14-16.34c1.01-1.75,2.73-6.21,3.48-8.19
				c11.75,6.39,23.82,12.26,36.15,16.73c1.64,0.6,1.76-1.19,0.19-1.84c-2.18-0.91-4.34-1.87-6.52-2.8
				c-10.07-4.33-19.91-9.19-29.58-14.41c1.57-1.73,4.32-4.83,5.33-6.36c1.44-2.2,9.1-11.41,10.85-20.31
				c2.79-14.13-1.8-61.43-5.29-62.45c-3.91-1.14-3.44,27-7.85,43.54c-0.85,3.19-2.09,15.43-4.76,26.37
				c-1.68,6.92-1.03,14.5-0.07,18.24c-6.52-3.55-12.96-7.26-19.34-11.07c-0.67-0.4-1.33-0.8-1.99-1.2c1.57-1.69,4.77-5.2,5.91-6.88
				c1.52-2.27,6.74-11.33,8.65-20.54c3.03-14.63,3.1-55.65,1.49-55.66c-1.14-0.01-8.49,29.27-10.81,37.41
				c-0.94,3.3-2.94,15.97-6.53,25.43c-2.74,7.21-1.07,15.73-0.11,19.38c-6.36-3.84-12.68-7.75-18.98-11.68
				c1.35-1.61,5.12-6.15,6.35-8.21c1.51-2.52,6.59-12.58,8.15-22.68c2.48-16.03,4.23-45.43,0.53-48c0,0-5.75,19.14-7.8,28.1
				c-0.83,3.62-5.91,17.88-9.25,28.32c-2.75,8.57,0.05,18.6,1.14,21.92c-6.86-4.28-13.72-8.57-20.62-12.81
				c1.35-1.75,4.85-6.34,5.98-8.43c1.41-2.61,6.13-12.98,7.31-23.3c1.88-16.38,2.34-40.68,0.61-40.59
				c-1.22,0.07-6.91,11.37-8.64,20.53c-0.7,3.71-5.25,18.35-8.21,29.07c-2.38,8.63,0.63,18.55,1.89,22.08
				c-1.36-0.83-2.71-1.66-4.07-2.49c-4-2.42-8.01-4.82-12.04-7.2c1.55-1.85,4.89-5.91,6.03-7.83c1.51-2.52,6.59-12.58,8.15-22.68
				c2.48-16.03-0.85-41.64-2.58-41.59c-1.22,0.04-2.64,12.74-4.69,21.69c-0.83,3.62-5.91,17.88-9.25,28.32
				c-2.59,8.06-0.26,17.43,0.93,21.27c-6.78-3.99-13.61-7.92-20.47-11.77c1.59-2.07,4.4-5.84,5.4-7.67
				c1.41-2.61,6.13-12.98,7.32-23.3c1.88-16.38-1.55-39.55-3.28-39.45c-1.22,0.07-3.02,10.23-4.74,19.39
				c-0.7,3.71-5.25,18.35-8.21,29.07c-2.14,7.75,0.07,16.53,1.45,20.8c-4.88-2.73-9.78-5.43-14.7-8.09c-1.8-0.97-3.6-1.94-5.41-2.9
				c1.3-2.03,3.67-5.83,4.46-7.65c1.11-2.55,4.7-12.64,5.06-22.49c0.56-15.64-6.81-34.84-8.39-34.66c-1.11,0.13,0.54,7.25-0.4,16.04
				c-0.38,3.56-3.51,17.69-5.47,28c-1.42,7.51,1.27,15.79,2.84,19.74c-5.46-2.91-10.95-5.77-16.45-8.59
				c1.04-1.85,3.19-5.76,3.85-7.57c0.89-2.42,3.68-11.96,3.53-21.16c-0.24-14.62-7.89-32.27-9.32-32.05
				c-1.01,0.16,0.84,6.75,0.41,14.98c-0.17,3.33-2.35,16.63-3.64,26.33c-0.97,7.33,2.15,15.29,3.72,18.73
				c-5.61-2.86-11.24-5.68-16.89-8.45c0.91-1.8,2.34-4.71,2.81-6.14c0.7-2.16,2.85-10.65,2.44-18.79
				c-0.64-12.92-7.83-28.37-9.07-28.14c-0.87,0.16,0.93,5.95,0.81,13.24c-0.05,2.95-1.55,14.76-2.38,23.36
				c-0.57,5.85,1.76,12.07,3.31,15.45c-2.61-1.28-5.23-2.55-7.85-3.8c-3.64-1.74-7.28-3.46-10.94-5.17c0.4-1.75,1.18-5.26,1.3-6.85
				c0.17-2.17,0.28-10.6-1.73-18.32c-3.2-12.25-12.57-25.94-13.59-25.53c-0.72,0.28,2.02,5.55,3.4,12.53
				c0.56,2.83,1.68,14.33,2.72,22.67c0.75,6.01,4.4,11.94,6.38,14.79c-4.68-2.18-9.38-4.33-14.08-6.44
				C640.9,381.67,639.78,381.17,638.65,380.66z"/>
		</g>
		<path class="st2" d="M1174.85,575.93c6.87-9.39-2.23-26.01-16.04-36.11c-17.54-12.83-47.65-17.16-56.17-18.17
			c-1.08-0.48-2.18-0.93-3.29-1.33c-2.13-0.76-4.32-1.35-6.55-1.76c-1.06-0.19-2.17-0.38-3.28-0.43c1.09-1.25,8.5-9.24,10.15-10.92
			c2.87-0.05,5.76-0.32,8.6-0.26c1.01,0.02,2.01,0.07,3.01,0.13c7.57,5.75,32.79,24.14,51.13,28.5c13.62,3.24,28.14-1.84,30.5-11.79
			c2.36-9.95-10.02-21.41-24.66-24.89c-19.23-4.57-50.56,3.93-57.71,6.01c-0.15,0-0.29-0.01-0.44-0.02c-2.62-0.07-5.5-0.12-8.3,0.16
			c2.56-2.57,18.6-17.78,22.53-21.42c2.89-0.48,5.73-1.42,8.59-2.03c0.14-0.03,0.27-0.05,0.41-0.08
			c8.63,3.55,34.59,13.5,52.09,12.28c13.27-0.93,25.47-10.47,24.85-19.36c-0.62-8.89-15.06-15.13-29.33-14.13
			c-18.05,1.26-41.88,14.79-48.65,18.85c-1.4,0.28-2.83,0.61-4.23,1.03c1.82-1.69,10.19-10.22,18.28-18.6
			c9.45-4.57,33.57-16.99,44.32-29.6c8.45-9.91,11-23.56,4.52-29.09c-6.49-5.53-20.61,0.4-29.69,11.05
			c-11.15,13.09-19.58,38.22-22.19,46.64c-6.79,6.67-17.27,16.8-17.07,16.28c0.61-1.6,1.43-4.49,1.89-6.14
			c0.06-0.24,0.13-0.47,0.19-0.71c4.36-8.29,15.66-31.19,16.54-47.59c0.68-12.71-5.26-24.81-13.38-25.25
			c-8.11-0.43-15.54,12.55-16.13,26.21c-0.98,22.48,7.82,42.65,10.5,48.24c-0.61,2.5-1.19,5.03-1.87,7.5
			c-0.63,0.57-1.26,1.14-1.9,1.71c-4.03,3.63-19.26,17.6-21.28,19.55c0.7-2.66,1.17-5.41,1.56-8.12
			c3.26-10.55,10.93-38.43,7.5-57.14c-2.69-14.66-13.78-33.44-23.84-31.59c-10.06,1.84-14.94,25.45-12.05,41.2
			c3.86,21.08,22.57,46.05,26.35,50.93c-0.64,2.38-1.55,4.9-2.89,7.99c-1.31,1.28-10.05,10.29-11,11.31
			c0.12-1.01,0.1-2.05,0.09-2.98c-0.01-2-0.19-4.01-0.5-5.99c-0.77-8.84-4.59-34.34-23.56-64.28
			c-9.61-15.17-24.39-20.02-33.78-13.15c-9.39,6.87-10.03,21.42,1.37,37c14.43,19.72,44.86,37.5,53.71,42.41
			c0.21,1.43,0.34,2.87,0.41,4.31c0.08,1.53-0.11,3.27,0.33,4.77c-0.14,0.15-1.2,1.39-2.72,3.2c-0.58-0.54-1.31-0.98-1.92-1.34
			c-0.54-0.32-1.11-0.6-1.69-0.85c-2.37-4.63-9.47-16.9-20.78-23.03c-8.8-4.77-26.57-8.73-30.06-2.3
			c-3.49,6.43,2.93,16.65,12.39,21.78c12.59,6.83,34.06,5.74,38.5,5.43c0.31,0.15,0.61,0.32,0.91,0.5c0.53,0.31,1.02,0.74,1.54,1.11
			c-3.64,4.33-8.88,10.65-11.24,13.76c-4.12,5.45-57.91,80.26-58.98,81.51c-4.3,5.05,0.46,6.43,1.99,4.28
			c0.86-1.21,55.64-76.13,59.25-81.03c2.09-2.83,7.66-9.67,11.86-14.78c0.43,0.45,0.85,0.91,1.24,1.4c0.71,0.9,1.37,1.83,1.95,2.82
			c-0.28,6.12-0.52,22.66,4.27,32.66c3.72,7.77,13.16,15.17,18.84,12.46c5.68-2.72,1.25-18.74-2.74-27.09
			c-4.92-10.29-15.54-17.51-19.06-19.7c-0.54-0.85-1.15-1.67-1.83-2.42c-0.37-0.41-0.89-1.02-1.48-1.56c2.19-2.66,3.8-4.6,3.97-4.79
			c1.49,0.34,3.04,0.52,4.52,0.85c2.44,0.56,4.83,1.33,7.13,2.32c0.22,0.09,0.44,0.19,0.65,0.29c3.48,6.32,20.63,36.37,38.99,49.81
			C1152.8,581.8,1167.98,585.32,1174.85,575.93z"/>
		<path class="st2" d="M807.4,813.37c-11.14-3.36-13.88-22.1-8.94-38.49c6.27-20.8,27.7-42.4,33.9-48.33
			c0.57-1.03,1.18-2.05,1.83-3.04c1.25-1.89,2.64-3.68,4.17-5.35c0.73-0.79,1.51-1.61,2.36-2.32c-1.62-0.34-12.35-2.26-14.68-2.61
			c-2.32,1.69-4.79,3.21-7.02,4.97c-0.79,0.63-1.56,1.27-2.33,1.92c-2.58,9.14-11.64,39.02-23.65,53.55
			c-8.92,10.79-23.57,15.48-31.45,8.96c-7.88-6.52-4.9-23.13,4.69-34.73c12.6-15.23,42.73-27.31,49.69-29.96
			c0.11-0.09,0.23-0.18,0.34-0.28c2.05-1.63,4.32-3.41,6.73-4.87c-3.59-0.51-25.56-2.99-30.88-3.53c-2.59,1.36-5.43,2.31-8.08,3.55
			c-0.13,0.06-0.25,0.12-0.37,0.18c-4.75,8.03-19.48,31.61-34.19,41.18c-11.15,7.25-26.64,6.99-31.5-0.49
			c-4.86-7.47,2.91-21.15,14.9-28.95c15.17-9.87,42.34-13.41,50.19-14.26c1.29-0.62,2.63-1.22,4-1.73
			c-2.47-0.26-14.29-2.03-25.8-3.84c-10.29,2.04-37.03,6.66-53.21,3.06c-12.71-2.82-22.97-12.18-21.12-20.5
			c1.85-8.32,16.69-12.1,30.36-9.06c16.78,3.73,38.65,18.72,45.81,23.87c9.43,1.23,23.9,3.02,23.43,2.72
			c-1.45-0.91-3.85-2.72-5.2-3.77c-0.19-0.15-0.39-0.3-0.58-0.45c-8.47-3.99-31.29-15.47-41.87-28.03
			c-8.2-9.73-10.74-22.98-4.53-28.21c6.21-5.23,19.96,0.66,28.67,11.21c14.32,17.35,19.45,38.75,20.67,44.83
			c1.99,1.63,3.98,3.3,6.02,4.86c0.85,0.08,1.7,0.15,2.55,0.23c5.4,0.47,25.98,2.45,28.76,2.78c-2.17-1.7-4.19-3.61-6.13-5.54
			c-8.95-6.46-31.88-24.09-40.41-41.09c-6.68-13.32-9.14-34.99,0-39.58c9.14-4.59,27.25,11.32,34.43,25.63
			c9.61,19.15,9.72,50.36,9.64,56.52c1.95,1.51,4.19,2.98,7.12,4.64c1.81,0.24,14.23,2.16,15.6,2.4c-0.7-0.73-1.31-1.58-1.87-2.32
			c-1.2-1.6-2.26-3.32-3.2-5.08c-4.71-7.52-17.02-30.17-19.91-65.5c-1.46-17.9,7.41-30.67,19.04-30.84
			c11.63-0.17,20.91,11.05,21.19,30.36c0.36,24.43-13.23,56.96-17.33,66.2c0.69,1.27,1.46,2.49,2.27,3.69
			c0.86,1.27,2.05,2.54,2.61,4.01c0.2,0.04,1.8,0.39,4.1,0.92c0.14-0.78,0.46-1.57,0.73-2.23c0.24-0.58,0.52-1.15,0.84-1.69
			c-0.89-5.12-2.62-19.2,2.71-30.9c4.15-9.11,15.95-22.97,22.61-19.94c6.66,3.03,7.69,15.06,3.23,24.85
			c-5.94,13.03-23.73,25.1-27.46,27.53c-0.15,0.31-0.3,0.62-0.43,0.94c-0.23,0.57-0.37,1.2-0.56,1.81
			c5.51,1.27,13.5,3.15,17.26,4.22c6.58,1.87,94.57,29.19,96.18,29.54c6.48,1.44,3.51,5.42,0.99,4.62
			c-1.42-0.45-90.27-27.27-96.1-29c-3.38-1-11.93-3.11-18.37-4.66c-0.07,0.62-0.14,1.24-0.15,1.86c-0.03,1.14,0.01,2.29,0.15,3.42
			c3.91,4.71,14.06,17.78,16.27,28.64c1.71,8.44-1.37,20.04-7.54,21.29c-6.17,1.25-12.29-14.2-14.13-23.28
			c-2.27-11.18,1.86-23.34,3.35-27.21c-0.08-1.01-0.09-2.02,0.01-3.03c0.05-0.55,0.1-1.36,0.24-2.14c-3.35-0.8-5.8-1.38-6.06-1.43
			c-0.98,1.17-2.12,2.25-3.09,3.4c-1.62,1.91-3.06,3.97-4.3,6.15c-0.12,0.21-0.23,0.42-0.35,0.63c1.03,7.15,5.44,41.46-1.12,63.24
			C828.54,804.77,818.54,816.73,807.4,813.37z"/>
		<g>
			<g>
				<path class="st2" d="M1009.07,725.57c33.72-29.67,74.88-29.77,104.92-12.64c37.09,21.14,53.61,65.24,82.41,96.76
					c-35.38-3.91-85.32,14.37-131.67-6.86C1014.78,779.95,1009.07,725.57,1009.07,725.57z"/>
			</g>
			<g>
				<g>
					<path class="st1" d="M1091.21,811.04c0.86,0.16,1.72,0.29,2.58,0.42L1090.2,758l42.47-31.2c-0.64-0.59-1.28-1.17-1.93-1.74
						l-43.18,31.72L1091.21,811.04z"/>
					<path class="st1" d="M1052.89,743.52l6.9,56.87c0.89,0.47,1.81,0.92,2.73,1.37l-6.93-57.16l45.26-37.76
						c-0.93-0.34-1.86-0.67-2.8-0.98L1052.89,743.52z"/>
					<path class="st1" d="M1119.25,771.08l-0.57,0.43l4.51,41.73c0.85-0.02,1.71-0.03,2.56-0.06l-4.38-40.53
						c10.21-7.89,24.24-18.64,30.9-23.56c-0.51-0.68-1.02-1.35-1.53-2.02C1146.24,750.35,1137.31,757.12,1119.25,771.08z"/>
					<path class="st1" d="M1154.79,811.09c0.85-0.08,1.69-0.16,2.54-0.24l-1.57-22.06l17.56-9.3c-0.48-0.71-0.96-1.41-1.44-2.12
						l-18.78,9.94L1154.79,811.09z"/>
					<path class="st1" d="M1055.52,702.68c-1.5,0.26-3.01,0.57-4.51,0.92l-27.48,27.56l0.29,35c0.81,1.34,1.68,2.67,2.58,4.01
						l-0.32-37.97L1055.52,702.68z"/>
				</g>
				<path class="st1" d="M1009.07,725.57c13.7,4.81,27.24,10.03,40.74,15.36c13.5,5.34,26.88,10.95,40.25,16.61
					c13.28,5.85,26.59,11.66,39.68,17.94c13.09,6.27,26.1,12.74,38.73,19.91c-6.59-3.06-13.1-6.23-19.73-9.18
					c-6.57-3.06-13.19-6.02-19.82-8.95c-13.24-5.9-26.52-11.71-39.87-17.38c-13.27-5.85-26.65-11.42-39.98-17.14L1009.07,725.57z"/>
			</g>
		</g>
		<g>
			<g>
				<path class="st2" d="M869.26,473.59c-43.88,9.59-79.92-10.28-97.89-39.83c-22.18-36.48-15.24-83.06-25.14-124.59
					c29.04,20.58,81.58,28.81,111.82,69.86C890.64,423.27,869.26,473.59,869.26,473.59z"/>
			</g>
			<g>
				<g>
					<path class="st1" d="M838.88,359.02c-0.68-0.55-1.37-1.08-2.05-1.62l-22.79,48.49l-52.27,6.68c0.27,0.83,0.55,1.64,0.84,2.46
						l53.14-6.8L838.88,359.02z"/>
					<path class="st1" d="M839.64,436.65l21.55-53.08c-0.55-0.84-1.14-1.68-1.73-2.52l-21.66,53.35l-57.89,11.07
						c0.64,0.75,1.3,1.49,1.97,2.22L839.64,436.65z"/>
					<path class="st1" d="M794.97,380.36l0.7-0.11l16.3-38.69c-0.76-0.4-1.51-0.8-2.27-1.19l-15.82,37.57
						c-12.76,1.95-30.24,4.55-38.45,5.62c0.11,0.84,0.23,1.67,0.36,2.51C761.32,385.4,772.4,383.81,794.97,380.36z"/>
					<path class="st1" d="M783.3,328.14c-0.78-0.34-1.56-0.68-2.33-1.02l-9.33,20.05l-19.87-0.39c0.08,0.85,0.16,1.7,0.23,2.55
						l21.25,0.42L783.3,328.14z"/>
					<path class="st1" d="M817.53,471.09c1.44,0.5,2.91,0.96,4.39,1.39l37.4-10.78l16.72-30.75c-0.06-1.56-0.17-3.15-0.31-4.76
						l-18.13,33.36L817.53,471.09z"/>
				</g>
				<path class="st1" d="M869.26,473.59c-9.64-10.85-18.96-21.98-28.18-33.19c-9.21-11.21-18.2-22.61-27.14-34.04
					c-8.77-11.56-17.6-23.09-26-34.93c-8.4-11.83-16.65-23.8-24.21-36.19c4.28,5.87,8.43,11.81,12.8,17.59
					c4.26,5.86,8.61,11.66,12.99,17.44c8.72,11.58,17.51,23.11,26.44,34.53c8.77,11.55,17.77,22.91,26.65,34.38L869.26,473.59z"/>
			</g>
		</g>
		<g>
			<g>
				<path class="st2" d="M809.42,573.36c-5.4,26.26-24.98,41.11-45.45,43.75c-25.28,3.26-49.01-11.81-74.06-16.48
					c18.27-10.86,35.49-37.53,65.21-44.08C787.15,549.5,809.42,573.36,809.42,573.36z"/>
			</g>
			<g>
				<g>
					<path class="st1" d="M739.55,562.17c-0.47,0.23-0.92,0.48-1.38,0.73l20.93,24.18l-9.02,30.14c0.52,0.05,1.03,0.1,1.55,0.14
						l9.17-30.64L739.55,562.17z"/>
					<path class="st1" d="M782.09,580.57l-23.74-24.62c-0.59,0.1-1.19,0.21-1.79,0.33l23.86,24.74l-7.99,34.27
						c0.56-0.17,1.13-0.35,1.69-0.54L782.09,580.57z"/>
					<path class="st1" d="M740.56,591.3l0.11-0.41l-17.16-18.26c-0.4,0.32-0.8,0.63-1.2,0.95l16.66,17.74
						c-2.03,7.43-4.85,17.6-6.25,22.34c0.48,0.14,0.97,0.28,1.45,0.41C735.15,610.88,736.97,604.45,740.56,591.3z"/>
					<path class="st1" d="M709.24,585.01c-0.38,0.34-0.75,0.68-1.12,1.02l8.68,9.95l-5.03,10.75c0.48,0.16,0.97,0.33,1.45,0.49
						l5.38-11.49L709.24,585.01z"/>
					<path class="st1" d="M795.52,600.97c0.62-0.67,1.23-1.36,1.82-2.06l3.18-23.02l-12.72-16.57c-0.87-0.34-1.76-0.67-2.67-0.98
						l13.8,17.98L795.52,600.97z"/>
				</g>
				<path class="st1" d="M809.42,573.36c-8.26,2.63-16.59,5.01-24.93,7.33c-8.35,2.31-16.74,4.45-25.15,6.56
					c-8.43,1.99-16.86,4-25.36,5.72c-8.49,1.72-17.02,3.32-25.61,4.44c4.24-0.91,8.48-1.74,12.7-2.72c4.23-0.9,8.45-1.87,12.66-2.86
					c8.43-1.95,16.85-3.96,25.25-6.05c8.42-1.99,16.81-4.14,25.21-6.21L809.42,573.36z"/>
			</g>
		</g>
		<g>
			<g>
				<path class="st1" d="M983.12,719.54c-13.1-68.97,19.51-124.44,66.46-151.24c57.96-33.09,130.44-20.24,195.76-33.91
					c-33.41,44.49-48.54,126.24-113.98,171.72C1060.84,755.11,983.12,719.54,983.12,719.54z"/>
			</g>
			<g>
				<g>
					<path class="st2" d="M1163.47,677c0.89-1.03,1.75-2.09,2.62-3.14l-74.79-37.7l-8.19-81.97c-1.3,0.39-2.59,0.8-3.88,1.21
						l8.33,83.33L1163.47,677z"/>
					<path class="st2" d="M1042.13,674.85l82.01,35.96c1.34-0.82,2.67-1.71,4.01-2.59l-82.43-36.14l-14.81-90.94
						c-1.2,0.97-2.38,1.97-3.55,2.99L1042.13,674.85z"/>
					<path class="st2" d="M1132.01,607.48l0.14,1.11l59.75,27.13c0.66-1.16,1.31-2.33,1.95-3.49l-58.02-26.34
						c-2.49-20.02-5.8-47.44-7.13-60.32c-1.31,0.14-2.63,0.29-3.93,0.45C1125.59,554.68,1127.59,572.06,1132.01,607.48z"/>
					<path class="st2" d="M1214.11,591.48c0.57-1.21,1.14-2.4,1.7-3.6l-30.93-15.44l1.46-31.03c-1.33,0.08-2.66,0.17-4,0.25
						l-1.57,33.18L1214.11,591.48z"/>
					<path class="st2" d="M989.27,638.82c-0.85,2.23-1.62,4.51-2.36,6.8l15.23,58.91l47.32,27.44c2.45-0.03,4.93-0.13,7.45-0.28
						l-51.34-29.77L989.27,638.82z"/>
				</g>
				<path class="st2" d="M983.12,719.54c17.37-14.6,35.17-28.67,53.07-42.6c17.92-13.92,36.12-27.46,54.36-40.95
					c18.44-13.21,36.84-26.5,55.7-39.12c18.86-12.62,37.9-24.99,57.6-36.28c-9.35,6.43-18.81,12.67-28.04,19.25
					c-9.34,6.41-18.6,12.95-27.81,19.55c-18.47,13.13-36.86,26.37-55.1,39.82c-18.42,13.2-36.57,26.78-54.87,40.17L983.12,719.54z"
					/>
			</g>
		</g>
		<g>
			<g>
				<path class="st1" d="M906.74,516.08c-35.74,60.43-96.88,80.5-149.82,69.6c-65.37-13.46-111.28-71-169.34-103.91
					c54.48-11.31,119.85-62.68,199.03-53.56C871.92,438.03,906.74,516.08,906.74,516.08z"/>
			</g>
			<g>
				<g>
					<path class="st2" d="M743.27,428.84c-1.35,0.18-2.7,0.41-4.04,0.62l31.23,77.72l-48.01,66.94c1.23,0.57,2.47,1.12,3.71,1.66
						l48.81-68.05L743.27,428.84z"/>
					<path class="st2" d="M832.93,510.64l-37.79-81.18c-1.55-0.27-3.14-0.48-4.72-0.71l37.99,81.6l-48.98,78.04
						c1.54,0.06,3.09,0.1,4.64,0.1L832.93,510.64z"/>
					<path class="st2" d="M720.95,501.81l0.63-0.92l-26.92-59.84c-1.26,0.44-2.52,0.88-3.77,1.33l26.14,58.11
						c-11.36,16.67-27,39.44-34.51,49.98c1.08,0.76,2.16,1.52,3.25,2.26C690.88,545.68,700.86,531.31,720.95,501.81z"/>
					<path class="st2" d="M648.75,459.56c-1.23,0.53-2.44,1.05-3.66,1.58l13.01,32.03l-21.6,22.32c1.06,0.82,2.11,1.63,3.17,2.45
						l23.1-23.87L648.75,459.56z"/>
					<path class="st2" d="M848.79,572.61c2.11-1.12,4.2-2.31,6.26-3.55l27.5-54.28l-17.39-51.87c-1.86-1.59-3.79-3.16-5.78-4.71
						l18.86,56.27L848.79,572.61z"/>
				</g>
				<path class="st2" d="M906.75,516.08c-22.69-0.52-45.34-1.72-67.98-3.1c-22.64-1.39-45.25-3.26-67.86-5.19
					c-22.57-2.27-45.16-4.45-67.66-7.44c-22.49-2.99-44.96-6.29-67.2-10.83c11.27,1.35,22.49,2.92,33.77,4.08
					c11.25,1.37,22.52,2.57,33.79,3.71c22.54,2.35,45.09,4.57,67.67,6.52c22.55,2.26,45.15,4.06,67.72,6.11L906.75,516.08z"/>
			</g>
		</g>
		<g>
			<g>
				<path class="st1" d="M922.56,688.58c23.32,66.22-0.6,125.96-42.98,159.51c-52.33,41.42-125.92,39.61-188.45,62.94
					c26.35-49,29.02-132.1,86.89-186.9C840.38,665.09,922.56,688.58,922.56,688.58z"/>
			</g>
			<g>
				<g>
					<path class="st2" d="M750.65,757.73c-0.73,1.16-1.42,2.33-2.12,3.49l79.61,26.03l20.42,79.81c1.23-0.58,2.44-1.18,3.66-1.78
						l-20.76-81.13L750.65,757.73z"/>
					<path class="st2" d="M870.94,741.63l-86.48-23.23c-1.2,1.01-2.39,2.09-3.58,3.16l86.93,23.35l28.3,87.68
						c1.04-1.14,2.06-2.3,3.06-3.49L870.94,741.63z"/>
					<path class="st2" d="M792.21,821.74l-0.3-1.07l-63.15-17.85c-0.47,1.25-0.95,2.5-1.41,3.75l61.32,17.33
						c5.47,19.42,12.86,46.03,16.11,58.56c1.28-0.34,2.55-0.68,3.82-1.03C806.49,872.98,801.89,856.09,792.21,821.74z"/>
					<path class="st2" d="M713.43,849.89c-0.38,1.28-0.76,2.55-1.14,3.82l32.9,10.62l3.22,30.9c1.3-0.28,2.61-0.57,3.91-0.85
						l-3.43-33.04L713.43,849.89z"/>
					<path class="st2" d="M928.62,769.31c0.5-2.33,0.93-4.7,1.31-7.08l-23.9-55.95l-50.91-20.02c-2.41,0.4-4.86,0.87-7.33,1.4
						l55.23,21.72L928.62,769.31z"/>
				</g>
				<path class="st2" d="M922.56,688.58c-14.98,17.04-30.46,33.63-46.07,50.09c-15.62,16.45-31.58,32.57-47.59,48.65
					c-16.25,15.83-32.44,31.73-49.19,47.05c-16.74,15.31-33.72,30.4-51.49,44.52c8.28-7.77,16.69-15.35,24.83-23.24
					c8.28-7.74,16.44-15.6,24.56-23.5c16.29-15.75,32.48-31.61,48.49-47.65c16.23-15.82,32.13-31.97,48.21-47.95L922.56,688.58z"/>
			</g>
		</g>
		<path class="st2" d="M1274.73,485.7c-6.58,3.17-48.71,8.81-48.71,8.81s30.64-29.46,37.22-32.63c6.58-3.17,14.48-0.41,17.65,6.17
			C1284.06,474.63,1281.3,482.53,1274.73,485.7z"/>
		<path class="st2" d="M1247.12,810.27c-7.12-1.6-43.64-23.37-43.64-23.37s42.31-4.04,49.44-2.43c7.12,1.6,11.6,8.68,10,15.8
			C1261.32,807.4,1254.25,811.88,1247.12,810.27z"/>
		<path class="st2" d="M1261.2,441.79c-2.13,2.83-19.04,14.66-19.04,14.66s6.65-19.53,8.78-22.37c2.13-2.83,6.15-3.4,8.99-1.28
			C1262.76,434.93,1263.33,438.96,1261.2,441.79z"/>
		<path class="st2" d="M627.94,650.77c7.3-0.05,47.79,12.88,47.79,12.88s-40.3,13.51-47.6,13.56c-7.3,0.05-13.26-5.83-13.32-13.13
			S620.64,650.82,627.94,650.77z"/>
		<path class="st2" d="M533.92,421.84c7.14,1.54,43.84,22.97,43.84,22.97s-42.28,4.42-49.41,2.88c-7.14-1.54-11.68-8.57-10.14-15.71
			C519.74,424.84,526.78,420.3,533.92,421.84z"/>
		<path class="st2" d="M621.37,696.24c3.14-1.65,23.48-5.1,23.48-5.1s-14.37,14.81-17.5,16.46c-3.14,1.65-7.02,0.44-8.67-2.69
			S618.23,697.89,621.37,696.24z"/>
		<path class="st2" d="M655.71,833.94c2.35-2.65,20.15-13.09,20.15-13.09s-8.18,18.94-10.53,21.59c-2.35,2.65-6.4,2.9-9.06,0.55
			C653.61,840.65,653.36,836.59,655.71,833.94z"/>
		<path class="st2" d="M520.11,469.49c3.14-1.65,23.48-5.1,23.48-5.1s-14.37,14.81-17.5,16.46s-7.02,0.44-8.67-2.69
			C515.77,475.02,516.98,471.14,520.11,469.49z"/>
		<path class="st2" d="M1233.95,836.42c-2.45-2.57-11.33-21.19-11.33-21.19s18.17,9.77,20.62,12.33c2.44,2.57,2.35,6.63-0.22,9.07
			C1240.46,839.08,1236.4,838.99,1233.95,836.42z"/>
	</g>
	<ellipse class="st0" cx="947.4" cy="942.01" rx="197.72" ry="82.99"/>
	<path class="st3" d="M861.91,325.71c-0.01,19.41-13.85,81.21-55.4,101.99c17,52.25,207.12,99.47,286.44-3.15
		c-42.18-50.36-46.59-96.32-46.59-96.32L861.91,325.71z"/>
	<path class="st4" d="M1012.35,453.57c9.5-1.21,22.69,7,34.64,22.6c12.4,16.2,25.62,41.58,38.24,81.68
		c11.22,35.63,13.69,63.12,12.46,81c-2.3,33.41-35.43,40.7-47.17,13.48c-3.07-7.11-12.17-37.36-19.9-65.1
		C1020.3,554.09,982.63,457.35,1012.35,453.57z"/>
	<path class="st4" d="M886.53,453.57c-9.5-1.21-23.33,6.18-35.28,21.79c-12.4,16.2-26.13,44.55-35.68,80.66
		c-9.55,36.12-11.42,64.95-10.19,82.83c2.3,33.41,35.43,40.7,47.17,13.48c3.07-7.11,12.17-37.36,19.9-65.1
		C882.78,554.09,916.25,457.35,886.53,453.57z"/>
	<path class="st5" d="M1012.35,453.57c0,27.43-24.07,71.68-62.58,71.68c-38.51,0-63.25-44.25-63.25-71.68
		c8.48-7.48,32.89-18.87,63.25-18.87S999.81,442.21,1012.35,453.57z"/>
	<g>
		<path class="st6" d="M1023.31,731.39c14.21,18.56,21.75,28.13,35.67,47.79c-38.53,18.86-68.77,70.15-75.9,94.39
			c-25.95,0.08-44.04,0.16-69.99,0.25c-3.63-13.39-31.95-72.32-82.37-84.99c15.34-20.63,29.87-42.35,44.67-57.43H1023.31z"/>
	</g>
	<path class="st7" d="M821.01,833.78c-12.45,19.92-35.49,66.61-11.83,82.18c23.66,15.56,47.94,4.36,30.51-5.6
		C847.78,884.21,821.01,833.78,821.01,833.78z"/>
	<path class="st8" d="M830.14,788.24c23.64-42.58,102.86-9.59,116.13,70.79c9.89,59.92,21.46,148.67-16.47,159.49
		c-33.98,9.69-54.64-13.02-80.62-68.7C821.23,889.93,809.52,825.38,830.14,788.24z"/>
	<path class="st6" d="M946.27,859.03c-6.95-42.08-31.97-71.14-57.63-83.2c26.86,46.4,71.04,213.28,21.19,244.47
		c6.18,0.86,12.77,0.28,19.97-1.78C967.72,1007.69,956.16,918.95,946.27,859.03z"/>
	<path class="st9" d="M1046.21,550.39c-3.78-28.57-19.12-43.52-33.93-97.07c-1.45-5.2-12.68-11.69-19.94-11.83
		c-2.42,43.16-22.85,56.55-43.2,56.58c-16.06-0.02-37.99-17.4-33.75-58.57c-14.54,2.66-24.84,9.63-29.4,13.82
		c-14,50.62-30.17,68.5-33.94,97.07c-3.42,25.85,13.74,52.21,13.74,52.21s7.37,92.66,9.6,128.79c19.19,11.25,34.62,17.8,72.96,17.8
		c38.35,0,58.92-7.01,74.96-17.8c2.22-36.13,9.16-128.79,9.16-128.79S1049.63,576.25,1046.21,550.39z"/>
	<path class="st4" d="M958.19,510.23c42.44-5.92,45.99-52.16,46.16-64.8c-3.87-2.25-8.43-3.87-12.02-3.94
		c-2.42,43.16-22.85,56.55-43.2,56.58c-16.06-0.02-37.99-17.4-33.75-58.57c-3.16,0.58-6.08,1.39-8.83,2.3
		C900.04,474.65,912.45,516.61,958.19,510.23z"/>
	<path class="st10" d="M872.08,604.88c14.41,11.32,44.23,14.66,65.05,4.08c9.92-4.41,15.2-4.71,25.38-0.61
		c20.2,8.13,53.7,3.54,65.23-4.01c-12.11,38.83-52.64,14.64-64.74,9.79c-12.11-4.85-16.12-4.59-24.24,1.07
		C933.52,618.83,885.91,646.4,872.08,604.88z"/>
	<g>
		<path class="st11" d="M891.63,370.61c6.81,14.44,7.52,25.89-1.87,30.89c-9.38,5.01-30.75,0.85-37.56-13.59
			c-6.82-14.46-4.72-30.22,4.67-35.23C866.25,347.68,884.82,356.16,891.63,370.61z"/>
		<path class="st11" d="M868.95,389.98c11.47,50.32,50.21,81.86,101.07,73.64c46.27-7.48,73.77-74.89,70.79-134.35
			c-2.98-59.47-33.37-94.68-85.6-91.7c-73.53,4.2-88.53,43.77-90.52,110.42C864.3,361.17,865.4,374.39,868.95,389.98z"/>
		<path class="st3" d="M882.46,401.02c-6.75-17.68-6.75-62.03-3.54-75.21c0.32,16.07,8.68,32.78,8.68,32.78s-11.25-18.64,2.25-48.21
			c7.71,28.6,66.21,33.42,66.21,33.42s-36.32-7.71-39.21-26.68c26.11,19.74,77.77,23.69,93.84,15.98
			c-19.5-5.82-33.52-18.13-33.52-18.13s37.54,14.11,52.68,19.16c15.39,5.13,20.56,11.34,20.56,11.34s9.85-110.5-65.03-128.33
			c-52.74-12.56-81.71,16.42-81.71,16.42s-26.73-4.79-43.84,24.97C827.43,314.93,875.16,400.53,882.46,401.02z"/>
		<path class="st11" d="M1015.21,356.92c-4.85,15.22-4.05,26.65,5.92,30.38c9.96,3.73,30.6-3.2,35.44-18.42
			c4.86-15.23,0.7-30.57-9.26-34.31C1037.35,330.85,1020.05,341.7,1015.21,356.92z"/>
		<g>
			
				<linearGradient id="SVGID_1_" gradientUnits="userSpaceOnUse" x1="1149.6356" y1="343.5566" x2="1139.3597" y2="349.9443" gradientTransform="matrix(0.9679 0.2513 -0.2513 0.9679 -62.5288 -223.5859)">
				<stop  offset="0" style="stop-color:#D38278"/>
				<stop  offset="1" style="stop-color:#F6B9AD;stop-opacity:0"/>
			</linearGradient>
			<path class="st12" d="M951.29,394.8c6.42-1.28,11.82-0.23,13.03,4.53c1.2,4.76-5.29,7.67-10.62,8.29
				C948.37,408.24,946.3,395.8,951.29,394.8z"/>
			<g>
				<path class="st13" d="M948.47,395.7c3.73-1.24,7.89-1.8,11.7-0.54c4.87,1.55,5.99,6.03,1.95,9.35c-2.05,1.73-4.5,2.81-6.98,3.65
					c2.37-1.05,4.77-2.2,6.7-3.97c3.66-3.2,2.64-7.01-1.83-8.55C956.29,394.37,952.25,394.78,948.47,395.7L948.47,395.7z"/>
			</g>
			<g>
				<path class="st13" d="M931.13,440.64c8.65-9.25,21.25-13.83,33.33-8.58c1.63,0.62,3.14,1.49,4.67,2.31
					C954.82,427.69,942.85,430.64,931.13,440.64L931.13,440.64z"/>
			</g>
			<g>
				
					<linearGradient id="SVGID_00000154387710375852653200000016815646946922091953_" gradientUnits="userSpaceOnUse" x1="1281.1012" y1="263.589" x2="1288.5541" y2="288.8756" gradientTransform="matrix(-0.9679 0.2513 0.2513 0.9679 2157.6902 -223.5859)">
					<stop  offset="0" style="stop-color:#DA9C68"/>
					<stop  offset="1" style="stop-color:#DA9C68;stop-opacity:0"/>
				</linearGradient>
				<path style="fill:url(#SVGID_00000154387710375852653200000016815646946922091953_);" d="M967.44,352.11
					c-1.03,7.69-5.34,30.26,16.3,32.07c21.64,1.81,16.5-24.36,16.5-24.36S977.33,353.12,967.44,352.11z"/>
				<path class="st15" d="M983.01,379.04c0.1,2.08-2.02,3.88-4.75,4.01c-2.73,0.13-5.02-1.45-5.12-3.53"/>
				<path class="st16" d="M970.6,352.17c20.28,3.16,39.14,8.28,26.08,7.21C983.61,358.31,957.22,350.08,970.6,352.17z"/>
			</g>
			<g>
				
					<linearGradient id="SVGID_00000070836986454533372390000017153256553605783713_" gradientUnits="userSpaceOnUse" x1="15098.7324" y1="-3323.9414" x2="15106.1855" y2="-3298.6548" gradientTransform="matrix(0.9679 0.2513 -0.2513 0.9679 -14531.6484 -223.5859)">
					<stop  offset="0" style="stop-color:#DA9C68"/>
					<stop  offset="1" style="stop-color:#DA9C68;stop-opacity:0"/>
				</linearGradient>
				<path style="fill:url(#SVGID_00000070836986454533372390000017153256553605783713_);" d="M934.23,352.11
					c1.03,7.69,5.34,30.26-16.3,32.07c-21.64,1.81-16.5-24.36-16.5-24.36S924.35,353.12,934.23,352.11z"/>
				<path class="st15" d="M927.85,379.04c0.1,2.08-2.02,3.88-4.75,4.01c-2.73,0.13-5.02-1.45-5.12-3.53"/>
				<path class="st16" d="M931.08,352.17c-20.28,3.16-39.14,8.28-26.08,7.21C918.06,358.31,944.45,350.08,931.08,352.17z"/>
			</g>
			<path class="st18" d="M910.36,389.94c0,1.67-4.32,3.02-9.65,3.02c-5.33,0-9.65-1.35-9.65-3.02c0-1.67,4.32-3.02,9.65-3.02
				C906.04,386.92,910.36,388.27,910.36,389.94z"/>
			<path class="st18" d="M1012.13,389.94c0,1.67-4.32,3.02-9.65,3.02c-5.33,0-9.65-1.35-9.65-3.02c0-1.67,4.32-3.02,9.65-3.02
				C1007.81,386.92,1012.13,388.27,1012.13,389.94z"/>
		</g>
	</g>
	<path class="st8" d="M1066.19,787.08c-24.33-42.19-103-7.92-114.97,72.66c-8.92,60.07-19.05,149,19.05,159.2
		c34.13,9.14,54.42-13.9,79.5-69.99C1076.74,888.61,1087.41,823.88,1066.19,787.08z"/>
	<path class="st7" d="M1075.09,833.78c12.45,19.92,35.49,66.61,11.83,82.18c-23.66,15.56-47.94,4.36-30.51-5.6
		C1048.32,884.21,1075.09,833.78,1075.09,833.78z"/>
	<path class="st6" d="M1066.19,787.08c-3.64-6.31-8.52-10.88-14.19-13.87c0.13,52.34-25.15,217.27-82.18,245.57
		c0.16,0.05,0.3,0.12,0.46,0.16c34.13,9.14,54.42-13.9,79.5-69.99C1076.74,888.61,1087.41,823.88,1066.19,787.08z"/>
	<path class="st19" d="M863.64,643.81c7.89-29.81,65.12-153.1,72-184.49c6.88-31.39-37.41-39.56-43.86-0.86
		c-7.41,44.45-74.82,113.52-82.65,184.13C805.85,672.14,852.88,684.44,863.64,643.81z"/>
	<g>
		<path class="st19" d="M936.46,348.55c0.13-5.33-2.29-6.74-4.89-6.77c-3.48-0.04-4.87,3.98-5.1,6.54
			c-1.77,19.84-5.9,51.43-5.9,51.43c0.33-10.4,1.67-42.32,2.13-53.55c0.16-3.91-1.63-7.86-5.16-8.08c-3.52-0.23-5.8,2.62-6.11,7.22
			c-1.72,25.48-3.37,54.33-3.37,54.33c-0.22-13.03-0.8-30.06-0.9-43.76c-0.05-7.05-1.18-12.56-6.12-12.18
			c-3.29,0.25-5.83,3.7-6.01,10.45c-0.51,19.39-1.65,52.52-1.65,52.52c-1.15-7.63-4.45-15.59-9.7-18.21
			c-6.94-3.47-9.92,3.76-8.06,7.13c2.66,4.82,4.91,12.25,5.39,21.73c0.33,6.43,1.36,20.65,5.07,30c5.19,13.11,4.9,14.7,2.8,25.56
			c-1.53,7.91,37,7.56,38.59,5.51c4.68-6.03,10.76-20.58,12.48-33.88c0,0,6.23-64.15,6.73-79.13c0.17-5.15-2.59-6.39-5.07-6.18
			c-2.48,0.21-3.73,2.33-4.17,7.02c-0.98,10.51-3.1,28.27-4.59,35.78C932.85,402.02,936,367.6,936.46,348.55z"/>
	</g>
	<g>
		<path class="st19" d="M965.21,348.55c-0.13-5.33,2.29-6.74,4.89-6.77c3.48-0.04,4.87,3.98,5.1,6.54
			c1.77,19.84,5.9,51.43,5.9,51.43c-0.33-10.4-1.67-42.32-2.13-53.55c-0.16-3.91,1.63-7.86,5.16-8.08c3.52-0.23,5.8,2.62,6.11,7.22
			c1.72,25.48,3.37,54.33,3.37,54.33c0.22-13.03,0.8-30.06,0.9-43.76c0.05-7.05,1.18-12.56,6.12-12.18
			c3.29,0.25,5.83,3.7,6.01,10.45c0.51,19.39,1.65,52.52,1.65,52.52c1.15-7.63,4.45-15.59,9.7-18.21c6.94-3.47,9.92,3.76,8.06,7.13
			c-2.66,4.82-4.91,12.25-5.39,21.73c-0.33,6.43-1.36,20.65-5.07,30c-5.19,13.11-4.9,14.7-2.8,25.56c1.53,7.91-37,7.56-38.59,5.51
			c-4.68-6.03-10.76-20.58-12.48-33.88c0,0-6.23-64.15-6.73-79.13c-0.17-5.15,2.59-6.39,5.07-6.18c2.48,0.21,3.73,2.33,4.17,7.02
			c0.98,10.51,3.1,28.27,4.59,35.78C968.82,402.02,965.67,367.6,965.21,348.55z"/>
	</g>
	<path class="st19" d="M1039.02,643.81c-7.89-29.81-65.12-153.1-72-184.49c-6.88-31.39,37.41-39.56,43.86-0.86
		c7.41,44.45,74.82,113.52,82.65,184.13C1096.81,672.14,1049.77,684.44,1039.02,643.81z"/>
	<path class="st7" d="M914.39,761.63c0,0,41.71,8.07,78.58-4.15C972.46,777.3,935.13,774.07,914.39,761.63z"/>
	<path class="st7" d="M932.27,780.25c0,0,22.72,4.39,42.81-2.26C963.91,788.78,943.57,787.03,932.27,780.25z"/>
	<path class="st3" d="M1014.11,318.41c0,0,16.42,32.5,15.05,60.89c9.24-10.6,7.18-52.34,6.16-53.71
		C1034.3,324.22,1014.11,318.41,1014.11,318.41z"/>
	<path class="st10" d="M991.19,578.79c0,1.97-18.6,3.56-41.54,3.56s-41.54-1.59-41.54-3.56s18.6-3.56,41.54-3.56
		S991.19,576.83,991.19,578.79z"/>
	<path class="st10" d="M972.08,563.36c0,1.06-10.04,1.92-22.43,1.92c-12.39,0-22.43-0.86-22.43-1.92c0-1.06,10.04-1.92,22.43-1.92
		C962.04,561.44,972.08,562.3,972.08,563.36z"/>
	<g>
		<path class="st1" d="M1069.68,182.72l0.62-1.49l1.56-0.5c6.11-1.96,12.25-3.84,18.42-5.64c2.7-5.75,5.46-11.47,8.41-17.11l0.52-1
			l0.79-0.2c3.34-0.84,6.7-1.6,10.07-2.33c1.68-0.39,3.38-0.69,5.08-1.04c1.69-0.34,3.4-0.65,5.11-0.93
			c-1.56,0.77-3.12,1.52-4.69,2.24c-1.58,0.7-3.14,1.45-4.73,2.12c-2.82,1.23-5.65,2.43-8.5,3.58c-2.12,6.27-4.42,12.46-6.8,18.62
			l-0.49,1.27l-1.49,0.53c-5.96,2.14-11.96,4.17-17.97,6.14c-1.15,2.66-2.28,5.33-3.48,7.97c-1.38,3.14-2.82,6.26-4.26,9.39
			l-0.66,1.44l-1.32,0.38c-3.31,0.94-6.62,1.87-9.94,2.76l-4.99,1.31c-1.4,0.37-2.82,0.7-4.23,1.05c-1.4,2.73-2.85,5.44-4.33,8.13
			c-0.81,1.52-1.7,3.01-2.54,4.52c-0.85,1.5-1.75,2.99-2.66,4.47c0.44-1.68,0.89-3.36,1.39-5.01c0.5-1.65,0.96-3.33,1.5-4.96
			c1.03-3.3,2.1-6.58,3.23-9.83l0.27-0.78l1.04-0.42c1.6-0.64,3.18-1.32,4.79-1.94l4.81-1.86c2.72-1.04,5.46-2.04,8.2-3.04
			c1.09-2.78,2.18-5.55,3.32-8.31C1067,189.04,1068.35,185.88,1069.68,182.72z"/>
		<path class="st1" d="M991.54,123.06l-0.08-2.13l1.58-1.46c6.21-5.72,12.5-11.36,18.87-16.91c0.05-8.35,0.18-16.71,0.58-25.08
			l0.07-1.48l0.83-0.67c3.52-2.84,7.12-5.61,10.74-8.35c1.79-1.39,3.66-2.7,5.48-4.05c1.83-1.35,3.7-2.65,5.59-3.94
			c-1.43,1.78-2.88,3.54-4.36,5.26c-1.49,1.71-2.94,3.47-4.47,5.15c-2.69,3.03-5.4,6.02-8.16,8.97c0.93,8.66,1.61,17.32,2.18,25.99
			l0.12,1.79l-1.48,1.46c-5.93,5.85-11.97,11.59-18.06,17.27c0.1,3.81,0.22,7.62,0.25,11.43c0.09,4.52,0.09,9.04,0.11,13.56
			l0.01,2.08l-1.37,1.18c-3.43,2.95-6.87,5.9-10.35,8.79l-5.24,4.32c-1.47,1.22-2.98,2.4-4.47,3.59c-0.17,4.03-0.4,8.07-0.68,12.1
			c-0.12,2.27-0.36,4.53-0.54,6.8c-0.19,2.27-0.43,4.54-0.7,6.81c-0.41-2.25-0.79-4.5-1.12-6.75c-0.32-2.25-0.69-4.5-0.96-6.76
			c-0.59-4.51-1.14-9.01-1.58-13.52l-0.11-1.08l1.01-1.07c1.55-1.65,3.07-3.34,4.65-4.96l4.72-4.89c2.67-2.75,5.39-5.46,8.11-8.16
			c-0.23-3.92-0.47-7.83-0.64-11.75C991.83,132.1,991.71,127.58,991.54,123.06z"/>
		<path class="st1" d="M875.93,143.55l-0.05-2.13l-1.67-1.36c-6.55-5.33-13.17-10.58-19.86-15.74c-0.55-8.34-1.19-16.67-2.1-24.99
			l-0.16-1.47l-0.87-0.62c-3.69-2.63-7.44-5.17-11.22-7.68c-1.87-1.28-3.81-2.48-5.72-3.71c-1.91-1.23-3.86-2.42-5.82-3.59
			c1.54,1.69,3.09,3.36,4.67,4.99c1.59,1.62,3.15,3.29,4.78,4.87c2.86,2.86,5.76,5.69,8.69,8.46c-0.4,8.7-0.56,17.39-0.6,26.07
			l-0.01,1.8l1.57,1.37c6.28,5.48,12.65,10.84,19.07,16.15c0.13,3.81,0.24,7.62,0.44,11.43c0.19,4.52,0.45,9.03,0.71,13.54
			l0.12,2.08l1.44,1.09c3.6,2.74,7.21,5.47,10.86,8.15l5.49,4c1.54,1.13,3.12,2.21,4.68,3.31c0.41,4.01,0.88,8.03,1.41,12.04
			c0.26,2.25,0.63,4.5,0.95,6.76c0.32,2.25,0.71,4.5,1.11,6.75c0.27-2.27,0.52-4.54,0.71-6.81c0.18-2.27,0.42-4.54,0.54-6.8
			c0.32-4.53,0.59-9.06,0.76-13.59l0.04-1.09l-1.07-1.01c-1.65-1.55-3.27-3.14-4.94-4.67l-5-4.59c-2.84-2.58-5.71-5.12-8.58-7.66
			c-0.01-3.92-0.01-7.85-0.08-11.77C876.19,152.58,876.04,148.07,875.93,143.55z"/>
		<path class="st1" d="M792.34,216.86l-0.84-1.47l-1.68-0.32c-6.6-1.26-13.21-2.43-19.84-3.51c-3.54-5.62-7.13-11.21-10.91-16.7
			l-0.67-0.97l-0.84-0.1c-3.57-0.44-7.16-0.81-10.76-1.14c-1.79-0.19-3.6-0.29-5.4-0.44c-1.8-0.14-3.61-0.24-5.43-0.32
			c1.71,0.6,3.43,1.18,5.16,1.72c1.73,0.53,3.44,1.11,5.18,1.6c3.08,0.92,6.18,1.8,9.28,2.64c3,6.24,6.18,12.38,9.43,18.47
			l0.67,1.26l1.61,0.36c6.46,1.46,12.95,2.81,19.44,4.09c1.53,2.62,3.05,5.24,4.62,7.83c1.84,3.09,3.73,6.15,5.62,9.21l0.87,1.41
			l1.42,0.22c3.55,0.55,7.11,1.1,10.68,1.6l5.35,0.72c1.5,0.21,3.02,0.37,4.53,0.55c1.8,2.65,3.65,5.28,5.53,7.89
			c1.03,1.48,2.15,2.91,3.22,4.37c1.08,1.45,2.19,2.88,3.33,4.3c-0.67-1.69-1.35-3.37-2.08-5.03c-0.73-1.65-1.42-3.33-2.19-4.96
			c-1.49-3.29-3.01-6.56-4.61-9.8l-0.38-0.77l-1.13-0.3c-1.74-0.46-3.47-0.97-5.22-1.4l-5.24-1.32c-2.96-0.74-5.93-1.42-8.9-2.11
			c-1.49-2.74-2.97-5.49-4.5-8.21C795.93,223.08,794.12,219.98,792.34,216.86z"/>
	</g>
	<g>
		<circle class="st2" cx="1149.45" cy="346.79" r="3.57"/>
		<circle class="st2" cx="1216.28" cy="324.98" r="6.08"/>
		<path class="st2" d="M1225.22,381.1c0,1.18-0.96,2.14-2.14,2.14s-2.14-0.96-2.14-2.14c0-1.18,0.96-2.14,2.14-2.14
			S1225.22,379.91,1225.22,381.1z"/>
		<path class="st2" d="M696.64,315.3c0,1.32-1.07,2.38-2.38,2.38c-1.32,0-2.38-1.07-2.38-2.38c0-1.32,1.07-2.38,2.38-2.38
			C695.58,312.91,696.64,313.98,696.64,315.3z"/>
		<circle class="st2" cx="692.35" cy="277.17" r="5.24"/>
		<path class="st2" d="M800.53,282.89c0,2.9-2.35,5.24-5.24,5.24c-2.89,0-5.24-2.35-5.24-5.24c0-2.89,2.35-5.24,5.24-5.24
			C798.18,277.65,800.53,280,800.53,282.89z"/>
		<path class="st2" d="M625.16,582.64c0,0.53-0.43,0.95-0.95,0.95c-0.53,0-0.95-0.43-0.95-0.95c0-0.53,0.43-0.95,0.95-0.95
			C624.74,581.68,625.16,582.11,625.16,582.64z"/>
		<circle class="st2" cx="511.74" cy="609.32" r="4.77"/>
		<path class="st2" d="M565.12,673.66c0,2.89-2.35,5.24-5.24,5.24c-2.9,0-5.24-2.35-5.24-5.24c0-2.89,2.35-5.24,5.24-5.24
			C562.77,668.41,565.12,670.76,565.12,673.66z"/>
		<circle class="st2" cx="569.88" cy="574.06" r="3.81"/>
		<path class="st2" d="M681.39,770.87c0,1.84-1.49,3.34-3.34,3.34c-1.84,0-3.34-1.49-3.34-3.34s1.49-3.34,3.34-3.34
			C679.9,767.53,681.39,769.03,681.39,770.87z"/>
		<circle class="st2" cx="492.32" cy="763.79" r="4.29"/>
		<path class="st2" d="M648.62,986.42c0,1.84-1.49,3.34-3.34,3.34c-1.84,0-3.34-1.49-3.34-3.34c0-1.84,1.49-3.34,3.34-3.34
			C647.12,983.08,648.62,984.57,648.62,986.42z"/>
		<circle class="st2" cx="621.35" cy="791.36" r="3.81"/>
		<path class="st2" d="M753.83,930.04c0,2.89-2.35,5.24-5.24,5.24c-2.89,0-5.24-2.35-5.24-5.24c0-2.9,2.35-5.24,5.24-5.24
			C751.48,924.79,753.83,927.14,753.83,930.04z"/>
		<path class="st2" d="M1177.51,869.07c-1.86,1.86-4.88,1.86-6.74,0c-1.86-1.86-1.86-4.88,0-6.74c1.86-1.86,4.88-1.86,6.74,0
			C1179.37,864.19,1179.37,867.21,1177.51,869.07z"/>
		<path class="st2" d="M1217.98,909.54c0,3.68-2.99,6.67-6.67,6.67c-3.68,0-6.67-2.99-6.67-6.67c0-3.68,2.99-6.67,6.67-6.67
			C1214.99,902.87,1217.98,905.86,1217.98,909.54z"/>
		<circle class="st2" cx="1220.84" cy="850.45" r="4.77"/>
		<path class="st2" d="M1359.99,787.07c0,1.84-1.49,3.34-3.34,3.34c-1.84,0-3.34-1.49-3.34-3.34s1.49-3.34,3.34-3.34
			C1358.5,783.74,1359.99,785.23,1359.99,787.07z"/>
		<path class="st2" d="M1301.85,602.65c0,1.05-0.85,1.91-1.91,1.91s-1.91-0.85-1.91-1.91c0-1.05,0.85-1.91,1.91-1.91
			S1301.85,601.6,1301.85,602.65z"/>
		<path class="st2" d="M1429.56,543.08c0,3.42-2.77,6.2-6.2,6.2s-6.19-2.77-6.19-6.2c0-3.42,2.77-6.19,6.19-6.19
			S1429.56,539.66,1429.56,543.08z"/>
		<path class="st2" d="M1305.66,532.6c0,1.84,0,3.34,0,3.34S1305.66,534.44,1305.66,532.6c0-1.84,0-3.34,0-3.34
			S1305.66,530.76,1305.66,532.6z"/>
		<path class="st2" d="M1378.1,632.2c0,3.16-2.56,5.72-5.72,5.72c-3.16,0-5.72-2.56-5.72-5.72c0-3.16,2.56-5.72,5.72-5.72
			C1375.54,626.48,1378.1,629.04,1378.1,632.2z"/>
		<path class="st2" d="M1348.55,417.75c0,1.58-1.28,2.86-2.86,2.86c-1.58,0-2.86-1.28-2.86-2.86c0-1.58,1.28-2.86,2.86-2.86
			C1347.27,414.89,1348.55,416.17,1348.55,417.75z"/>
		<path class="st2" d="M1400.97,347.22c0,3.16-2.56,5.72-5.72,5.72c-3.16,0-5.72-2.56-5.72-5.72c0-3.16,2.56-5.72,5.72-5.72
			C1398.41,341.51,1400.97,344.07,1400.97,347.22z"/>
		<path class="st2" d="M1092.17,261.45c0,1.58-1.28,2.86-2.86,2.86c-1.58,0-2.86-1.28-2.86-2.86c0-1.58,1.28-2.86,2.86-2.86
			C1090.89,258.59,1092.17,259.87,1092.17,261.45z"/>
		<path class="st2" d="M1152.22,211.41c0,2.9-2.35,5.24-5.24,5.24c-2.9,0-5.24-2.35-5.24-5.24c0-2.89,2.35-5.24,5.24-5.24
			C1149.87,206.17,1152.22,208.52,1152.22,211.41z"/>
	</g>
</g>
</svg>
