<?xml version="1.0" encoding="utf-8"?>
<!-- Generator: Adobe Illustrator 26.0.2, SVG Export Plug-In . SVG Version: 6.00 Build 0)  -->
<svg version="1.1" id="Capa_1" xmlns="http://www.w3.org/2000/svg" xmlns:xlink="http://www.w3.org/1999/xlink" x="0px" y="0px"
	 viewBox="0 0 1080 1080" style="enable-background:new 0 0 1080 1080;" xml:space="preserve">
<style type="text/css">
	.st0{fill:#9670F1;}
	.st1{fill:#FFCAD5;}
	.st2{opacity:0.3;fill:#C693FF;}
	.st3{fill:#FFC3E4;}
	.st4{opacity:0.52;}
	.st5{fill:#FF8CD4;}
	.st6{fill:#512C5A;}
	.st7{fill:#C693FF;}
	.st8{fill:#FF9493;}
	.st9{opacity:0.44;fill:#FF7380;}
	.st10{fill:none;stroke:#512C5A;stroke-width:0.4743;stroke-linecap:round;stroke-linejoin:round;stroke-miterlimit:10;}
	.st11{opacity:0.33;}
	.st12{opacity:0.33;fill:url(#SVGID_1_);}
	.st13{opacity:0.33;fill:url(#SVGID_00000173843303621383505170000002053555220909208192_);}
	.st14{opacity:0.33;fill:url(#SVGID_00000159469952129031443430000002854207757593508277_);}
	.st15{fill:#FFE9E9;}
	.st16{opacity:0.33;fill:url(#SVGID_00000132789103558207031920000007147104141305141893_);}
	.st17{opacity:0.33;fill:url(#SVGID_00000178169110806827406860000013620569972231393159_);}
	.st18{fill:none;stroke:#1B125B;stroke-width:0.5817;stroke-linecap:round;stroke-linejoin:round;stroke-miterlimit:10;}
	.st19{fill:none;stroke:#512C5A;stroke-width:0.2321;stroke-linecap:round;stroke-linejoin:round;stroke-miterlimit:10;}
	.st20{fill:none;stroke:#512C5A;stroke-width:0.4643;stroke-miterlimit:10;}
	.st21{fill:url(#SVGID_00000070119800555126730140000006433941084367070606_);}
	.st22{fill:url(#SVGID_00000004525228826139770430000005148501355577317309_);}
	.st23{fill:url(#SVGID_00000096032428057081117050000001764341530721769354_);}
	.st24{fill:none;stroke:#6B3D77;stroke-width:0.2568;stroke-linecap:round;stroke-linejoin:round;stroke-miterlimit:10;}
	.st25{fill:none;stroke:#6B3D77;stroke-width:0.4643;stroke-linecap:round;stroke-linejoin:round;stroke-miterlimit:10;}
	.st26{fill:#6B3D77;}
	.st27{fill:none;stroke:#F1C4D3;stroke-width:0.2321;stroke-linecap:round;stroke-linejoin:round;stroke-miterlimit:10;}
	.st28{fill:#FF7380;}
</style>
<g>
	<line class="st0" x1="584.08" y1="929.84" x2="286.14" y2="959.12"/>
	<g>
		<g>
			<g>
				<g>
					<path class="st1" d="M707.31,941.48c-35.85,2.86-73.33,9.54-109.29,9.54l-246.69,2.35c-38.04-22.76-51.44-71.98-50.82-116.32
						c0.27-18.21,2.31-36.38,4.35-54.55c0.35-2.97,0.69-5.97,1.04-8.96c2.55-23.03,4.68-46.03,2.82-69.08
						c-1.31-16.06-4.5-31.76-8.81-47.27c-0.24-0.89-0.49-1.8-0.75-2.71c-7.21-25.29-17.17-50.04-26.17-74.82
						c-7.3-20.1-14.06-40.82-18.26-61.8c-0.31-1.46-0.58-2.93-0.84-4.39c-3.7-20.21-4.88-40.62-1.77-60.93
						c2.04-13.31,6.41-26.55,12.73-38.66c0.49-0.93,0.98-1.82,1.49-2.73c14.22-25.62,37.4-45.7,65.99-50.04
						c4.55-0.69,9.09-0.98,13.62-0.89c0.75,0,1.49,0.02,2.22,0.07c26.97,1.15,53.04,14.97,74.44,32.14
						c3.68,2.95,7.28,6.03,10.78,9.21c1.24,1.11,2.46,2.24,3.68,3.44c23.93,22.54,43.26,50.02,56.32,80.21
						c5.46,12.58,9.8,25.53,13.42,38.73c0.2,0.71,0.4,1.42,0.58,2.13c13.91,51.8,17.08,107.14,32.25,158.25
						c0.22,0.71,0.42,1.42,0.64,2.13c4.41,14.53,9.83,28.68,16.77,42.32C596.64,806.7,681.58,857.99,707.31,941.48z"/>
					<g>
						<path class="st2" d="M264.84,413.87c0.49-0.93,0.98-1.82,1.49-2.73c5.37-1.42,11.02-1.8,16.79-0.87
							c4.99,0.82,9.94,2.55,14.71,4.21c8.61,3.02,16.73,5.86,24.95,3.68c18.37-4.88,21.45-30.32,21.96-38
							c0.16-2.44,0.27-4.9,0.38-7.39c0.2-4.19,0.4-8.43,0.82-12.58c0.75,0,1.49,0.02,2.22,0.07c-0.42,4.17-0.62,8.41-0.82,12.62
							c-0.11,2.51-0.22,4.97-0.38,7.41c-0.53,8.05-3.82,34.76-23.6,39.99c-8.89,2.37-17.72-0.73-26.26-3.73
							c-4.68-1.64-9.54-3.33-14.33-4.1C276.58,411.48,270.54,412.06,264.84,413.87z"/>
						<path class="st2" d="M437.07,405.07c-10.23-3.46-22.71-5.21-32.39,1.13c-8.83,5.81-13.73,17.75-13.11,31.99
							c0.31,7.01,1.73,14.06,3.13,20.9c1.04,5.17,2.13,10.49,2.73,15.82c2.06,18.03-1.77,34.63-10.8,46.69
							c-10.47,14.04-28.37,20.94-43.54,16.75c-11.65-3.19-20.41-11.93-28.9-20.36c-2.33-2.31-4.7-4.68-7.1-6.88
							c-10.74-9.89-26.71-18.03-39.42-11.29c-6.06,3.22-10.38,9.27-12.93,18.06c-0.31-1.46-0.58-2.93-0.84-4.39
							c2.77-7.36,7.03-12.6,12.73-15.62c13.73-7.3,30.68,1.22,41.97,11.6c2.42,2.24,4.81,4.61,7.14,6.94
							c8.3,8.23,16.86,16.75,27.95,19.81c14.29,3.95,31.23-2.62,41.17-15.95c8.67-11.6,12.36-27.64,10.38-45.12
							c-0.6-5.21-1.66-10.51-2.71-15.62c-1.4-6.9-2.86-14.06-3.17-21.25c-0.64-15.02,4.64-27.68,14.11-33.92
							c9.03-5.92,20.14-5.35,29.92-2.73C434.63,402.74,435.85,403.87,437.07,405.07z"/>
						<path class="st2" d="M299.91,657.19c-0.24-0.89-0.49-1.8-0.75-2.71c10.18,4.41,24.31,4.24,32.54-4.86
							c4.57-5.06,6.57-11.96,8.5-18.61c0.64-2.28,1.33-4.64,2.11-6.9c3.15-9.16,10.09-19.01,20.14-19.12h0.22
							c9.94,0,15.97,8.72,21.81,17.15c1.51,2.17,2.93,4.24,4.44,6.17c9.41,12.09,25.38,19.19,40.66,18.06
							c15.31-1.15,30.03-10.51,37.55-23.89c6.81-12.09,7.99-26.57,9.03-39.35c1.11-13.78,2.26-27.99,8.94-40.37
							c4.33-7.99,12.22-15.77,21.72-18.74c0.2,0.71,0.4,1.42,0.58,2.13c-8.87,2.82-16.26,10.14-20.34,17.68
							c-6.45,11.96-7.59,25.95-8.7,39.48c-1.04,13-2.24,27.75-9.29,40.26c-7.99,14.22-23.05,23.8-39.31,25
							c-16.26,1.2-32.59-6.03-42.59-18.9c-1.53-1.95-3.04-4.15-4.5-6.26c-5.55-8.01-11.22-16.3-20.16-16.19
							c-8.92,0.11-15.19,9.16-18.08,17.64c-0.78,2.2-1.44,4.53-2.09,6.79c-2,6.9-4.06,14.04-8.98,19.48
							C324.87,660.5,310.69,661.21,299.91,657.19z"/>
						<path class="st2" d="M540.28,686.52c-22.05,8.45-33.52,33.92-39.31,54.1c-0.69,2.44-1.35,4.9-2.02,7.36
							c-2.77,10.25-5.63,20.83-10.96,30.23c-7.63,13.53-19.54,21.96-31.85,22.56c-13.62,0.69-25.4-8.14-32.85-15.64
							c-6.77-6.81-12.49-14.68-18.03-22.32c-5.61-7.7-11.4-15.64-18.21-22.43c-13.09-13.04-33.87-22.43-50.78-14.04
							c-13.22,6.54-19.61,21.56-23.71,33.92c-0.62,1.89-1.24,3.79-1.84,5.72c-1.75,5.55-3.55,11.16-5.86,16.5
							c0.35-2.97,0.69-5.97,1.04-8.96c0.95-2.73,1.82-5.48,2.68-8.23c0.62-1.91,1.24-3.84,1.86-5.72
							c4.24-12.78,10.87-28.3,24.84-35.23c17.88-8.87,39.66,0.87,53.3,14.46c6.94,6.92,12.78,14.93,18.43,22.69
							c5.5,7.56,11.2,15.37,17.83,22.05c7.12,7.19,18.3,15.59,31.19,14.99c13.58-0.64,24.4-11.49,30.01-21.43
							c5.19-9.16,8.01-19.61,10.74-29.72c0.67-2.46,1.35-4.95,2.04-7.41c8.43-29.48,22.49-48.67,40.79-55.61
							C539.86,685.1,540.06,685.81,540.28,686.52z"/>
					</g>
				</g>
				<g>
					<path class="st3" d="M780.11,562.53c-0.29,5.79-0.64,11.6-1.06,17.39c-0.07,0.82-0.11,1.62-0.18,2.44
						c-3.08,40.79-9.01,81.48-10.45,122.29c-0.07,1.46-0.11,2.95-0.13,4.41c-0.27,9.41-0.27,18.81,0.07,28.24
						c0.53,15.33,2,30.59,3.64,45.87c0.11,1,0.2,1.97,0.31,2.97c2.15,20.05,4.53,40.08,5.46,60.22
						c1.71,36.45-1.69,74.24-18.63,106.56c-152.75-8.74-305.32-17.01-457.95-6.48c-2.48-42.88,29.12-80.54,64.55-104.83
						c35.4-24.27,76.35-40.35,109.07-68.14c39.97-33.96,63.57-81.52,85.73-130.21v-0.02c0.64-1.4,1.29-2.79,1.93-4.19
						c7.83-17.32,15.57-34.74,23.82-51.68c0.33-0.67,0.64-1.33,0.98-1.97c10-20.36,20.83-40.02,33.65-58.01
						c0.44-0.6,0.86-1.2,1.31-1.8c11.14-15.37,23.78-29.48,38.69-41.72c20.61-16.92,48.45-29.66,73.56-22.34h0.02
						c0.75,0.22,1.51,0.47,2.26,0.73c0.89,0.31,1.8,0.64,2.68,1c17.7,7.19,30.06,24.18,35.82,42.41c2.64,8.36,4.06,16.97,4.75,25.71
						c0.11,1.29,0.2,2.57,0.27,3.86C780.76,544.32,780.53,553.48,780.11,562.53z"/>
					<g class="st4">
						<path class="st5" d="M736.75,462.27c-3.95,4.64-7.45,9.41-10.58,13.89c-2.42,3.48-4.77,7.03-7.14,10.58
							c-8.54,12.78-17.37,26.02-29.15,36.25c-13.11,11.4-35.58,21.63-55.79,12.95c-4.9-2.11-9.21-5.12-13.18-8.54
							c0.44-0.6,0.86-1.2,1.31-1.8c3.88,3.37,8.01,6.26,12.75,8.3c19.25,8.25,40.84-1.62,53.44-12.58
							c11.58-10.05,20.32-23.16,28.77-35.82c2.37-3.55,4.75-7.12,7.16-10.6c2.99-4.3,6.34-8.87,10.12-13.35h0.02
							C735.24,461.76,735.99,462,736.75,462.27z"/>
						<path class="st5" d="M762.26,695.96c2.4,2.62,4.39,5.57,6.17,8.7c-0.07,1.46-0.11,2.95-0.13,4.41
							c-2.15-4.21-4.57-8.25-7.65-11.6c-13.2-14.37-36.4-13.58-51.55-5.52c-14.06,7.48-25.75,20.78-36.82,41.84
							c-2.93,5.61-5.72,11.47-8.41,17.12c-5.39,11.36-10.96,23.11-18.23,33.65c-10.38,15.06-29.39,30.59-48.87,24.73
							c-9.21-2.75-16.08-9.67-22.74-16.35c-5.17-5.19-10.49-10.54-16.86-13.91c-21.23-11.22-48.07,2.73-59.8,22.8
							c-12.11,20.72-12.58,45.87-12.02,69.83l-2.22,0.07c-0.58-24.29-0.09-49.8,12.33-71.01c12.24-20.96,40.39-35.47,62.75-23.65
							c6.65,3.5,12.11,8.98,17.39,14.29c6.74,6.79,13.13,13.2,21.78,15.82c18.34,5.5,36.47-9.43,46.43-23.87
							c7.16-10.43,12.71-22.07,18.06-33.36c2.71-5.68,5.48-11.53,8.45-17.19c11.27-21.47,23.25-35.07,37.73-42.77
							C723.93,681.54,748.33,680.76,762.26,695.96z"/>
						<path class="st5" d="M779.05,579.92c-0.07,0.82-0.11,1.62-0.18,2.44c-14.22,5.28-25.27,18.72-35.2,30.83l-1.86,2.24
							c-9.43,11.45-22.36,25.8-38.73,35.11c-16.81,9.6-35.4,12.47-51.04,7.87c-9.07-2.68-17.3-7.81-25.29-12.78
							c-10.25-6.39-19.94-12.42-31.37-13.78c-12.89-1.51-24.78,3.39-34.85,11.38c0.64-1.4,1.29-2.79,1.93-4.19
							c9.78-6.88,21.03-10.85,33.18-9.4c11.91,1.42,22.27,7.87,32.28,14.11c7.85,4.88,15.95,9.94,24.76,12.53
							c15.04,4.41,33.01,1.64,49.31-7.67c16.04-9.14,28.79-23.29,38.11-34.58l1.84-2.26C752.3,599.17,763.83,585.13,779.05,579.92z"
							/>
						<path class="st5" d="M595.98,593.54c-3.26-2.09-6.48-4.17-9.69-6.17c0.33-0.67,0.64-1.33,0.98-1.97
							c3.33,2.04,6.63,4.17,9.92,6.28c13.02,8.36,26.49,17.01,41.04,21.49c15.26,4.7,30.35,3.79,41.39-2.48
							c13.53-7.68,21.01-22.43,26.55-35.87c0.91-2.2,1.8-4.41,2.68-6.63c4.86-12.11,9.85-24.64,18.72-34.47
							c10.14-11.18,28.59-18.72,42.83-10.65c3.73,2.11,6.83,5.06,9.6,8.32c0.11,1.29,0.2,2.57,0.27,3.86
							c-3.17-4.06-6.63-7.81-10.96-10.25c-13.24-7.5-30.54-0.33-40.08,10.23c-8.61,9.49-13.55,21.85-18.32,33.78
							c-0.89,2.24-1.77,4.46-2.68,6.65c-5.7,13.8-13.42,28.95-27.51,36.96c-11.58,6.57-27.31,7.54-43.14,2.66
							C622.73,610.71,609.13,601.99,595.98,593.54z"/>
						<path class="st5" d="M772.3,786.15c-0.24-0.18-0.47-0.33-0.71-0.51c-14.22-10.38-33.69-24.58-53.53-20.45
							c-18.48,3.82-29.5,22-34.43,32.5c-2.86,6.1-5.26,12.6-7.59,18.85c-3.39,9.21-6.92,18.72-12.02,27.33
							c-8.01,13.55-23.03,27.51-41.21,25.98c-7.17-0.6-13.82-3.57-20.25-6.45c-6.34-2.84-12.91-5.79-19.79-6.28
							c-14.22-1.04-26.64,8.54-33.5,17.86c-8.05,10.91-12.13,24.09-16.06,36.84l-2.13-0.64c3.99-12.93,8.14-26.31,16.39-37.51
							c9.23-12.49,22.85-19.68,35.47-18.77c7.25,0.53,14,3.55,20.52,6.48c6.28,2.79,12.75,5.7,19.52,6.26
							c17.15,1.42,31.45-11.93,39.13-24.89c4.99-8.43,8.47-17.86,11.85-26.97c2.35-6.3,4.75-12.82,7.67-19.03
							c5.1-10.87,16.55-29.7,35.98-33.72c20.39-4.26,39.91,9.6,54.37,20.16C772.11,784.17,772.19,785.15,772.3,786.15z"/>
					</g>
				</g>
			</g>
			<g>
				<path class="st5" d="M524.83,923.05c-4.12-11.72,7.93-23.25,20.05-26.72c12.12-3.47,25.51-2.7,36.76-8.33
					c15.42-7.72,22.58-25,30.79-39.97c8.21-14.97,21.96-30.39,39.18-28.73c8.99,0.87,17.13,6.43,26.16,6.51
					c16.19,0.14,26.46-16.11,36.75-28.39c10.07-12.02,25.28-22.29,40.79-19.08c9.96,2.06,18.13,9.51,22.98,18.3
					c4.85,8.79,6.77,18.85,7.84,28.79c5.3,48.91-8.89,99.6-38.91,138.97C676.08,939.58,600.13,928.42,524.83,923.05z"/>
				<path class="st0" d="M312.08,974.92c-13.55-11.33-17.7-30.34-17.05-47.82c0.65-17.47,5.22-34.66,5.57-52.14
					c0.38-19.08-4.28-37.87-6.66-56.81c-2.37-18.94-2.23-39.1,6.96-55.92c4.93-9.03,13.22-17.16,23.58-18.36
					c15.69-1.81,28.16,12.06,37.55,24.54c9.62,12.77,19.23,25.55,28.85,38.32c7.53,10,17.46,21.11,30.05,19.8
					c13-1.35,21.76-15.68,34.79-16.62c11.66-0.85,20.98,9.38,26.48,19.51c5.5,10.14,9.78,21.76,19.47,28.18
					c8.74,5.79,20.16,6.03,30.51,4.13c10.36-1.9,20.29-5.7,30.69-7.35c22.32-3.54,46.14,3.61,62.63,18.81
					c16.49,15.2,25.28,38.09,23.12,60.2C536.91,947.37,423.8,960.95,312.08,974.92z"/>
			</g>
		</g>
		<ellipse class="st3" cx="532.61" cy="967.72" rx="242.12" ry="45.03"/>
		<g>
			<g>
				<g>
					<g>
						<path class="st6" d="M526.93,138.66c-2.62,11.25-13.29,18.34-21.34,26.62c-3.77,44.14-9.07,88.15-15.68,131.96l-59.18-0.13
							c-3.17-8.16-5.37-16.42-6.68-25.22c-2.44,8.14-3.11,16.79-1.95,25.2l-11.2-0.02c-0.55-1.95-0.95-4.26-1.64-6.17
							c-4.24-11.38-1.51-25.02,6.77-33.92c6.26-6.72,18.08-8.63,22.05-16.9c1.86-3.86-0.62-8.23-1.97-12.29
							c-2.84-8.41-0.49-18.32,5.81-24.56c3.62-3.57,8.76-6.74,8.87-11.82c0.04-2.75-1.51-5.23-2.6-7.74
							c-3.55-8.14-2.46-18.1,2.75-25.27c4.01-5.48,10.07-9.23,13.75-14.93c4.55-7.01,5.04-16.39,10.82-22.43
							c4.53-4.72,11.98-6.37,18.06-3.97c5.92,2.31,10.69,8.03,17.06,8.03c3.46-0.02,6.88-1.8,10.25-1.02
							c2.86,0.67,5.08,3.13,6.01,5.9C527.81,132.76,527.61,135.82,526.93,138.66z"/>
						<path class="st6" d="M618.12,298.86c-0.38,0.09-0.44,0.55-0.84,0.55h-11.73c-1.75-9.23-6.45-17.63-12.84-24.67
							c2.17,8.01,3.17,16.37,2.93,24.67h-64.28c-2.08-53.5-4.35-106.92-6.43-160.42c8.43-4.52,19.08-4.61,27.57-0.24
							c8.5,4.39,14.6,13.11,15.79,22.6c0.84,6.72-0.4,14.35,3.9,19.59c3.55,4.35,9.67,5.39,14.53,8.19
							c6.46,3.66,10.71,10.51,12.38,17.77c1.64,7.23,0.91,14.84-0.82,22.07c-1.38,5.7-3.33,11.87-0.86,17.19
							c2.11,4.55,6.88,7.12,10.76,10.29C620.29,266.3,624.59,284.64,618.12,298.86z"/>
					</g>
					<path class="st7" d="M643.3,393.57c-9.18-23.74-19.52-47.27-33.84-68.42c-5.09-7.52-10.59-14.77-16.46-21.69
						c-0.81-0.95-7.95-9.63-11.1-11.38c0,0,0,0.03,0,0.04c-15.11-10.64-46.55-14.69-46.55-14.69l-46.44-2.27l-51.59-4.77
						l19.11,166.74c0,0,10.19,7.17,50.97,10.57c40.78,3.4,60.79-16.99,60.79-16.99s0.14-0.61,0.43-2
						c5.4,3.31,65.23,39.45,80.37,25.03C665.08,438.43,649.65,409.98,643.3,393.57z"/>
					<g>
						<g>
							<g>
								<g>
									<path class="st8" d="M535.48,287.25c0,0-2.67,13.1-23.66,15.32c-20.57,2.17-26.33-15.44-26.33-15.44
										c4.47-11.19,5.86-22.79,6.91-30.99c0.49-3.79,0.7-6.45,0.77-7.24c0.01-0.16,0.02-0.25,0.02-0.25l35.5,0.35l1.83,0.02
										l0.75,6.1L535.48,287.25z"/>
									<path class="st9" d="M531.27,255.12c-0.78,1.45-2.36,13.91-17.46,15.64c-11.72,1.34-19.95-11-21.41-14.62
										c0.49-3.79,0.7-6.45,0.77-7.24c11.3,4.61,24.17,4.6,35.52,0.1l1.83,0.02L531.27,255.12z"/>
								</g>
								<g>
									<g>
										<g>
											<g>
												<g>
													<path class="st8" d="M554.51,201.45c0,0,8.37-10.26,15.17-0.22c5.79,8.55-3.66,29.06-19.19,24.01L554.51,201.45z"/>
												</g>
												<g>
													<path class="st10" d="M565.28,206.72c-4.55,1.92-8.14,5.92-9.54,10.62"/>
													<path class="st10" d="M561.09,209.5c2.13,1.91,2.78,5.26,1.51,7.8"/>
												</g>
											</g>
											<g>
												<path class="st8" d="M470.73,198.09c0,0-11.03-10.88-18.09-1.1c-6.02,8.32,4.43,28.67,20.09,24.2L470.73,198.09z"/>
												<g>
													<path class="st10" d="M461.16,200.58c3.43,3.56,5.16,8.66,4.59,13.53"/>
													<path class="st10" d="M463.9,204.8c-2.71,0.91-4.62,3.74-4.45,6.57"/>
												</g>
											</g>
										</g>
										<g>
											<g>
												<path class="st8" d="M465.39,197.03c0.28,6.47,1.56,13.16,3.54,19.6c2.28,7.39,5.48,14.44,9.15,20.43
													c1.5,2.46,3.22,4.67,5.13,6.62c7.11,7.32,17.29,12.39,29.09,12.61c11.4,0.21,19.69-4.6,26.22-10.31
													c8.45-7.38,13.3-18.49,15.81-30.09c1.49-6.88,2.15-13.93,2.24-20.48c0.03-2.56-0.06-5.15-0.33-7.71
													c-1.71-16.41-9.69-32.36-24.9-40.33c-2.83-1.48-5.85-2.66-9.02-3.43c-13.69-3.33-28.6-0.09-39.29,8.72
													C469.64,163.69,464.67,180.24,465.39,197.03z"/>
												<g>
													<g>
														<g class="st11">
															
																<linearGradient id="SVGID_1_" gradientUnits="userSpaceOnUse" x1="466.9167" y1="238.0467" x2="498.9158" y2="202.5078">
																<stop  offset="0.0112" style="stop-color:#FF9493;stop-opacity:0"/>
																<stop  offset="1" style="stop-color:#FF7380"/>
															</linearGradient>
															<path class="st12" d="M467.77,209.19c0.3,2.31,0.69,4.65,1.16,7c2.28,7.39,5.48,14.44,9.15,20.43
																c1.5,2.46,3.22,4.67,5.13,6.62c7.97-2.11,13.88-9.25,13.99-17.84c0.14-10.4-8.28-19-18.8-19.2
																C474.48,206.12,470.83,207.24,467.77,209.19z"/>
															
																<linearGradient id="SVGID_00000072982765123323888870000001936378663348055975_" gradientUnits="userSpaceOnUse" x1="548.6406" y1="238.3177" x2="521.9124" y2="204.9699">
																<stop  offset="0.0112" style="stop-color:#FF9493;stop-opacity:0"/>
																<stop  offset="1" style="stop-color:#FF7380"/>
															</linearGradient>
															<path style="opacity:0.33;fill:url(#SVGID_00000072982765123323888870000001936378663348055975_);" d="
																M523.21,227.94c-0.12,9.08,7.15,16.61,16.28,16.93c7.46-6.51,11.74-17.72,13.95-27.95
																c-3.02-3.97-7.79-5.18-13.2-5.29C530.96,211.46,523.33,218.76,523.21,227.94z"/>
														</g>
														<g>
															<g>
																<path class="st6" d="M526.35,204.04c0.22,2.25,2.25,3.91,4.52,3.7s3.94-2.2,3.71-4.45
																	c-0.22-2.25-2.25-3.91-4.52-3.7C527.79,199.79,526.13,201.79,526.35,204.04z"/>
																<path class="st6" d="M490.67,202.89c-0.03,2.26,1.8,4.13,4.08,4.17c2.28,0.04,4.16-1.75,4.19-4.01
																	c0.03-2.26-1.8-4.13-4.08-4.17C492.57,198.83,490.7,200.63,490.67,202.89z"/>
															</g>
															<g>
																<g>
																	<path class="st6" d="M507.6,217.02c-0.97,0.86-2.04,2.38-1.31,3.66c0.35,0.59,1.11,0.7,1.75,0.43
																		c0.66-0.24,1.24-0.67,1.91-1.03c0.13-0.07,0.29,0.02,0.3,0.17c0,0.01,0.11,1.83,0.11,1.83
																		c0.01,0.13-0.09,0.23-0.21,0.24c-0.13,0.01-0.24-0.09-0.24-0.22c0,0-0.07-1.83-0.07-1.83l0.3,0.17
																		c-0.94,0.46-1.98,1.34-3.15,1.1c-2.29-0.78-0.91-3.7,0.48-4.69C507.56,216.77,507.7,216.93,507.6,217.02
																		L507.6,217.02z"/>
																</g>
															</g>
															<g>
																<g>
																	<path class="st6" d="M520.26,194.34c-2.31,5-4.35,10.75-1.27,15.87c0.66,1.19,1.65,2.2,2.41,3.44
																		c1.87,2.76,0.65,5.92-2.06,7.54c-1.2,0.79-2.53,1.33-3.9,1.7c-0.18,0.05-0.27-0.23-0.08-0.29
																		c1.32-0.42,2.59-1.03,3.72-1.8c4.94-3.67,2.06-6.47-0.54-10.33c-1.37-2.51-1.94-5.48-1.43-8.3
																		c0.47-2.83,1.74-5.39,2.88-7.94C520.06,194.05,520.34,194.15,520.26,194.34L520.26,194.34z"/>
																</g>
																
																	<linearGradient id="SVGID_00000063605888845813002260000009148258914568732839_" gradientUnits="userSpaceOnUse" x1="88.5547" y1="210.2456" x2="89.9706" y2="223.5549" gradientTransform="matrix(-1 0 0 1 603.4115 0)">
																	<stop  offset="0.0112" style="stop-color:#FF9493;stop-opacity:0"/>
																	<stop  offset="1" style="stop-color:#FF7380"/>
																</linearGradient>
																<path style="opacity:0.33;fill:url(#SVGID_00000063605888845813002260000009148258914568732839_);" d="
																	M515.07,216.58c-0.67-0.08-1.28-0.43-1.93-0.6c-2.1-0.56-4.21,0.77-5.88,2.16c-0.78,0.64-1.6,1.68-1.08,2.55
																	c0.37,0.61,1.21,0.71,1.92,0.68c0.71-0.03,1.51-0.1,2.06,0.35c0.01,0.61,0.54,1.1,1.12,1.28
																	c0.58,0.17,1.2,0.1,1.8,0.01c1.82-0.27,3.66-0.61,5.32-1.42c1.68-0.81,4.33-2.91,3.18-5.13
																	C520.21,213.81,517.03,216.81,515.07,216.58z"/>
															</g>
															<path class="st6" d="M523.13,234.75c-1.44,0.24-2.95,0.24-4.44,0.27c-5.1,0.02-10.23,0.04-15.35,0.07
																c-3.28,0-1.35-2.53-0.11-3.82c0.11-0.11,0.22-0.22,0.33-0.33c1.62-1.6,3.53-2.93,5.63-3.75
																c3.08-1.2,6.59-1.31,9.63-0.07c1.4,0.58,2.66,1.44,3.68,2.51c0.8,0.82,1.44,1.75,1.93,2.77
																C524.91,233.4,524.22,234.58,523.13,234.75z"/>
															<path class="st15" d="M522.51,229.63c-0.04,0.13-0.11,0.24-0.2,0.33c-0.35,0.42-1.02,0.4-1.57,0.36
																c-4.99-0.44-10.05-0.07-14.93,1.11c-0.6,0.13-1.24,0.29-1.77,0c-0.2-0.11-0.35-0.27-0.47-0.49
																c1.62-1.6,3.53-2.93,5.63-3.75c3.08-1.2,6.59-1.31,9.63-0.07C520.23,227.7,521.49,228.56,522.51,229.63z"/>
														</g>
													</g>
												</g>
											</g>
										</g>
										<g>
											
												<linearGradient id="SVGID_00000157991358847051815640000005453216677677125770_" gradientUnits="userSpaceOnUse" x1="505.1043" y1="215.1938" x2="497.3816" y2="200.6064">
												<stop  offset="0.0112" style="stop-color:#FF9493;stop-opacity:0"/>
												<stop  offset="1" style="stop-color:#FF7380"/>
											</linearGradient>
											<path style="opacity:0.33;fill:url(#SVGID_00000157991358847051815640000005453216677677125770_);" d="M497.36,209.33
												c0,0,4.7-3.84,6.03-6.15c0,0,2.66,6.88-0.62,8.73C499.49,213.76,497.36,209.33,497.36,209.33z"/>
											
												<linearGradient id="SVGID_00000114046772314083114240000015145038028235018626_" gradientUnits="userSpaceOnUse" x1="520.3128" y1="214.5286" x2="531.4985" y2="202.4933">
												<stop  offset="0.0112" style="stop-color:#FF9493;stop-opacity:0"/>
												<stop  offset="1" style="stop-color:#FF7380"/>
											</linearGradient>
											<path style="opacity:0.33;fill:url(#SVGID_00000114046772314083114240000015145038028235018626_);" d="M523.6,203.99
												c0,0,3.39,5.94,7.48,5.93c0,0-3.83,4.94-8.1,2.13C518.82,209.31,523.6,203.99,523.6,203.99z"/>
										</g>
										<path class="st18" d="M499.29,231.73"/>
										<path class="st6" d="M496.5,182.95c0.19-0.09,0.39-0.16,0.58-0.22c0.95-0.25,1.94,0.21,2.3,1.11
											c0.69,1.72-0.19,4.04-0.96,5.59c-1.69,2.81-5.05,4.19-8.07,5c-3.59,0.96-7.43,1.04-11.05,0.19
											c-0.21-0.05-0.45-0.13-0.52-0.34c-0.06-0.21,0.09-0.41,0.25-0.57c1-1,2.35-1.45,3.54-2.16c1.59-0.94,3.18-1.89,4.76-2.84
											c1.73-1.05,3.45-2.11,5.16-3.18C493.74,184.76,495.11,183.57,496.5,182.95z"/>
										<path class="st6" d="M527.58,182.95c-0.19-0.09-0.39-0.16-0.58-0.22c-0.95-0.25-1.94,0.21-2.3,1.11
											c-0.69,1.72,0.19,4.04,0.96,5.59c1.69,2.81,5.05,4.19,8.07,5c3.59,0.96,7.43,1.04,11.05,0.19
											c0.21-0.05,0.45-0.13,0.52-0.34c0.07-0.21-0.09-0.41-0.25-0.57c-1-1-2.35-1.45-3.54-2.16c-1.59-0.94-3.18-1.89-4.76-2.84
											c-1.73-1.05-3.45-2.11-5.16-3.18C530.34,184.76,528.97,183.57,527.58,182.95z"/>
										<g>
											<path class="st19" d="M497.66,209.18c1.75-1.05,3.17-2.64,4.02-4.5"/>
											<path class="st19" d="M524.02,204.27c0.67,1.92,2.12,3.56,3.94,4.48"/>
										</g>
									</g>
								</g>
							</g>
							<g>
								<path class="st6" d="M468.38,205.72c0.34,1.42,1.05,3.15,2.51,3.19c1.43,0.03,2.23-1.6,2.63-2.97
									c2.68-9.23,3.4-19.03,2.11-28.55c-0.2-1.49-0.58-3.17-1.88-3.93c-1.87-1.08-4.17,0.49-5.49,2.2
									C461.29,184.63,466.02,195.95,468.38,205.72z"/>
								<g>
									<path class="st6" d="M469.6,191.65c1.8-3.12,3.22-6.47,4.21-9.93c0.41-1.43,0.95-3.12,2.37-3.57
										c1.26-0.4,2.55,0.37,3.78,0.83c2.65,0.99,5.71,0.49,8.18-0.89c2.48-1.37,4.43-3.54,6-5.89c1.33-1.98,2.43-4.13,3.98-5.95
										c1.55-1.81,3.69-3.31,6.07-3.4c1.94-0.07,3.79,0.77,5.71,0.99c3.46,0.39,6.91-1.33,9.33-3.84c2.42-2.5,3.97-5.71,5.31-8.93
										c1.28-3.09,2.4-6.64,1.05-9.7c-1.27-2.88-4.38-4.49-7.4-5.37c-6.51-1.9-13.55-1.46-20.08,0.38
										c-11.56,3.27-21.79,11.02-28.06,21.27c-4.2,6.86-6.59,14.79-7.01,22.82c-0.19,3.7-0.13,7.76,0.67,11.4
										C464.62,195.97,467.86,194.66,469.6,191.65z"/>
									<path class="st6" d="M531.67,163.33c1.59,1,3.4,1.74,4.66,3.14c3.92,4.38,0.43,12.53,4.72,16.55
										c2.08,1.95,5.36,2.17,7.43,4.13c2.99,2.82,2.37,8.1,5.34,10.94c0.88,0.84,2.25,1.39,3.31,0.8
										c0.85-0.47,1.21-1.48,1.48-2.41c2.07-7.17,2.51-14.78,1.58-22.19c-0.92-7.4-3.25-14.75-7.62-20.79
										c-4.37-6.04-10.93-10.68-18.3-11.85c-2.37-0.37-6.81-0.77-8.58,1.33c-1.24,1.46-1.33,4.94-1.32,6.74
										C524.41,155.07,527.1,160.47,531.67,163.33z"/>
									<g>
										<path class="st20" d="M525.3,147.36c-0.21,4.07-0.85,8.22-2.86,11.76c-2.01,3.54-5.62,6.38-9.69,6.56
											c-4.07,0.18-8.25-2.22-12.06-0.78c-5.74,2.16-6.04,11.11-11.56,13.79c-2.64,1.28-5.75,0.75-8.63,0.18
											c-2.88-0.56-5.99-1.1-8.63,0.17c-2.64,1.27-4.12,5.19-2,7.21"/>
										<path class="st20" d="M527.83,149.64c-2.73,3.59-0.47,8.82,2.54,12.18s6.91,6.38,7.81,10.8
											c0.75,3.71-0.69,8.13,1.79,10.98c2.98,3.42,9.44,1.83,12.11,5.5c1.25,1.71,1.2,4.01,1.84,6.02
											c0.65,2.01,2.82,3.98,4.68,2.98"/>
									</g>
								</g>
								<path class="st6" d="M551.96,208.66c0.1,1.33,0.46,3.01,1.69,3.24c1.26,0.23,2.13-1.3,2.6-2.58
									c2.12-5.74,4.28-11.89,3.15-17.95c-0.28-1.49-0.77-2.97-1.69-4.12c-3.23-4.06-7.03-0.92-7.11,3.26
									C550.48,196.45,551.53,202.71,551.96,208.66z"/>
							</g>
						</g>
						<g>
							
								<linearGradient id="SVGID_00000174572708216051831380000016960456712341515137_" gradientUnits="userSpaceOnUse" x1="546.8998" y1="215.3873" x2="547.1108" y2="194.7139">
								<stop  offset="0.0112" style="stop-color:#FFABA9;stop-opacity:0"/>
								<stop  offset="1" style="stop-color:#FFD8D8"/>
							</linearGradient>
							<path style="fill:url(#SVGID_00000174572708216051831380000016960456712341515137_);" d="M545.09,200.92
								c-0.62,1.77-0.99,3.73-0.36,5.49c0.29,0.82,0.82,1.58,1.59,1.99c0.76,0.41,1.78,0.41,2.45-0.14c0.96-0.79,0.9-2.25,0.7-3.48
								c-0.46-2.83-1.05-6.3-2.53-8.77C546.28,197.58,545.67,199.29,545.09,200.92z"/>
							
								<linearGradient id="SVGID_00000121991847243953904380000002309256148878820993_" gradientUnits="userSpaceOnUse" x1="480.6279" y1="196.6205" x2="480.8062" y2="179.1518">
								<stop  offset="0.0112" style="stop-color:#FFABA9;stop-opacity:0"/>
								<stop  offset="1" style="stop-color:#FFD8D8"/>
							</linearGradient>
							<path style="fill:url(#SVGID_00000121991847243953904380000002309256148878820993_);" d="M479.1,184.4
								c-0.52,1.49-0.84,3.15-0.3,4.64c0.25,0.69,0.7,1.33,1.34,1.68c0.65,0.35,1.5,0.34,2.07-0.12c0.81-0.66,0.76-1.9,0.59-2.94
								c-0.39-2.39-0.88-5.32-2.14-7.41C480.11,181.58,479.59,183.02,479.1,184.4z"/>
							
								<linearGradient id="SVGID_00000010990907418135350390000010866990123165851290_" gradientUnits="userSpaceOnUse" x1="476.7662" y1="220.579" x2="476.9771" y2="199.9054">
								<stop  offset="0.0112" style="stop-color:#FFABA9;stop-opacity:0"/>
								<stop  offset="1" style="stop-color:#FFD8D8"/>
							</linearGradient>
							<path style="fill:url(#SVGID_00000010990907418135350390000010866990123165851290_);" d="M474.96,206.11
								c-0.62,1.77-0.99,3.73-0.36,5.49c0.29,0.82,0.82,1.58,1.59,1.99c0.76,0.41,1.78,0.41,2.45-0.14c0.96-0.78,0.9-2.25,0.7-3.48
								c-0.46-2.83-1.05-6.3-2.53-8.77C476.15,202.78,475.53,204.48,474.96,206.11z"/>
						</g>
					</g>
					<g>
						<g>
							<path class="st7" d="M533.46,408.44l35.11-55.5c0,0,69.47,43.42,77.4,68.72c7.93,25.3,4.91,43.8-29.83,29.83
								C581.41,437.51,533.46,408.44,533.46,408.44z"/>
							<g>
								<path class="st8" d="M545.22,389l-6.89-9.4c0,0-21.92-13.78-34.14-21.61c-12.22-7.83-22.24-17.23-20.36-20.67
									c1.88-3.45,22.86,13.15,22.86,13.15s-27.89-27.22-26-31.32c1.88-4.07,6.89-0.94,6.89-0.94s-3.45-4.7,0.31-7.2
									c3.76-2.51,29.76,22.55,29.76,22.55s-18.79-26.31-14.41-29.44c4.38-3.13,23.8,25.68,26.62,28.19c2.82,2.51,7,5.53,7,5.53
									s-4.18-24.01,0.52-25.27c4.7-1.25,10.02,22.86,10.96,28.5c0.94,5.64,0.63,14.09,1.88,16.6c1.25,2.51,8.14,9.71,8.14,9.71
									L545.22,389z"/>
								<line class="st24" x1="487.59" y1="318.21" x2="512.44" y2="340.97"/>
							</g>
							<g>
								<path class="st25" d="M581.9,292.07c0,0-4.45,12.73-4.83,35.38"/>
								<path class="st25" d="M578.39,361.25c0,0,2.64-12.46,3.78-15.48"/>
								<path class="st25" d="M575.75,343.88c0.14,5.67,0.98,11.32,2.47,16.8"/>
								<path class="st25" d="M543.59,410.88c12.32-15.76,23.51-32.39,33.48-49.73"/>
								<path class="st25" d="M638.8,414.48c-19.26-30.96-72.49-60.03-72.49-60.03l-30.96,49.84l32.85,24.16"/>
							</g>
						</g>
						<g>
							<g>
								<line class="st25" x1="524.62" y1="313.23" x2="523.6" y2="297.81"/>
								<line class="st25" x1="528.56" y1="314.33" x2="533.46" y2="299.67"/>
								<line class="st25" x1="532.07" y1="316.45" x2="542.97" y2="305.5"/>
							</g>
							<g>
								<line class="st25" x1="485.53" y1="357" x2="474.08" y2="367.38"/>
								<line class="st25" x1="483.94" y1="353.23" x2="469.41" y2="358.49"/>
								<line class="st25" x1="483.43" y1="349.16" x2="468.08" y2="347.42"/>
							</g>
						</g>
					</g>
					<g>
						<g>
							<path class="st7" d="M455.72,203.12l-21.16-58.55c0,0-105.23,36.78-121.12,62.78c-3.6,4.75-6.71,18.27,24.06,51.57
								c41.34,44.74,98.55,89.48,110.44,103.64l6.23-90.62l-68.43-48.34L455.72,203.12z"/>
							<g>
								<g>
									<path class="st25" d="M454.06,272.12c-2.25,13.71-2.85,27.69-1.79,41.55"/>
									<path class="st25" d="M450.88,332.2c-2.25,11.16-3.1,22.6-2.54,33.97"/>
									<path class="st25" d="M445.71,337.1c0.77,5.91,1.54,11.83,2.31,17.74"/>
								</g>
								<path class="st25" d="M364.96,219.85c0,0,11.33-0.57,21.24,3.68"/>
								<line class="st25" x1="427.83" y1="147.07" x2="445.95" y2="206.54"/>
							</g>
						</g>
						<g>
							<path class="st8" d="M443.83,170.05l7.69,3.73l11.7-29.26c2.97-4.81,6.99-12.84,9.82-13.21c2.83-0.38,14.73,7.36,14.73,8.5
								c0,1.13-4.34,4.72-4.34,4.72s-5.66-2.64-6.23-0.38c-0.3,1.19-4.48,11.85-4.2,21.76c0.23,7.96-1.66,16.25-3.54,19.54
								c-2.78,4.87-19.02,2.97-19.02,2.97L443.83,170.05z"/>
							<g>
								<path class="st19" d="M468.43,150.77c1.15-5.03,3.54-9.77,6.9-13.68c0.51-0.59,1.43-0.19,2.14,0.12
									c2.6,1.14,5.15,2.39,7.65,3.74"/>
								<path class="st19" d="M464.17,147.43c1.52-3.74,3.47-7.3,5.78-10.6c1.12-1.6,2.4-3.2,4.17-4.04c1.76-0.85,3.36-0.3,5.4,0.77
									"/>
							</g>
							<path class="st6" d="M479.22,151.35c-0.98-2.29-0.21-5.2,1.77-6.72c1.02-0.78,2.3-1.21,3.14-2.18
								c0.78-0.9,1.04-2.12,1.52-3.21c1.43-3.31,5.09-5.52,8.69-5.25c3.6,0.27,6.88,3.01,7.8,6.5
								c-8.21,4.51-15.82,10.19-22.32,16.93C479.66,155.57,479.94,153.06,479.22,151.35z"/>
						</g>
					</g>
				</g>
				<g>
					<g>
						<path class="st8" d="M562.06,877.95c0,0,3.68,23.08,5.38,46.25c0.73,9.91,0,20.77,0,20.77s11.33,5.29,21.9,0
							c10.57-5.29,9.82-10.19,9.82-10.19l-3.68-57.96L562.06,877.95z"/>
						<g>
							<path class="st26" d="M577.63,946.2c0,0,4.53-13.88,14.16-13.59c9.63,0.28,9.63,5.38,9.63,5.38s17.27,26.34,32,38.23
								c14.73,11.89,22.65,21.8,13.59,29.45c-9.06,7.65-50.12-11.04-57.77-11.89c-7.65-0.85-34.83-7.46-35.11-16.71
								c-0.39-12.74,10.76-32.57,13.03-33.13C567.15,943.93,571.68,947.61,577.63,946.2z"/>
							<path class="st27" d="M554.2,974.41c3.98,4.84,9.55,8.15,15.38,10.44c5.83,2.29,11.98,3.63,18.05,5.17
								c9.76,2.47,19.39,5.47,28.84,8.96c5.85,2.17,11.74,4.55,17.96,5.07c6.22,0.52,12.41-1.85,16.45-6.6"/>
							<path class="st27" d="M609.84,996.37c4.47-9.7,11.69-17.5,21.21-22.33"/>
							<path class="st27" d="M560.63,954.67c5.15,8.12,6.72,18.41,4.23,27.69"/>
							<path class="st27" d="M577.8,946.08c1.67,1.31,1.92,3.73,1.7,5.84c-0.22,2.11-0.78,4.26-0.24,6.31
								c0.85,3.22,4.07,5.13,6.99,6.75c10.75,5.98,21.04,12.76,30.78,20.28"/>
							<path class="st27" d="M594.36,962.41c3.89-5.63,9.98-9.69,16.67-11.14"/>
							<path class="st27" d="M603.05,968.51c3.6-4.45,8.78-7.6,14.39-8.76"/>
							<path class="st27" d="M611.12,975.25c3.66-3.67,8.31-6.35,13.32-7.66"/>
						</g>
					</g>
					<g>
						<path class="st8" d="M484.94,875.75c0,0,3.75,29.44,3.5,39.62c0,0,16.14,6.51,26.06,1.05l0.26-43.4L484.94,875.75z"/>
						<g>
							<path class="st26" d="M488.05,914.54c0,0,0.25-10.18,9.18-8.74c8.93,1.44,8.66,12.44,8.66,12.44s3.5,0.44,8.48-3.1
								c0,0,9.72,13.12,10,24.02c0.05,2.04-0.92,3.96-2.59,5.13c-3.57,2.5-10.84,7.96-18.56,15.87
								c-10.87,11.14-48.59,19.99-56.16,13.28c-7.58-6.71,0.7-11.8,11.21-24.58C468.77,936.08,488.05,914.54,488.05,914.54z"/>
							<path class="st27" d="M444.13,968.4c1.83,3.05,5.28,4.84,8.79,5.4c3.51,0.56,7.09,0.03,10.57-0.68
								c23.26-4.72,45.6-18.54,60.71-36.85"/>
							<path class="st27" d="M517.73,920.27c-1.96,7.68-2.26,15.79-0.87,23.6"/>
							<path class="st27" d="M456.08,951.52c8.29,3.34,15.02,10.36,18,18.78"/>
							<path class="st27" d="M505.96,918.35c-0.11,3.02,1.64,5.75,2.78,8.55c1.15,2.8,1.53,6.46-0.73,8.47
								c-1.37,1.22-3.31,1.46-5.01,2.13c-3.5,1.38-5.92,4.55-8.32,7.45c-6.45,7.81-14.04,14.67-22.45,20.32"/>
							<path class="st27" d="M473.99,930.77c5.18,0.35,10.18,2.91,13.48,6.93"/>
							<path class="st27" d="M468.85,935.91c5.18,0.35,10.18,2.91,13.48,6.93"/>
							<path class="st27" d="M479.09,924.54c5.18,0.35,10.18,2.91,13.48,6.93"/>
						</g>
					</g>
					<g>
						<path class="st28" d="M456.43,437.14c0,0-27.18,65.32-28.32,106.1c-1.13,40.78,13.59,125.16,20.96,147.82
							c7.36,22.65,9.63,47.57,9.63,47.57s-10.19,58.33,26.05,139.89c0,0,21.52,0.57,30.58-2.83c0,0,0.57-116.67-3.4-165.38
							s-1.98-142.16-1.98-142.16h7.93c0,0,13.31,140.46,17.84,169.34c4.53,28.88,11.33,109.87,25.49,140.46l35.11-1.13
							c0,0-0.94-100.62-5.66-135.93c-3.61-26.97,15.86-147.82,7.93-201.06c-7.93-53.24-30.39-109.12-30.39-109.12
							s-57.91,19.44-111.71,5.85"/>
						<g>
							<path class="st25" d="M454.24,442.51c38.4,11.15,78.9,8.13,116.59-5.19"/>
							<path class="st25" d="M462.38,444.59c0,0,0.05-3.49,2.31-6.32"/>
							<path class="st25" d="M465.92,445.44c0,0,0.09-3.4,2.36-6.23"/>
							<path class="st25" d="M490.43,441.15c-0.66,2.53-0.87,5.18-0.62,7.79"/>
							<path class="st25" d="M493.68,441.29c-0.59,2.41-0.62,4.95-0.09,7.38"/>
							<path class="st25" d="M533.57,438.53c1.48,2.45,2.32,5.28,2.41,8.14"/>
							<path class="st25" d="M537.81,437.7c1.15,2.49,1.73,5.24,1.68,7.98"/>
							<path class="st25" d="M555.75,434.15c1.78,1.71,2.88,4.11,3.01,6.58"/>
							<path class="st25" d="M558.85,433.45c1.65,1.66,2.66,3.94,2.76,6.28"/>
							<circle class="st26" cx="513.66" cy="444.95" r="2.71"/>
							<path class="st25" d="M511.58,449.1c0.67,21.12,1.31,41.86,1.98,62.98c0.09,2.78,0.85,6.36,3.61,6.73
								c1.74,0.23,3.36-1.16,4-2.79s0.53-3.45,0.4-5.2c-1.47-20.95-2.73-41.33-4.19-62.28"/>
							<path class="st25" d="M544.35,445.09c9.77,19.44,24.94,36.14,43.37,47.71"/>
							<path class="st25" d="M436.81,497.76c19.41-9.69,33.77-28.91,37.57-50.27"/>
							<path class="st25" d="M439.42,496.42c-13.19,38.08-10.45,79.86-3.21,119.5c7.24,39.64,18.81,78.56,22.94,118.64
								c2.52,24.47,2.24,49.18,5.17,73.61c2.93,24.43,9.35,49.09,23.75,69.03"/>
							<path class="st25" d="M583.09,490.01c11.88,37.01,13.95,76.48,12.6,115.32c-1.35,38.84-6.01,77.52-7.2,116.37
								c-1.56,50.74,2.8,101.45,7.16,152.03"/>
							<path class="st25" d="M500.56,566.98c9.44,2.7,19.86,1.79,28.7-2.5"/>
						</g>
					</g>
				</g>
			</g>
			<g>
				<path class="st28" d="M577.91,161.79c0-0.85,3.96-18.41,3.96-18.41l12.18,7.93l15.01-31.43l-12.46,43.89l-12.74-10.48
					L577.91,161.79z"/>
				<path class="st28" d="M590.84,181.97c0.36-0.77,11.45-14.95,11.45-14.95l7.62,12.37l19.26-13.63l-22.28,25.99l-7.04-14.92
					L590.84,181.97z"/>
				<path class="st28" d="M458.48,115.67c-0.85-0.03-18.28-4.53-18.28-4.53l8.3-11.93L428.31,87l32.72,10.05l-10.86,12.42
					L458.48,115.67z"/>
				<path class="st28" d="M438.04,120.78c-0.41,0.74-12.33,14.23-12.33,14.23l-6.86-12.81l-20.04,12.45l23.8-24.6l6.13,15.32
					L438.04,120.78z"/>
			</g>
		</g>
	</g>
</g>
</svg>
