<?xml version="1.0" encoding="utf-8"?>
<!-- Generator: Adobe Illustrator 26.0.1, SVG Export Plug-In . SVG Version: 6.00 Build 0)  -->
<svg version="1.1" id="Capa_1" xmlns="http://www.w3.org/2000/svg" xmlns:xlink="http://www.w3.org/1999/xlink" x="0px" y="0px"
	 viewBox="0 0 1920 1080" style="enable-background:new 0 0 1920 1080;" xml:space="preserve">
<style type="text/css">
	.st0{fill:#6D392F;}
	.st1{fill:#C9B096;}
	.st2{fill:#D9BEA2;}
	.st3{fill:#E6CAAC;}
	.st4{fill:#565A47;}
	.st5{fill:none;stroke:#243466;stroke-miterlimit:10;}
	.st6{fill:#243466;}
	.st7{fill:#63342B;}
	.st8{fill:#F0936E;}
	.st9{fill:#F0D2BB;}
	.st10{fill:#57261D;}
	.st11{fill:#101830;}
	.st12{fill:#E35430;}
	.st13{fill:#F46440;}
	.st14{fill:#F7E0CE;}
	.st15{fill:#FFE7D4;}
	.st16{fill:#1D2A52;}
</style>
<g>
	<g>
		<g>
			<g>
				<path class="st0" d="M1143.7,177.45c11.96,54.36,24.51,108.58,37.66,162.66c13.16,54.08,26.92,108.01,41.28,161.78
					c14.36,53.77,29.32,107.38,44.88,160.82c15.48,53.18,31.55,106.19,48.21,159.01c16.93,53.69,34.47,107.19,52.6,160.48
					c2.28,6.69,4.57,13.38,6.86,20.07c0.42,1.21,2.35,0.69,1.93-0.53c-18.28-53.25-35.98-106.69-53.06-160.34
					c-16.91-53.11-33.23-106.4-48.95-159.87c-15.7-53.4-30.8-106.97-45.31-160.7c-14.44-53.47-28.28-107.11-41.52-160.88
					c-13.31-54.04-26.02-108.23-38.12-162.55c-1.52-6.82-3.03-13.65-4.53-20.48C1145.35,175.66,1143.42,176.19,1143.7,177.45
					L1143.7,177.45z"/>
			</g>
		</g>
		<g>
			<g>
				<path class="st0" d="M1072.19,38.02c-6.56,62.68-17.5,124.78-29.59,186.6c-12.04,61.51-24.9,122.85-36.46,184.45
					c-11.61,61.85-22.39,123.86-32.32,186c-9.85,61.61-18.86,123.36-27.04,185.21c-8.26,62.39-15.67,124.89-22.22,187.48
					c-0.82,7.78-1.62,15.57-2.41,23.36c-0.13,1.28,1.87,1.27,2,0c6.36-62.61,13.55-125.13,21.59-187.55
					c8.11-62.95,17.09-125.78,26.93-188.48c9.75-62.17,20.35-124.21,31.79-186.09c11.4-61.68,24.04-123.1,36.28-184.62
					c12.09-60.74,23.41-121.69,30.85-183.19c0.93-7.71,1.8-15.43,2.61-23.16C1074.32,36.74,1072.32,36.75,1072.19,38.02
					L1072.19,38.02z"/>
			</g>
		</g>
		<g>
			<g>
				<path class="st0" d="M1178.75,32.76c-8.8,125.26-16.47,250.59-22.99,375.99c-6.52,125.4-11.89,250.85-16.12,376.34
					c-2.37,70.43-4.38,140.87-6.04,211.32c-0.03,1.29,1.97,1.29,2,0c2.95-125.53,7.03-251.03,12.27-376.49
					c5.23-125.46,11.61-250.86,19.14-376.2c4.22-70.34,8.81-140.66,13.75-210.96C1180.84,31.48,1178.84,31.48,1178.75,32.76
					L1178.75,32.76z"/>
			</g>
		</g>
		<path class="st1" d="M1195.2,340.1c0,0,2.6,14.5-23.93,12.89c-26.52-1.61-167.96-12.37-167.96-12.37l-10.97-34.62l141.67-11.6
			l57.89,29.81L1195.2,340.1z"/>
		<path class="st2" d="M1196.38,341.69c-4.37,0.35-24.25-13.63-24.25-13.63l2.87-21.25l19.15-4.76L1196.38,341.69z"/>
		<g>
			<path class="st2" d="M1187.9,330.35c2.83,3.78,5.65,7.56,8.48,11.34c15.38-81.3,26.46-163.4,33.18-245.87l-17.35-19.08
				l-48.02,244.52"/>
		</g>
		<polygon class="st0" points="1096.25,73.97 1152.9,74.69 1155.91,54.41 1099.42,61.61 		"/>
		<g>
			<path class="st3" d="M1003.78,181.91c7.12-31.07,14.24-62.14,21.36-93.21c0.85-3.7,1.97-7.79,5.23-9.73
				c1.95-1.16,4.32-1.31,6.59-1.42c58.37-2.94,116.87-3.2,175.25-0.79c-9.89,79.54-19.78,159.08-29.67,238.63
				c0,0,2.35,11.83-6.11,15.04c-8.46,3.21-25.33,2.24-25.33,2.24c-49.09,0.99-98.31-4.14-146.14-15.23c0,0-18.21,4.76-18.52-11.07
				C986.14,290.52,1003.78,181.91,1003.78,181.91z"/>
		</g>
		<g>
			<path class="st4" d="M1124.29,178.65c-0.04,0-0.06,0-0.09,0C1124.32,178.64,1124.39,178.63,1124.29,178.65z"/>
			<path class="st4" d="M1122.32,177.15c-0.42,0.05-0.32,0.01-0.41,0L1122.32,177.15z"/>
			<path class="st4" d="M1122.89,176.35l0-0.01c0.15-0.02,0.33-0.04,0.53-0.06L1122.89,176.35z"/>
			<polygon class="st4" points="1126.32,192.36 1126.67,192.07 1126.42,192.23 			"/>
			<path class="st4" d="M1123.85,183.87c0.41-0.14,1.6-0.63,2.23-0.79C1125.13,183.36,1124.91,183.58,1123.85,183.87z"/>
			<path class="st4" d="M1123.92,180.78c0.08-0.01,0.23-0.04,0.09,0.01c-0.05,0.01-0.09,0.02-0.13,0.03
				C1124.02,180.77,1124.09,180.75,1123.92,180.78z"/>
			<path class="st4" d="M1124.02,181.21c-0.08,0.02-0.14,0.03-0.22,0.05l0.05-0.03L1124.02,181.21z"/>
			<path class="st4" d="M1120.73,193.24c0.27-0.15,0.57-0.33,0.86-0.49C1120.92,193.15,1120.72,193.36,1120.73,193.24z"/>
			<path class="st4" d="M1126.37,187.78c-0.02,0,0.02-0.02-0.04,0.01C1126.4,187.76,1126.4,187.76,1126.37,187.78z"/>
			<path class="st4" d="M1124.21,178.46c0.16-0.02,0.27-0.02,0.48-0.08C1124.47,178.43,1124.33,178.45,1124.21,178.46z"/>
			<path class="st4" d="M1127.05,188.34c-0.02,0.01-0.07,0.05-0.07,0.05c-0.09,0.04-0.16,0.08-0.22,0.11l0.3-0.18L1127.05,188.34z"
				/>
			<path class="st4" d="M1121.76,177.15c-0.04,0-0.09,0.01-0.16,0.01c0.05,0,0.09-0.01,0.13-0.01L1121.76,177.15z"/>
			<path class="st4" d="M1116.73,174.82c0,0-0.04-0.02,0.28-0.04L1116.73,174.82z"/>
			<path class="st4" d="M1123.34,175.71c-0.39,0.05-0.48,0.07-0.86,0.06C1122.68,175.71,1123.1,175.73,1123.34,175.71z"/>
			<path class="st4" d="M1122.67,177.64l0.99-0.14C1123.53,177.55,1123.28,177.55,1122.67,177.64z"/>
			<polygon class="st4" points="1124.7,177.91 1124.84,177.87 1124.49,177.98 			"/>
			<path class="st4" d="M1124.95,180.89l-1.2,0.3C1123.96,181.11,1125.3,180.76,1124.95,180.89z"/>
			<path class="st4" d="M1124.1,182.51c0.6-0.17,0.99-0.25,0.41-0.05C1124.42,182.45,1123.95,182.57,1124.1,182.51z"/>
			<polygon class="st4" points="1127.37,185.44 1127.73,185.25 1127.44,185.43 			"/>
			<path class="st4" d="M1113.55,172.42l0.91,0.26c-0.21-0.09-0.42-0.14-0.58-0.19L1113.55,172.42z"/>
			<path class="st4" d="M1113.3,172.62c0.08,0.03,0.13,0.06,0.21,0.09c0.04-0.01,0.12,0.02,0.16,0.02
				C1113.59,172.7,1113.47,172.67,1113.3,172.62z"/>
			<path class="st4" d="M1112.99,172.93c0.06,0.01,0.18,0.04,0.34,0.07c-0.06-0.01-0.1-0.01-0.14-0.01L1112.99,172.93z"/>
			<polygon class="st4" points="1119.02,193.08 1119.06,193.03 1119.46,192.56 			"/>
			<path class="st4" d="M1113.39,194.02c0.27-0.16,0.56-0.33,0.85-0.5C1113.58,193.92,1113.41,194.18,1113.39,194.02z"/>
			<path class="st4" d="M1113.13,172.99c0,0,0.04,0,0.06,0c0.16,0.05,0.3,0.09,0.4,0.12C1113.32,173.04,1113.19,173,1113.13,172.99z
				"/>
			<path class="st4" d="M1109.49,181.26c0.39,0.03,0.61,0.05,0.76,0.07c-0.09,0-0.16,0-0.28,0.01L1109.49,181.26z"/>
			<polygon class="st4" points="1113.64,177.84 1113.64,177.84 1113.64,177.84 			"/>
			<path class="st5" d="M1117.35,176.75c0.05,0.03,0.09,0.07,0.21,0.09l-0.09-0.07L1117.35,176.75z M1117.02,174.98
				c0.04-0.01,0.12,0.02,0.21,0.05c-0.04,0.01-0.08-0.03-0.13-0.06C1117.05,174.97,1117.05,174.97,1117.02,174.98z M1117.02,174.98
				c0.04-0.01,0.12,0.02,0.21,0.05c-0.04,0.01-0.08-0.03-0.13-0.06C1117.05,174.97,1117.05,174.97,1117.02,174.98z M1118.95,189.18
				c-0.04,0.01-0.08,0.01-0.11,0.06l-0.01-0.04L1118.95,189.18z M1118.08,189.98c0.22-0.15,0.55-0.32,0.92-0.53
				c0.27-0.08,0.53-0.16,0.64-0.21C1119.19,189.46,1118.71,189.69,1118.08,189.98z M1116.63,181.9c-0.08-0.03-0.16-0.02-0.32-0.03
				c-0.08,0.01-0.08,0.01-0.12,0.02c0.07-0.05,0.11-0.06,0.15-0.06c0.12-0.02,0.28,0,0.47-0.03
				C1116.74,181.84,1116.7,181.85,1116.63,181.9z M1116.31,182.98l0.43-0.06c0,0,0.01,0.04-0.11,0.09
				C1116.51,182.99,1116.39,183,1116.31,182.98z M1116.01,182.58l0.23-0.03c0.04-0.01,0.04-0.01,0.07-0.05
				c0.08-0.01,0.16,0.02,0.35-0.05c-0.11,0.06-0.11,0.06-0.19,0.07l-0.04,0.01c-0.12,0.02-0.19,0.07-0.27,0.08
				C1116.14,182.61,1116.06,182.62,1116.01,182.58z M1113.96,191.41c0.27-0.08,0.49-0.15,0.68-0.22c-0.11,0.06-0.33,0.21-0.63,0.29
				C1114,191.45,1114,191.45,1113.96,191.41z M1112.94,192.87c0.04-0.01,0.12-0.02,0.23-0.07c0.07-0.05,0.07-0.05,0.17-0.18
				C1113.23,192.67,1113.05,192.77,1112.94,192.87z M1110.82,178.77c0.6,0.03,0.92,0.07,1.09,0.12c1.13,0.11,0.66,0.18,1.67,0.27
				c-0.32-0.27-0.71-0.49-1.05-0.68c-0.32,0.01-0.63,0.01-0.71,0.06c0.08-0.01,0.28,0,0.48,0.05c0.25,0.08-0.11,0.09-0.66,0.1
				c0.12-0.02,0.28,0,0.44,0.02C1112.1,178.83,1111.25,178.71,1110.82,178.77z M1112.21,177.94l0.63-0.01l-0.33-0.11L1112.21,177.94
				z M1115.78,196.55l-0.06-0.15C1115.48,196.71,1115.29,197.01,1115.78,196.55z M1115.05,196.73c0.33-0.21,0.69-0.7,1.18-1.2
				C1115.87,195.86,1115.41,196.24,1115.05,196.73z M1113.33,177.46c0.12,0.02,0.21,0.05,0.33,0.07l-0.09-0.07L1113.33,177.46z
				 M1114.28,173.11c-0.08-0.03-0.13-0.06-0.17-0.09c0.04-0.01,0.08-0.01,0.16,0.02c0.16,0.02,0.66,0.18,0.91,0.26l-0.22-0.13
				c-0.25-0.08-0.46-0.13-0.62-0.19c-0.16-0.02-0.28-0.04-0.36-0.03c-0.29-0.08-0.48-0.05-0.64-0.07
				C1113.63,172.97,1113.91,173.01,1114.28,173.11z M1117.02,174.98c0.04-0.01,0.12,0.02,0.21,0.05c-0.04,0.01-0.08-0.03-0.13-0.06
				C1117.05,174.97,1117.05,174.97,1117.02,174.98z M1117.35,176.75c0.05,0.03,0.09,0.07,0.21,0.09l-0.09-0.07L1117.35,176.75z
				 M1118.19,174.57c0.36-0.01,0.72,0.02,0.8,0.04l0.35-0.05c-0.12-0.02-0.37-0.07-0.72-0.05
				C1118.3,174.51,1118.22,174.53,1118.19,174.57z M1118.34,174.79c0.12-0.02,0.19-0.03,0.28,0l-0.08-0.03L1118.34,174.79z
				 M1123.02,182.44c0.38-0.13,0.76-0.23,0.83-0.28C1123.24,182.33,1123.21,182.37,1123.02,182.44z M1124.4,182.68
				c0.27-0.08,0.38-0.13,0.41-0.18C1124.66,182.52,1124.54,182.58,1124.4,182.68z M1126.23,184.08c0.15-0.06,0.34-0.13,0.37-0.17
				L1126.23,184.08z"/>
			<path class="st4" d="M1117.2,176.71c-0.04-0.01-0.08-0.02-0.15-0.04c0.05,0.01,0.09,0.02,0.13,0.03L1117.2,176.71z"/>
			<polygon class="st4" points="1111.02,189.5 1111.29,189.43 1111.06,189.51 			"/>
			<path class="st4" d="M1113.07,174.12c0.19,0.05,0.33,0.08,0.46,0.11l0.01,0L1113.07,174.12z"/>
			<path class="st4" d="M1110.91,179.09c0,0-0.02,0.01-0.05,0.01C1110.64,179.11,1110.73,179.09,1110.91,179.09z"/>
			<path class="st4" d="M1113.64,177.84c-0.2-0.01-0.4-0.02-0.52-0.02C1113.03,177.78,1113.01,177.76,1113.64,177.84z"/>
			<polygon class="st4" points="1109.48,180.84 1109.5,180.84 1109.5,180.85 			"/>
			<path class="st4" d="M1113.12,177.89c-0.21-0.05-0.16-0.07-0.01-0.07C1113.18,177.85,1113.29,177.89,1113.12,177.89z"/>
			<path class="st4" d="M1112.95,172.59c0.07,0.02,0.13,0.04,0.17,0.05l-0.13-0.02L1112.95,172.59z"/>
			<polygon class="st4" points="1112.73,177.05 1112.12,176.91 1113.03,177.04 			"/>
		</g>
		<g>
			<g>
				<path class="st6" d="M1038.66,190.61c6.36-4.61,12.82-9.08,19.39-13.39c6.57-4.31,13.23-8.47,19.99-12.47
					c6.76-4,13.61-7.84,20.55-11.52c6.9-3.66,13.89-7.17,20.96-10.5c7.13-3.37,14.34-6.57,21.62-9.6c0.91-0.38,1.82-0.75,2.74-1.13
					c-0.16-0.28-0.32-0.56-0.49-0.84c-4.96,5.36-10.29,10.37-15.84,15.11c-5.61,4.79-11.44,9.32-17.35,13.74
					c-5.89,4.39-11.85,8.67-17.8,12.98c-5.94,4.32-11.86,8.67-17.63,13.22c-5.75,4.53-11.36,9.24-16.67,14.28
					c-0.66,0.63-1.32,1.26-1.98,1.9c-0.4,0.39,0.12,1.11,0.61,0.79c8.6-5.72,17.2-11.43,25.79-17.15s17.2-11.43,25.79-17.15
					c4.85-3.23,9.71-6.45,14.56-9.68c-0.2-0.26-0.4-0.52-0.61-0.79c-5.82,7.26-11.63,14.52-17.45,21.78
					c-1.66,2.07-3.32,4.15-4.99,6.22c-0.32,0.4,0.1,1.14,0.61,0.79c8.33-5.74,15.86-12.63,22.28-20.45c1.8-2.19,3.5-4.44,5.12-6.76
					c0.24-0.35-0.16-0.88-0.56-0.73c-7.17,2.55-14.2,5.48-21.05,8.79c-6.84,3.31-13.51,7-19.94,11.04
					c-3.65,2.29-7.22,4.69-10.72,7.21c-0.51,0.37-0.06,1.2,0.5,0.86c10.07-6.12,19.6-13.13,28.43-20.93
					c2.48-2.19,4.91-4.45,7.28-6.76c0.42-0.41-0.11-1.03-0.61-0.79c-6.92,3.38-13.69,7.07-20.27,11.07
					c-6.55,3.98-12.92,8.25-19.09,12.8c-3.47,2.56-6.86,5.21-10.2,7.94c-0.44,0.36,0.14,1.1,0.61,0.79
					c6.96-4.67,13.85-9.45,20.65-14.34c6.81-4.89,13.54-9.89,20.19-14.99c3.72-2.86,7.42-5.75,11.09-8.68
					c0.44-0.35-0.15-1.13-0.61-0.79c-6.25,4.8-11.69,10.61-16.04,17.18c-1.25,1.89-2.41,3.85-3.47,5.85
					c-0.18,0.34,0.05,0.74,0.43,0.75c4.47,0.18,8.91-0.72,12.98-2.58c0.58-0.27,0.08-1.13-0.5-0.86c-3.9,1.79-8.18,2.62-12.47,2.45
					c0.14,0.25,0.29,0.5,0.43,0.75c3.64-6.85,8.39-13.07,14.06-18.36c1.63-1.52,3.33-2.96,5.1-4.32c-0.2-0.26-0.4-0.52-0.61-0.79
					c-6.52,5.19-13.13,10.29-19.82,15.27c-6.69,4.99-13.45,9.87-20.3,14.64c-3.85,2.68-7.72,5.33-11.62,7.95
					c0.2,0.26,0.4,0.52,0.61,0.79c5.92-4.85,12.07-9.44,18.41-13.74c6.31-4.28,12.82-8.27,19.49-11.96
					c3.77-2.08,7.59-4.07,11.45-5.96c-0.2-0.26-0.4-0.52-0.61-0.79c-8.37,8.17-17.46,15.61-27.15,22.17
					c-2.74,1.86-5.53,3.65-8.36,5.37c0.17,0.29,0.34,0.58,0.5,0.86c6.15-4.41,12.53-8.49,19.12-12.2
					c6.59-3.71,13.38-7.07,20.34-10.04c3.95-1.69,7.96-3.25,12.02-4.69c-0.19-0.24-0.38-0.49-0.56-0.73
					c-5.71,8.16-12.56,15.51-20.29,21.79c-2.18,1.77-4.44,3.46-6.76,5.05c0.2,0.26,0.4,0.52,0.61,0.79
					c5.82-7.26,11.63-14.52,17.45-21.78c1.66-2.07,3.32-4.15,4.99-6.22c0.33-0.41-0.09-1.13-0.61-0.79
					c-8.6,5.72-17.2,11.43-25.79,17.15c-8.6,5.72-17.2,11.43-25.79,17.15c-4.85,3.23-9.71,6.45-14.56,9.68
					c0.2,0.26,0.4,0.52,0.61,0.79c5.24-5.11,10.79-9.89,16.5-14.47c5.78-4.63,11.72-9.04,17.7-13.4c5.93-4.33,11.91-8.6,17.81-12.96
					c5.89-4.36,11.71-8.81,17.33-13.51c5.6-4.68,11-9.6,16.05-14.88c0.63-0.66,1.26-1.33,1.88-2c0.31-0.33,0.01-1.04-0.49-0.84
					c-7.27,2.98-14.48,6.12-21.61,9.43c-7.12,3.31-14.17,6.78-21.13,10.42c-6.99,3.65-13.9,7.47-20.72,11.45
					c-6.78,3.96-13.47,8.08-20.07,12.35c-6.62,4.29-13.15,8.74-19.56,13.34c-0.8,0.57-1.6,1.15-2.4,1.73
					C1037.64,190.12,1038.14,190.99,1038.66,190.61L1038.66,190.61z"/>
			</g>
		</g>
		<g>
			<g>
				<path class="st6" d="M1098.63,264.99c-1.18-0.58-2.01-1.6-2.32-2.88c-0.28,0.16-0.56,0.32-0.84,0.49
					c10.26,10.61,21.62,20.15,33.85,28.43c3.45,2.33,6.96,4.56,10.54,6.69c0.13-0.3,0.26-0.61,0.39-0.91
					c-6.12-1.16-10.61-5.91-14.61-10.34c-5.03-5.59-10.05-11.2-15.07-16.79c-2.86-3.19-5.72-6.37-8.58-9.56
					c-0.37-0.42-1.13,0.15-0.79,0.61c7.46,10.03,17.05,18.44,27.98,24.51c3.06,1.7,6.23,3.21,9.47,4.53
					c0.48,0.2,0.82-0.51,0.49-0.84c-7.03-6.98-14.38-13.64-22.02-19.94c-2.18-1.8-4.39-3.57-6.62-5.32c-0.2,0.26-0.4,0.52-0.61,0.79
					c10.1,4.66,20.28,9.14,30.54,13.45c2.9,1.22,5.81,2.42,8.73,3.61c0.48,0.2,0.81-0.51,0.49-0.84
					c-8.13-8.18-16.33-16.4-25.78-23.07c-2.68-1.9-5.46-3.65-8.34-5.23c-0.47-0.26-1.07,0.42-0.61,0.79
					c7.9,6.25,16.36,11.78,25.28,16.47c2.54,1.33,5.11,2.6,7.71,3.8c0.57,0.26,1.08-0.54,0.5-0.86
					c-8.28-4.66-15.18-11.28-21.62-18.19c-1.82-1.96-3.61-3.94-5.4-5.93c0,0.24,0,0.47,0,0.71c0.87-0.81,2.2-0.27,3.1,0.2
					c1.06,0.56,2.07,1.25,3.09,1.88c2.09,1.31,4.18,2.62,6.3,3.88c4.17,2.46,8.53,4.74,13.22,6.03c2.58,0.71,5.24,1.11,7.92,1.1
					c0.35,0,0.54-0.32,0.48-0.63c-0.26-1.46-0.52-2.93-0.78-4.39c-0.11-0.63-1.08-0.36-0.96,0.27c0.26,1.46,0.52,2.93,0.78,4.39
					c0.16-0.21,0.32-0.42,0.48-0.63c-10.36,0.03-19.3-6.13-27.74-11.39c-1.77-1.1-4.6-3.27-6.59-1.42c-0.21,0.19-0.18,0.51,0,0.71
					c6.37,7.06,12.81,14.17,20.47,19.87c2.16,1.61,4.41,3.08,6.76,4.4c0.17-0.29,0.34-0.58,0.5-0.86
					c-9.07-4.19-17.76-9.2-25.92-14.97c-2.33-1.65-4.62-3.37-6.87-5.14c-0.2,0.26-0.4,0.52-0.61,0.79
					c10.13,5.57,18.83,13.28,27.05,21.31c2.31,2.26,4.59,4.55,6.86,6.84c0.16-0.28,0.32-0.56,0.49-0.84
					c-10.26-4.18-20.44-8.55-30.55-13.09c-2.83-1.27-5.66-2.56-8.48-3.87c-0.47-0.22-1.09,0.41-0.61,0.79
					c7.8,6.1,15.33,12.56,22.54,19.36c2.06,1.94,4.09,3.91,6.1,5.9c0.16-0.28,0.32-0.56,0.49-0.84
					c-11.35-4.64-21.67-11.72-30.12-20.6c-2.4-2.52-4.65-5.19-6.73-7.98c-0.26,0.2-0.52,0.4-0.79,0.61
					c5.16,5.75,10.33,11.51,15.49,17.26c2.55,2.85,5.11,5.69,7.66,8.54c2.11,2.35,4.24,4.7,6.69,6.7c2.59,2.12,5.54,3.83,8.86,4.46
					c0.54,0.1,0.9-0.61,0.39-0.91c-12.61-7.5-24.45-16.31-35.25-26.24c-3.06-2.82-6.04-5.73-8.94-8.72
					c-0.36-0.37-0.95,0.01-0.84,0.49c0.37,1.51,1.38,2.79,2.78,3.48C1098.7,266.14,1099.2,265.27,1098.63,264.99L1098.63,264.99z"/>
			</g>
		</g>
		<polyline class="st0" points="1209.98,347.15 1205.59,371.59 978.66,345.94 988.9,327.59 1213.73,345.61 		"/>
		<g>
			<g>
				<path class="st0" d="M955.77,734.75c25.12,1.28,50.24,2.56,75.36,3.84c25.12,1.28,50.24,2.56,75.36,3.84
					c6.65,0.34,13.33,0.54,19.95,1.23c6.35,0.67,12.71,1.93,18.52,4.64c1.16,0.54,2.18-1.18,1.01-1.73
					c-10.5-4.89-22.24-5.27-33.61-5.85c-12.62-0.64-25.25-1.29-37.87-1.93c-12.69-0.65-25.37-1.29-38.06-1.94
					c-12.62-0.64-25.25-1.29-37.87-1.93c-12.69-0.65-25.37-1.29-38.06-1.94c-1.58-0.08-3.16-0.16-4.73-0.24
					C954.48,732.68,954.49,734.68,955.77,734.75L955.77,734.75z"/>
			</g>
		</g>
	</g>
	<g>
		<g>
			<path class="st0" d="M931.93,233.5c0,0,17.18-30.4,20.26-33.92c3.08-3.52,21.14-11.01,21.14-11.01l1.32,30.4
				c0,0-5.73-1.76-8.81,11.89C962.77,244.51,931.93,233.5,931.93,233.5z"/>
			<g>
				<g>
					<path class="st0" d="M959.52,197.98c0.7,6.31,2.9,12.44,6.35,17.77c0.44,0.68,0.92,1.37,1.58,1.85
						c0.88,0.65,1.99,0.87,3.07,1.05c8.71,1.42,17.77,0.66,26.12-2.19c1.03-0.35,2.09-0.76,2.85-1.54c0.76-0.78,1.14-2.04,0.6-2.99
						c-0.8-1.41-2.85-1.26-4.44-0.92c1.65-1.31,3.88-1.65,5.67-2.76c1.8-1.11,3.05-3.77,1.57-5.27c-1.81-1.85-5.03,0.27-7.5-0.51
						c2.33-0.91,4.66-1.82,6.99-2.72c1.92-0.75,4.11-1.79,4.53-3.81c0.48-2.28-1.82-4.38-4.15-4.6c-2.32-0.22-4.55,0.86-6.63,1.91
						c2.04-0.96,4.09-1.92,6.13-2.88c1.4-0.66,2.86-1.36,3.8-2.59c0.94-1.23,1.18-3.15,0.09-4.26c-1.24-1.26-3.33-0.84-5.03-0.32
						c-3.02,0.92-6.03,1.84-9.05,2.75l-6.28-2.78l-19.46,8.34L959.52,197.98z"/>
				</g>
				<path class="st7" d="M983.05,213.96c0.17-1.33,3.89-1.44,5.05-1.44c-1.33-0.01-6.01-0.22-6.51-2.51
					c-0.57-2.66,6.34-6.07,6.34-6.07s-7.5,1.72-8.37-1.04c-0.87-2.76,8.91-6.84,8.91-6.84s-6.12,2.52-7.28-1.33
					c-0.15-0.51-0.1-1.01,0.09-1.5c-1.12,1.18-2.37,2.24-3.68,3.22c-2.79,4.15-5.01,8.71-4.18,11.92c1.92,7.4,13.54,8.07,13.54,8.07
					S982.84,215.54,983.05,213.96z"/>
				<path class="st7" d="M992.54,185.85c-0.34-0.2-5.25-2.69-5.25-2.69s0.03,3.3-2.21,5.75
					C982.85,191.36,992.54,185.85,992.54,185.85z"/>
				<g>
					<path class="st8" d="M969.84,208.39c11.07-7.1,20.77-16.39,31.02-24.59c12.57-10.06,25.69-19.42,38.78-28.77
						c4.45-3.18,0.02-10.6-4.28-7.33c-22.92,17.42-49.45,35.27-68.34,57.05C965.38,206.63,967.49,209.89,969.84,208.39
						L969.84,208.39z"/>
				</g>
				<g>
					<path class="st0" d="M970.66,189.78c6.27-2.94,10.35-9.04,14.12-14.86c4.99,4.03,12.56,4.5,18.02,1.14
						c-0.41,4.13-2.53,8.15-5.98,10.44c-3.46,2.29-8.25,2.61-11.76,0.4"/>
				</g>
			</g>
			<g>
				<path class="st9" d="M738.46,228.91c43.76,21.22,85.85,45.86,125.78,73.62c22.89-27.56,45.77-55.12,68.66-82.67
					c0.87-1.05,1.82-2.15,3.12-2.57c1.36-0.43,2.82-0.03,4.18,0.37c9.79,2.87,19.57,5.75,29.36,8.62c0.84,0.25,1.76,0.56,2.17,1.33
					c0.41,0.77,0.15,1.7-0.11,2.53c-4.18,13.19-8.36,26.39-12.54,39.58c-3.63,11.46-7.28,22.96-12.38,33.84
					c-13.25,28.27-36.46,51.74-64.57,65.31c-19.73,9.52-41.4,14.17-62.87,18.48c-15.69,3.14-31.68,6.16-47.59,4.45
					c-15.91-1.71-31.98-8.83-40.83-22.16"/>
			</g>
			<g>
				<path class="st10" d="M1039.93,156.3c-1.44-1.08-2.89-2.16-4.33-3.24c-2.31-1.73-4.83-3.8-5.09-6.68
					c-0.31-3.42,2.84-6.28,6.12-7.28c3.28-1,6.82-0.76,10.19-1.39c3.38-0.62,6.94-2.53,7.79-5.86c0.6,8.34-2.74,16.89-8.84,22.61
					c-1.38,1.29-3.21,2.52-5.03,2.01"/>
			</g>
			<g>
				<path class="st6" d="M1040.24,142.13c1.36,3.82-0.75,8.59,5.16,9c1.25,0.09,2.48-0.16,3.7-0.48c3.94-5.38,6-12.14,5.52-18.79
					c-0.85,3.33-4.41,5.24-7.79,5.86c-3.06,0.57-6.24,0.47-9.25,1.18C1038.75,139.99,1039.86,141.08,1040.24,142.13z"/>
			</g>
		</g>
		<path class="st0" d="M532.25,903.24l62.62-43.7l9.01,37.72l-57.02,34.16C546.85,931.43,525.13,916.16,532.25,903.24z"/>
		<path class="st0" d="M751.89,240.36c-3.49-4.7-46.04-44.46-46.04-44.46s11.89-43.61,12.37-44.93l29.92,14.11
			c0,0,0.26,6.66,0.58,16.07c0.11,3.07,0.26,6.4,0.37,9.94c0.16,3.33,0.32,6.77,0.48,10.26c0.11,2.43,0.21,4.86,0.32,7.29
			C750.57,223.76,751.31,237.61,751.89,240.36z"/>
		<g>
			<path class="st0" d="M733.59,897.12c0.11,20.25-2.68,40.53-8.21,59.73c11.06-0.12,22.12,0.42,33.13,1.6
				c0.54-21.17,1.08-42.34,1.61-63.52"/>
		</g>
		<g>
			<path class="st11" d="M816.15,983.83c-7.23-6.66-19.22-6.44-28.37-7.96c-13.74-2.29-27.55-7.53-29.38-22.14
				c-0.08,0.01-0.16,0.02-0.23,0.03c-10.54,1.39-21.83,1.36-31.98-1.97c-1.52,9.23-6.37,17.66-7.04,27.3
				c-0.33,4.78,0.06,9.42,0.74,14l101.15-0.53C820.38,989.4,818.97,986.43,816.15,983.83z"/>
		</g>
		<g>
			<path class="st11" d="M548.12,998.96c1.46-1.87,2.8-3.83,3.83-6.02c5.18-10.99-3.03-22.84-6.76-33.05
				c-3.95-10.81-5.6-21.26,2.56-28.96c-0.4-0.52-0.84-1.06-1.23-1.56c-6.03-7.93-10.89-16.71-13.9-26.15
				c-4.84,4.41-12.21,5.42-18.46,7.9c-9.03,3.59-14.44,9.46-19.39,16.11c1.3,2.94,3.06,5.77,4.83,8.4
				c14.69,21.74,30.65,42.62,47.77,62.5C547.62,998.4,547.88,998.68,548.12,998.96z"/>
		</g>
		<g>
			<path class="st12" d="M716.54,821.87c0,0,6.72,68.69,3.78,84.46c19.92,2.56,39.84,5.11,59.76,7.67
				c8.43-54.12,7.38-109.45,20.44-162.64c8.5-34.61-7.36-264.57-7.36-264.57h-84.58L716.54,821.87"/>
		</g>
		<g>
			<path class="st13" d="M759.03,500.24c14.36,76.75,28.72,153.5,43.09,230.24c0.64,3.42,1.27,7.04,0.07,10.31
				c-0.91,2.48-2.77,4.48-4.59,6.4c-61.08,64.31-129.67,121.49-203.91,170.01c-21.3-27.04-42.74-54.69-42.74-54.69
				s141.21-149.85,142.47-153.16c1.25-3.27,0.12-6.91-0.99-10.23c-23.51-70.5-36.19-144.6-37.48-218.91"/>
		</g>
		<path class="st14" d="M756.08,236.43c0,0,15.86,34.36,23.79,70.48c7.93,36.12,30.84,209.69,30.84,209.69l-162.11-1.76
			l-16.74-214.97c-2.56-23.2,55.39-106.75,73.99-103.96C724.45,198.7,756.08,236.43,756.08,236.43z"/>
		<path class="st10" d="M749.57,201.35c-9.2-7.08-20.46-19.14-25.64-37.58c0.42,0,8.72,12.53,24.79,17.39
			c0.11,3.07,0.26,6.4,0.37,9.94C749.25,194.42,749.41,197.86,749.57,201.35z"/>
		<g>
			<g>
				<g>
					<g>
						<path class="st0" d="M665.13,129.67c1.14,3.08,2.49,6.08,4.1,8.92c11.49,20.3,32.68,33.72,55.04,40.38
							c26.4,4.42,42.68,2.52,60.69-11.53c36.13-34.7-2.2-71.9-24.68-97.72C728.25,28.42,637.34,72.78,665.13,129.67z"/>
					</g>
				</g>
			</g>
			<g>
				<g>
					<path class="st10" d="M753.84,99.3c2.7,4.29,7.03,7.79,10.99,10.86c3.8,2.95,7.99,6.13,13.02,6.2
						c-0.14-0.18-0.27-0.36-0.41-0.54c-2.16,5.45-5.13,10.39-8.58,15.11c-0.33,0.44,0.42,1.03,0.77,0.59
						c3.68-4.64,6.5-9.96,8.63-15.47c0.1-0.26-0.16-0.54-0.41-0.54c-5.06-0.03-9.42-3.46-13.22-6.45c-1.85-1.46-3.64-2.99-5.34-4.62
						c-1.79-1.72-3.35-3.63-5.04-5.44C754.05,98.78,753.69,99.05,753.84,99.3L753.84,99.3z"/>
				</g>
			</g>
		</g>
		<g>
			<g>
				<path class="st11" d="M744.29,121.84c-0.07,0.04-0.14,0.09-0.22,0.13c0.06-0.02,0.11-0.05,0.17-0.07c0,0,0,0,0,0
					c0.06-0.01,0.13-0.02,0.19-0.03c-0.08,0-0.16,0-0.24,0.03c-0.13,0.04-0.24,0.1-0.33,0.19c-0.09,0.09-0.16,0.2-0.19,0.33
					c-0.04,0.13-0.04,0.27,0,0.4c0.02,0.1,0.07,0.18,0.13,0.25c0.05,0.08,0.12,0.15,0.21,0.19c0.12,0.07,0.24,0.1,0.38,0.1
					c0.14,0,0.26-0.03,0.38-0.1c0.11-0.07,0.2-0.16,0.27-0.27c0.08-0.17,0.09-0.19,0.1-0.38c0,0,0-0.01,0-0.01c0-0.01,0-0.02,0-0.02
					c-0.01,0.06-0.02,0.13-0.03,0.19c0,0,0,0,0,0c-0.02,0.06-0.05,0.11-0.07,0.17c0.05-0.07,0.1-0.13,0.15-0.2
					c0.02-0.05,0.04-0.1,0.07-0.16c0.03-0.09,0.03-0.17,0.01-0.26c0-0.06-0.02-0.11-0.04-0.17c-0.03-0.08-0.07-0.15-0.14-0.21
					c-0.04-0.03-0.09-0.07-0.13-0.1c-0.05-0.02-0.1-0.04-0.16-0.07c-0.09-0.03-0.17-0.03-0.26-0.01
					C744.45,121.77,744.37,121.8,744.29,121.84L744.29,121.84z"/>
			</g>
		</g>
		<g>
			<g>
				<path class="st11" d="M772.78,98.7c1.06,0,1.06-1.64,0-1.64C771.73,97.06,771.73,98.7,772.78,98.7L772.78,98.7z"/>
			</g>
		</g>
		<g>
			<path class="st11" d="M712.61,143.36c2.44,1.95,7.09,3.5,7.56,0.41c0.09-0.56-0.05-1.13-0.22-1.68
				c-2.13-7.08-8.25-12.1-12.32-18.27c-4.07-6.17-5.34-15.85,0.85-19.88c1.01-0.66,2.24-1.2,2.71-2.31c1.29-3.04-3.86-4.46-5.84-7.1
				c-1.79-2.4-0.59-6.03,1.69-7.97c2.28-1.94,5.3-2.68,8.14-3.63c16.04-5.32,28.38-18.3,38.01-32.18c3.56-5.12,6.93-11.82,3.9-17.28
				c-2.91,3.07-6.52,5.49-10.47,7.01c2.36-3.08,3.67-6.94,3.66-10.82c0-0.8-0.09-1.66-0.64-2.24c-1.15-1.18-3.12-0.21-4.43,0.8
				c-3.93,3.01-7.85,6.01-11.78,9.02c-1.58-3.89,2.69-8.67,0.49-12.24c-1.44-2.35-4.98-2.5-7.39-1.16c-2.41,1.34-4.03,3.7-5.8,5.81
				c-11.47,13.66-30.72,17.68-44.97,28.42c-7.88,5.94-14.05,13.8-20.13,21.57c-3.48,4.45-7.04,9.07-8.47,14.53
				c-1.21,4.63-0.79,9.52-0.04,14.25c3.44,21.78,14.46,43.14,33.01,55.07c5.44,3.5,11.39,6.12,17.3,8.72
				c3.92,1.73,7.85,3.45,11.77,5.18c1.17,0.51,2.42,1.04,3.67,0.8c1.6-0.3,2.7-1.73,3.64-3.06c3.16-4.44,6.32-8.88,9.48-13.32
				l-6.74-2.49c0,0-12.33,11.01-24.67-3.08C682.27,142.16,704.18,136.62,712.61,143.36z"/>
		</g>
		<g>
			<g>
				<path class="st11" d="M724.06,113.75c0.81,0.04,1.55-0.82,2.1-1.33c0.65-0.61,1.29-1.22,1.92-1.85c1.29-1.28,2.5-2.64,3.77-3.94
					c1.23-1.26,2.49-2.5,3.82-3.66c0.69-0.6,1.4-1.17,2.14-1.7c0.78-0.56,1.49-0.99,2.05-1.79c0.48-0.67-0.31-1.36-0.96-1.25
					c-0.96,0.16-1.64,0.72-2.4,1.3c-0.74,0.56-1.46,1.15-2.16,1.76c-1.36,1.19-2.64,2.47-3.88,3.77c-1.25,1.32-2.5,2.64-3.72,3.99
					c-0.62,0.69-1.24,1.39-1.88,2.07c-0.52,0.56-1.37,1.23-1.38,2.06C723.48,113.5,723.75,113.73,724.06,113.75L724.06,113.75z"/>
			</g>
		</g>
		<g>
			<g>
				<path class="st11" d="M756.81,88.23c0.31-0.14,0.56-0.46,0.8-0.69c0.21-0.2,0.43-0.4,0.64-0.61c0.44-0.44,0.89-0.87,1.34-1.3
					c0.44-0.42,0.89-0.83,1.34-1.23c0.22-0.2,0.44-0.39,0.67-0.58c0.3-0.26,0.62-0.48,0.83-0.82c0.26-0.4,0.18-1.03-0.17-1.36
					c-0.4-0.36-0.88-0.39-1.36-0.17c-0.32,0.14-0.61,0.48-0.86,0.72c-0.23,0.21-0.46,0.42-0.68,0.64c-0.45,0.43-0.89,0.87-1.33,1.32
					c-0.42,0.44-0.83,0.88-1.24,1.34c-0.21,0.23-0.4,0.48-0.6,0.73c-0.25,0.32-0.57,0.64-0.69,1.04c-0.1,0.34,0.04,0.72,0.32,0.93
					C756.13,88.4,756.48,88.38,756.81,88.23L756.81,88.23z"/>
			</g>
		</g>
		<g>
			<g>
				<path class="st10" d="M782.63,139.98c0.92,0.05,1.83-0.04,2.72-0.27c0.43-0.11,0.85-0.26,1.27-0.43
					c0.44-0.18,0.93-0.37,1.31-0.67c0.2-0.16,0.19-0.51,0.04-0.69c-0.17-0.22-0.43-0.25-0.68-0.14c-0.19,0.09-0.37,0.23-0.56,0.33
					c-0.19,0.11-0.38,0.21-0.57,0.3c-0.35,0.17-0.72,0.31-1.09,0.42c-0.79,0.25-1.61,0.4-2.44,0.46
					C782.18,139.32,782.18,139.96,782.63,139.98L782.63,139.98z"/>
			</g>
		</g>
		<g>
			<path class="st0" d="M797.52,431.03c6.17,1.42,12.34,2.83,18.51,4.25c0.89,0.21,1.83,0.41,2.71,0.16c0.8-0.23,1.44-0.8,2.06-1.35
				c3.96-3.56,7.92-7.11,11.89-10.67c0.76-0.68,1.66-1.41,2.68-1.28c0.85,0.11,1.49,0.8,2.06,1.43c5.34,5.84,13.78,10.65,20.89,7.18
				c-0.86,4.21-5.02,7.11-9.25,7.87c-4.23,0.76-8.56-0.19-12.76-1.13c4.26,2.95,9.21,4.9,14.34,5.64c1.16,0.17,2.4,0.3,3.31,1.04
				c1.64,1.34,1.35,4.1-0.05,5.69c-1.39,1.6-3.51,2.32-5.52,2.99c0.61,1.88,1.88,3.53,3.53,4.61c-1.8,2.33-5.26,3.19-7.95,1.98
				c0.01,2.33,0.46,4.66,1.3,6.83c-3.52,0.63-7.05,1.25-10.57,1.88c-2.23,0.4-4.51,0.8-6.75,0.44c-3.62-0.57-6.62-3.01-9.58-5.17
				c-9.21-6.72-19.8-11.55-30.92-14.08"/>
		</g>
		<path class="st15" d="M689.28,205.99c-15.96-4.98-66.21,60.13-72.29,154.4c-6.08,94.27,60,101.07,103.45,102.41
			c43.45,1.34,83.14-0.83,83.14-0.83l8.6-37.27l-98.99-32.22C713.2,392.49,750.63,225.13,689.28,205.99z"/>
		<path class="st8" d="M836.3,437.48c2.58,2.77,28.23,40.72,93.64,31.14c65.42-9.58,27.75-39.32,0.66-39.98s-44.27,10.57-57.82,0
			C859.25,418.07,823.61,423.85,836.3,437.48z"/>
		<g>
			<path class="st0" d="M837.42,423.56c-0.58-0.63-1.22-1.32-2.06-1.43c-1.01-0.13-1.92,0.6-2.68,1.28c-3.01,2.7-6.02,5.4-9.03,8.11
				c1.82,0.69,3.53,1.7,5.21,2.81c2.67,1.77,5.82,1.9,8.5,3.38c3.86,0.85,7.82,1.6,11.7,0.9c4.23-0.76,8.39-3.65,9.25-7.87
				C851.21,434.21,842.76,429.4,837.42,423.56z"/>
		</g>
		<g>
			<g>
				<path class="st6" d="M939.86,448.04c0.98,0.12,1.97,0.11,2.95,0.12c0.99,0.02,1.97-0.02,2.95-0.05
					c0.66-0.02,1.34-0.46,1.49-1.14c0.15-0.64-0.08-1.44-0.71-1.75c-0.65-0.32-1.3-0.65-1.96-0.95c-0.32-0.15-0.64-0.3-0.96-0.44
					c-0.44-0.2-0.82-0.33-1.31-0.22c-0.36,0.08-0.77,0.33-0.95,0.67c-0.41,0.79-0.05,1.69,0.7,2.11c0.31,0.17,0.62,0.33,0.93,0.5
					c0.66,0.35,1.32,0.68,1.99,1.01c0.26-0.96,0.52-1.92,0.78-2.88c-1.01,0.03-2.01,0.06-3.01,0.14c-1.08,0.09-2.17,0.14-3.24,0.35
					c-0.63,0.12-1,0.83-0.92,1.41C938.69,447.61,939.21,447.96,939.86,448.04L939.86,448.04z"/>
			</g>
		</g>
		<g>
			<g>
				<path class="st16" d="M915.2,441.69c0.99-0.12,1.94-0.35,2.9-0.62c1.01-0.28,1.98-0.67,2.81-1.32c0.27-0.21,0.31-0.72,0.13-1
					c-0.2-0.31-0.57-0.47-0.93-0.38c-0.44,0.11-0.88,0.28-1.28,0.51c-0.17,0.1-0.34,0.21-0.5,0.32c-0.23,0.17-0.36,0.4-0.49,0.65
					c-0.19,0.38,0.13,0.87,0.57,0.74c0.18-0.05,0.37-0.08,0.54-0.16c0.14-0.06,0.37-0.18,0.45-0.21c0.16-0.06,0.32-0.11,0.48-0.15
					c0.08-0.02,0.17-0.04,0.25-0.05c0.1-0.02,0.11-0.02,0.04-0.01c0.06-0.01,0.11-0.01,0.17-0.02c-0.14-0.51-0.28-1.03-0.42-1.54
					c-0.79,0.43-1.54,0.94-2.35,1.33c-0.78,0.37-1.67,0.56-2.53,0.68c-0.3,0.04-0.49,0.41-0.44,0.68
					C914.63,441.42,914.89,441.72,915.2,441.69L915.2,441.69z"/>
			</g>
		</g>
		<g>
			<g>
				<path class="st11" d="M918,458.77c1.77-0.56,3.55-1.16,5.39-1.44c1.8-0.27,3.64-0.35,5.46-0.55c0-0.88,0-1.77,0-2.65
					c-1.61,0.18-3.24,0.26-4.87,0.16c-0.79-0.05-1.58-0.14-2.36-0.24c-0.73-0.09-2.05-0.26-2.05,0.86c0,0.98,1.1,1.19,1.85,1.39
					c0.81,0.22,1.63,0.34,2.46,0.44c1.65,0.2,3.31,0.23,4.97,0.05c0.71-0.08,1.32-0.55,1.32-1.32c0-0.66-0.61-1.4-1.32-1.32
					c-1.01,0.11-2,0.25-2.99,0.5c-0.97,0.25-1.91,0.57-2.86,0.89c-1.86,0.63-3.73,1.17-5.53,1.98
					C916.75,457.83,917.26,459,918,458.77L918,458.77z"/>
			</g>
		</g>
		<g>
			<path class="st11" d="M650.68,96.91c1.21-6.75-0.81-14.21-5.9-18.81c-5.09-4.6-13.3-5.72-19.03-1.95
				c-3.3,2.17-5.53,5.64-7.16,9.23c-4.98,10.99-4.18,25.72,5.35,33.12c4.99,3.88,11.89,5.17,17.95,3.35
				c6.06-1.81,11.11-6.68,13.16-12.66"/>
		</g>
		<g>
			<g>
				<path class="st11" d="M807.18,131.9c-3.5-4.6-7.01-9.2-10.51-13.8c-12.62,5.53-20.87,18.32-33.23,24.39
					c-5.85,2.87-12.34,4.1-18.78,5.03c-4.89,0.71-9.98,1.25-14.71-0.19c-4.67-1.42-8.55-4.63-12.31-7.77l-14.48-12.11l4.45,10.67
					c5.62,10.68,12.55,20.67,20.57,29.66c3.64,4.08,7.62,8.04,12.59,10.29c3.8,1.72,8,2.35,12.16,2.43
					c20.95,0.38,39.91-12.82,54.03-28.43c2.36-2.61,4.75-5.57,5.02-9.09C812.29,138.85,809.67,135.17,807.18,131.9z M795.23,137.99
					c-4.5,3.91-7.78,8.89-13.38,11.43c-1.77,0.81-4.15,0.59-5.16-1.35c-0.11-0.22-0.23-0.44-0.34-0.66
					c-0.37-0.72-0.43-1.41-0.38-2.06c-0.3-0.42-0.49-0.92-0.38-1.41c0.92-4.01,4.62-7.88,7.89-10.17c3.82-2.69,8.06-2.88,11.74,0.09
					C796.4,134.8,796.34,137.03,795.23,137.99z"/>
			</g>
		</g>
	</g>
</g>
</svg>
