<?xml version="1.0" encoding="utf-8"?>
<!-- Generator: Adobe Illustrator 26.0.1, SVG Export Plug-In . SVG Version: 6.00 Build 0)  -->
<svg version="1.1" id="Capa_1" xmlns="http://www.w3.org/2000/svg" xmlns:xlink="http://www.w3.org/1999/xlink" x="0px" y="0px"
	 viewBox="0 0 1920 1080" style="enable-background:new 0 0 1920 1080;" xml:space="preserve">
<style type="text/css">
	.st0{opacity:0.5;clip-path:url(#XMLID_00000054260865734421867950000005282233899374135428_);fill:#804000;}
	.st1{fill:#FFA64D;}
	.st2{opacity:0.5;fill:#FFA64D;}
	.st3{opacity:0.5;clip-path:url(#XMLID_00000132051382041656951180000012111550634839625404_);fill:#FFA64D;}
	.st4{opacity:0.3;clip-path:url(#XMLID_00000132051382041656951180000012111550634839625404_);fill:#FFA64D;}
	.st5{opacity:0.3;clip-path:url(#XMLID_00000109719268287540868910000008900300799076299702_);fill:#804000;}
	.st6{fill:#CC6600;}
	.st7{fill:#00D9AA;}
	.st8{opacity:0.5;clip-path:url(#XMLID_00000039813043010762859270000018346302838866365330_);fill:#804000;}
	.st9{opacity:0.5;clip-path:url(#XMLID_00000153691674713464832000000011324633693532555161_);fill:#804000;}
	.st10{opacity:0.3;clip-path:url(#XMLID_00000007418788640280377850000017035011087041731746_);fill:#CC6600;}
	.st11{fill:#804000;}
	.st12{fill:#FFC994;}
	.st13{opacity:0.4;clip-path:url(#XMLID_00000133504841223737863830000009601357073372850362_);fill:#FFA64D;}
	.st14{opacity:0.5;clip-path:url(#XMLID_00000090996617955846712470000001062237339615695287_);fill:#FFC994;}
	.st15{clip-path:url(#XMLID_00000096017142866754648020000010670312607261821847_);}
	.st16{fill:#FFFFFF;}
	.st17{clip-path:url(#XMLID_00000096017142866754648020000010670312607261821847_);fill:#FFFFFF;}
	.st18{clip-path:url(#XMLID_00000134954199778028282580000005421276085389580182_);fill:#FFFFFF;}
	.st19{clip-path:url(#XMLID_00000134954199778028282580000005421276085389580182_);}
	.st20{opacity:0.5;clip-path:url(#XMLID_00000072983858411033614400000009496291170852015274_);}
	.st21{fill:#008064;}
	.st22{opacity:0.3;clip-path:url(#XMLID_00000072983858411033614400000009496291170852015274_);fill:#008064;}
	.st23{opacity:0.5;clip-path:url(#XMLID_00000091735624727468356990000002499600516927662744_);fill:#FFC994;}
	.st24{opacity:0.5;fill:#00D9AA;}
	.st25{opacity:0.5;clip-path:url(#XMLID_00000156565089649441553340000005084634535577077644_);fill:#FFC994;}
	.st26{opacity:0.5;}
	.st27{opacity:0.8;clip-path:url(#XMLID_00000057148767941767453730000013140889934503954879_);}
	.st28{opacity:0.4;clip-path:url(#XMLID_00000086690992753939687910000000310108791043764384_);fill:#FFA64D;}
	.st29{clip-path:url(#XMLID_00000060709945213661959530000004215943619857600442_);fill:#008064;}
	.st30{clip-path:url(#XMLID_00000011720544446735166330000001472799294126308021_);fill:#008064;}
	.st31{opacity:0.5;fill:#FFC994;}
	.st32{fill:#D4FFF4;}
</style>
<g>
	<g>
		<g>
			<g>
				<defs>
					<path id="XMLID_92_" d="M872.47,918.4c0,0-27.74,8.03-44.07-25.5c0,0,2.57,3.93,9.34,6.6c0,0-6.27-4.33-10.35-16.9
						c0,0,2.28,4.16,8.67,7.44c0,0-8.92-9.46-9.7-21.86c0,0,2.73,3.89,8.7,7.6c0,0-6.7-15.96-2.98-28.3c0,0,15.32,49.6,42.22,55.35
						C874.3,902.85,874.96,914.76,872.47,918.4z"/>
				</defs>
				<use xlink:href="#XMLID_92_"  style="overflow:visible;fill:#804000;"/>
				<clipPath id="XMLID_00000081624578168646309970000018405660225240948378_">
					<use xlink:href="#XMLID_92_"  style="overflow:visible;"/>
				</clipPath>
				<path style="opacity:0.5;clip-path:url(#XMLID_00000081624578168646309970000018405660225240948378_);fill:#804000;" d="
					M829.61,902.7c9.7,6.72,21.19,7.06,32.27,8.56c4.32,0.58,15.33-0.62,10.45,7.22c-6.62,10.65-23.68,3.72-30.8-2.04
					c-4.52-3.65-8.47-7.9-11.59-12.48"/>
			</g>
			<g>
				<path class="st1" d="M886.57,884.99c0,0-25.34,12.37-21.55,55.48c0,0,4.66,34.81,27.96,36.12
					C892.98,976.59,927.02,927.88,886.57,884.99z"/>
				<path class="st2" d="M886.57,884.99c0,0-25.34,12.37-21.55,55.48c0,0,4.66,34.81,27.96,36.12
					C892.98,976.59,927.02,927.88,886.57,884.99z"/>
			</g>
		</g>
		<g>
			<g>
				<defs>
					<path id="XMLID_91_" d="M892.51,907.52c0,0-8.1,24.4-16.71,28.75c0,0,2.53,2.23,6.28-0.1c0,0-7.9,13.77-7.69,15.9
						c0,0,5.47-5.67,9.11-8c0,0-0.87,38.61,15.37,75.08c0,0,3.09,8.36,7.58,8.44c0,0,4.15,0.26,1.78-11.77
						c0,0,3.13,11.69,5.84,12.11c0,0,3.81,2.2,2.54-9.24c0,0,1.87,11.18,5.42,10.25c0,0,7.67-2.45,2.18-60.89
						c0,0,9.39,1.43,18.15-0.95c0,0,37.95-2.63,37.7-20.17c0,0,1.5-10.97-3.93-20.48c0,0,4.67-0.92,7.67,2.87
						c0,0-2.03-6.21-6.25-8.8c0,0,2.91,0.07,6.52-1c0,0-14.09-5.51-17.84-19.37C966.21,900.16,916.16,915.79,892.51,907.52z"/>
				</defs>
				<use xlink:href="#XMLID_91_"  style="overflow:visible;fill:#FFA64D;"/>
				<clipPath id="XMLID_00000037673403148728262920000017647978999064482472_">
					<use xlink:href="#XMLID_91_"  style="overflow:visible;"/>
				</clipPath>
				<path style="opacity:0.5;clip-path:url(#XMLID_00000037673403148728262920000017647978999064482472_);fill:#FFA64D;" d="
					M891.58,1004.5c1.36,2.84,3.57,5.63,6.92,7.23c1.81,0.86,6.01,2.78,5.68-0.98c2.12,2.49,10.03,8,11.92,2.85
					c3.37,4.54,8.43,3.91,12.54,1.12c3.04,5.87,4.95,12.98,0.31,18.39c-4.84,5.64-14.76,8.4-21,3.49
					c-9.03-7.1-11.47-20.6-14.74-30.47"/>
				<path style="opacity:0.3;clip-path:url(#XMLID_00000037673403148728262920000017647978999064482472_);fill:#FFA64D;" d="
					M891.79,909.4c12.63,12.28,25.55,18.55,42.7,13.3c11-3.37,28.95-10.37,30.94-23.29c-6.45-0.88-12.08,4.21-17.43,7.05
					c-6.74,3.59-15.61,5.38-23.13,6.6c-7.33,1.19-13.89,0.28-20.62-1.48c-3.11-0.81-9.7-1.25-11.62-3.86"/>
			</g>
			<g>
				<defs>
					<path id="XMLID_90_" d="M942.56,983.27c-4.92-1.82-9.71-18.86,1.27-38.86c0,0,11.18-16.33,26.32-13.07
						c0,0,17.32,6.62,4.45,34.33c0,0-7.41,17.2-12.86,20.46c-5.44,3.26-3.32-11.67-3.32-11.67s-2.6,11.74-6.88,10.6
						c-4.29-1.14-0.79-12.77-0.79-12.77S947.48,985.1,942.56,983.27z"/>
				</defs>
				<use xlink:href="#XMLID_90_"  style="overflow:visible;fill:#804000;"/>
				<clipPath id="XMLID_00000160185034601141075300000003181651213547802528_">
					<use xlink:href="#XMLID_90_"  style="overflow:visible;"/>
				</clipPath>
				<path style="opacity:0.3;clip-path:url(#XMLID_00000160185034601141075300000003181651213547802528_);fill:#804000;" d="
					M934.18,968.11c0.72,2.96,3.19,6.71,7.13,6.12c3.52-0.53,4.51-4.38,6.79-6.78c2.92,2.09,7.04,8.3,10.2,2.35
					c4.52,4.29,10.3,4.28,16.1,2.04c6.07,15.21-16.73,24.51-28.33,20.28c-6.9-2.51-11.59-4.14-13.01-11.91
					c-0.63-3.48,0.15-7.84-0.1-10.47"/>
			</g>
			<path class="st6" d="M921.39,922.17c0-4.55,3.7-8.25,8.25-8.25c4.55,0,8.25,3.7,8.25,8.25c0,4.55-3.69,8.25-8.25,8.25
				C925.09,930.42,921.39,926.72,921.39,922.17z"/>
			<path class="st7" d="M894.81,896.52c0,0-11.27,10.73-0.59,14.71c0,0,38.46,17.17,72.48-9.84c0,0,3.93-11.83-8.45-13.48
				C958.25,887.9,940.76,911.29,894.81,896.52z"/>
		</g>
		<g>
			<path class="st1" d="M929.61,911.48c-15.52,0.76-49.53,2.64-50.97-48.38c0,0-2.81-41.92,31.63-50.8c0,0,10.68-6.13,14.99-18.14
				c0,0-0.65,12.67-3.13,16.98c0,0,14.1-10.97,16.72-15.81c0,0-1.46,10.21-5.24,15.3c0,0,20.48,1.55,31.71,19.18
				c0,0,14.12,39.57-7.2,66.75C958.12,896.56,946.75,910.65,929.61,911.48z"/>
			<g>
				<defs>
					<path id="XMLID_89_" d="M854.07,871.82c0,0,5.76-31.59,35.2-47.24c0,0,3.12,40.79-5.67,52.61
						C874.79,889,851.9,882.02,854.07,871.82z"/>
				</defs>
				<use xlink:href="#XMLID_89_"  style="overflow:visible;fill:#804000;"/>
				<clipPath id="XMLID_00000158716099899395448730000011100578189198455484_">
					<use xlink:href="#XMLID_89_"  style="overflow:visible;"/>
				</clipPath>
				<path style="opacity:0.5;clip-path:url(#XMLID_00000158716099899395448730000011100578189198455484_);fill:#804000;" d="
					M854.11,859.68c0.88,4.24,2.33,9.45,6.59,11.7c4.49,2.37,10.04,0.89,14.38-1.09c4.45-2.04,8.81-4.71,13.26-6.61
					c4.49-1.92,4.69,0.86,3.46,5.11c-3.11,10.71-17.47,23.77-29.46,20.02c-4.21-1.31-10.3-7.82-11.33-12.03
					c-0.77-3.15-1.65-9.99-0.37-13.02c0.87-2.05,3.34-3.95,5.35-2.82"/>
			</g>
			<g>
				<defs>
					<path id="XMLID_88_" d="M1002.12,855.74c0,0-13.51-29.14-45.93-36.9c0,0,7.21,40.27,18.7,49.5
						C986.37,877.56,1006.78,865.06,1002.12,855.74z"/>
				</defs>
				<use xlink:href="#XMLID_88_"  style="overflow:visible;fill:#804000;"/>
				<clipPath id="XMLID_00000108267005046524760370000010407254651408757916_">
					<use xlink:href="#XMLID_88_"  style="overflow:visible;"/>
				</clipPath>
				<path style="opacity:0.5;clip-path:url(#XMLID_00000108267005046524760370000010407254651408757916_);fill:#804000;" d="
					M960.25,844.61c2.68,5.54,9.95,8.86,15.7,9.73c5.51,0.83,11.1-0.12,16.58-0.63c3.33-0.31,9.08-1.36,12,0.33
					c5.18,2.98,3.03,9.43,0.31,13.18c-7.42,10.23-23.72,14.75-32.43,3.78c-2.79-3.51-5.01-7.82-6.6-11.95
					c-0.61-1.61-1.69-3.43-2.14-5.01c-0.39-1.41,0.31-2.42-0.6-3.77"/>
			</g>
			<g>
				<defs>
					<path id="XMLID_87_" d="M926.43,874.7c-3.95,0.95-9.45-7.26-8.34-10.61c3.07-5.29,12.9-5.72,15.2-1.11
						C935.36,865.04,930.38,873.76,926.43,874.7z"/>
				</defs>
				<use xlink:href="#XMLID_87_"  style="overflow:visible;fill:#CC6600;"/>
				<clipPath id="XMLID_00000059305974353880463290000002202121033218671531_">
					<use xlink:href="#XMLID_87_"  style="overflow:visible;"/>
				</clipPath>
				<path style="opacity:0.3;clip-path:url(#XMLID_00000059305974353880463290000002202121033218671531_);fill:#CC6600;" d="
					M929.79,874.28c-2.86,2.73-7.25,1.37-9.58-1.41c-1.02-1.21-3.22-2.79-3.29-4.56c-0.09-2.18,1.77-0.86,2.99-0.12
					c2.93,1.78,5.62,1.22,8.79,0.12c2.05-0.72,7.01-2.86,5.82,1.57c-0.49,1.83-4.15,6.48-6.29,5.96"/>
			</g>
			<path class="st11" d="M909.1,858.59c0-1.81,1.47-3.28,3.28-3.28c1.81,0,3.27,1.47,3.27,3.28c0,1.81-1.47,3.27-3.27,3.27
				C910.57,861.86,909.1,860.4,909.1,858.59z"/>
			<path class="st11" d="M935.66,855.59c0-1.81,1.47-3.27,3.28-3.27c1.81,0,3.28,1.46,3.28,3.27c0,1.81-1.47,3.28-3.28,3.28
				C937.13,858.87,935.66,857.4,935.66,855.59z"/>
			<path class="st12" d="M916.52,887.43c0,0,0.07,19.51,13.65,18.19c0,0,10.04-0.49,7.53-19.85c0,0-10.24-2.79-11.5-10.03
				C926.2,875.73,924.32,885.2,916.52,887.43z"/>
			<g>
				<path class="st11" d="M927.8,896.49c-0.32,0-0.6-0.25-0.63-0.58l-1.46-18.54c-0.03-0.35,0.23-0.65,0.58-0.67
					c0.31-0.04,0.65,0.23,0.68,0.57l1.46,18.54c0.03,0.35-0.23,0.65-0.58,0.68C927.84,896.49,927.82,896.49,927.8,896.49z"/>
			</g>
			<g>
				<path class="st11" d="M910.03,889.98c-5.04-0.15-8.9-1.71-11.52-4.65c-4.08-4.58-3.59-10.79-3.57-11.05
					c0.05-0.52,0.52-0.9,1.02-0.85c0.52,0.04,0.9,0.5,0.85,1.02c0,0.05-0.43,5.68,3.11,9.65c2.26,2.53,5.66,3.87,10.12,4
					c0.51-0.01,13.33-0.34,15.21-12.8c0.06-0.43,0.41-0.76,0.84-0.8c0.44-0.03,0.84,0.22,0.98,0.63c0.18,0.5,4.55,12.37,16.86,8.68
					c0.38-0.11,9.34-2.9,9.58-13.96c0.01-0.51,0.43-0.92,0.94-0.92c0,0,0.01,0,0.02,0c0.52,0.01,0.93,0.44,0.92,0.97
					c-0.28,12.46-10.82,15.69-10.93,15.73c-10.24,3.04-15.72-3.54-17.95-7.37C923.06,889.68,910.17,889.98,910.03,889.98z"/>
			</g>
		</g>
	</g>
	<g>
		<g>
			<defs>
				<path id="XMLID_86_" d="M1199.7,92.97c0,0,6.55-8.43,19.59-7.95c0,0,41.15-1.44,43.15,45.39c0,0,0.66,11.55-4.93,25.03
					c0,0-4.19,18.28-3.14,29.57c0,0,3.2,26.51-20.28,29.7c0,0-40.84,4.43-48.98-55.78C1185.12,158.93,1177.47,120.11,1199.7,92.97z"
					/>
			</defs>
			<use xlink:href="#XMLID_86_"  style="overflow:visible;fill:#FFA64D;"/>
			<clipPath id="XMLID_00000033342134588042999620000005850942836309870495_">
				<use xlink:href="#XMLID_86_"  style="overflow:visible;"/>
			</clipPath>
			<path style="opacity:0.4;clip-path:url(#XMLID_00000033342134588042999620000005850942836309870495_);fill:#FFA64D;" d="
				M1241.2,119.8c4.43,5.62,8.8,10.47,11.04,17.38c2.11,6.51,2.43,12.31,1.51,19.05c-1.15,8.51-1.85,17.18-3.13,25.7
				c-0.66,4.35-1.36,8.06-3.15,12.03c-0.92,2.04-1.64,4.52-3.17,6.19c-2.22,2.44-5.52,4.8-8.33,6.4c-3.47,1.97-6.31,1.73-10.3,1.55
				c-5.46-0.25-7.9-0.68-9.59-6.46c-5.02-17.16,0.77-34.96,6.75-51.1c3.19-8.62,7.53-17.33,13.31-24.5c1.77-2.19,3.46-4.2,5.49-5.19
				"/>
		</g>
		<g>
			<defs>
				<path id="XMLID_85_" d="M1234.04,199.03c0,0-7.47,40.83,12.5,41.99c0,0,22.92,2.32,35.16,5.8c0,0-11.76,41.98-74.06,27.82
					c-2.84-0.65-27.18-3.22-46.88-19.84c0,0,32.97-8.5,35.81-14.3c0,0,2.45-19.19-0.9-31.17L1234.04,199.03z"/>
			</defs>
			<use xlink:href="#XMLID_85_"  style="overflow:visible;fill:#FFC994;"/>
			<clipPath id="XMLID_00000086661198404478087820000010202459894598263712_">
				<use xlink:href="#XMLID_85_"  style="overflow:visible;"/>
			</clipPath>
			<path style="opacity:0.5;clip-path:url(#XMLID_00000086661198404478087820000010202459894598263712_);fill:#FFC994;" d="
				M1241.62,199.15c-1.62,1.7-4.48,2.24-6.64,2.98c-3.78,1.3-7.45,2.88-11.32,3.94c-5.49,1.49-11.03,2.8-16.64,3.71
				c-6.56,1.06-16.13,4.19-14.19,12.66c0.69,3.02,4.09,4.3,6.71,5.4c3.75,1.57,7.43,3.18,11.31,4.39
				c6.53,2.05,12.76,4.42,19.73,3.99c12.98-0.79,20.31-13.39,14.6-25.18c-1.44-2.97-5.17-10.27-9.21-10.42"/>
		</g>
		<g>
			<g>
				<path class="st1" d="M1196.31,1015.98l0.85,8.71c0,0,37.43,7.42,54.76-2.42l-0.39-9.48
					C1251.53,1012.79,1215.11,1016.47,1196.31,1015.98z"/>
				<path class="st12" d="M1210.26,934.61c0,0-8.05,7.16,0.72,26.12c0,0,20.22,2.32,25.22-1.25c0,0,0.35-16.82-4.11-28.26
					L1210.26,934.61z"/>
				<g>
					<defs>
						<path id="XMLID_84_" d="M1210.46,964.78c0,0,0.52,14.58-7.22,24.96c0,0-8.27,13.66-6.96,26.53c0,0,32.83,8.93,54.89-2.89
							c0,0,0.92-10.38-6.57-28.5c0,0-9.06-21.93-9.72-28.37c0,0-1.31-7.48-12.47-5.77C1222.41,950.73,1206.52,949.94,1210.46,964.78
							z"/>
					</defs>
					<use xlink:href="#XMLID_84_"  style="overflow:visible;fill:#CC6600;"/>
					<clipPath id="XMLID_00000100344849027003604220000004048659859852093831_">
						<use xlink:href="#XMLID_84_"  style="overflow:visible;"/>
					</clipPath>
					<g style="clip-path:url(#XMLID_00000100344849027003604220000004048659859852093831_);">
						<path class="st16" d="M1214.53,980.35c-0.48,0-0.93-0.28-1.14-0.74c-0.29-0.63-0.01-1.37,0.63-1.66
							c0.49-0.23,12.16-5.46,20.21-1.85c0.63,0.28,0.91,1.02,0.63,1.66c-0.28,0.63-1.03,0.92-1.66,0.63
							c-6.99-3.13-18.03,1.79-18.14,1.84C1214.88,980.31,1214.7,980.35,1214.53,980.35z"/>
					</g>
					<g style="clip-path:url(#XMLID_00000100344849027003604220000004048659859852093831_);">
						<path class="st16" d="M1211.64,989.54c-0.49,0-0.97-0.29-1.16-0.77c-0.27-0.64,0.04-1.38,0.68-1.64
							c0.78-0.32,19.35-7.83,27.34-0.42c0.5,0.47,0.54,1.27,0.06,1.78c-0.47,0.51-1.26,0.54-1.77,0.07
							c-6.81-6.33-24.49,0.83-24.67,0.9C1211.96,989.51,1211.8,989.54,1211.64,989.54z"/>
					</g>
					<path style="clip-path:url(#XMLID_00000100344849027003604220000004048659859852093831_);fill:#FFFFFF;" d="M1203.29,1018.11
						c0,0-0.56-15.03,21.13-15.79c0,0,17.87-0.34,17.93,14.7C1242.35,1017.02,1228.21,1023.06,1203.29,1018.11z"/>
				</g>
			</g>
			<g>
				<path class="st1" d="M1232.37,857.2c0,0,0.51,0.82,0.67,2.31c1.44,13.31,27.95,26.41,33.7-2.68l0.72-7.32
					C1267.46,849.5,1251.16,857.68,1232.37,857.2z"/>
				<g>
					<defs>
						<path id="XMLID_83_" d="M1232.25,856.66c0,0,2.87,16.3,17.37,14.86c0,0,17.19-1.07,17.73-19.7c0,0,1.43-24.36-1.61-40.12
							l-39.76,7.34L1232.25,856.66z"/>
					</defs>
					<use xlink:href="#XMLID_83_"  style="overflow:visible;fill:#CC6600;"/>
					<clipPath id="XMLID_00000025428183856379515230000014022749282491293596_">
						<use xlink:href="#XMLID_83_"  style="overflow:visible;"/>
					</clipPath>
					<path style="clip-path:url(#XMLID_00000025428183856379515230000014022749282491293596_);fill:#FFFFFF;" d="M1233.15,870.63
						c0,0,9.67-19.7,35.81-5.2C1268.96,865.43,1257.14,882.09,1233.15,870.63z"/>
					<g style="clip-path:url(#XMLID_00000025428183856379515230000014022749282491293596_);">
						<path class="st16" d="M1239.95,845.38c-0.63,0-1.18-0.49-1.25-1.13c-0.07-0.69,0.43-1.3,1.12-1.37l18.09-1.79
							c0.69-0.05,1.31,0.43,1.37,1.13c0.07,0.69-0.43,1.3-1.13,1.37l-18.08,1.78C1240.03,845.38,1239.99,845.38,1239.95,845.38z"/>
					</g>
					<g style="clip-path:url(#XMLID_00000025428183856379515230000014022749282491293596_);">
						<path class="st16" d="M1239.37,836.43c-0.64,0-1.19-0.49-1.25-1.14c-0.07-0.69,0.43-1.3,1.12-1.37l18.09-1.79
							c0.72-0.03,1.31,0.44,1.37,1.13c0.07,0.69-0.44,1.3-1.13,1.37l-18.08,1.78C1239.46,836.42,1239.42,836.43,1239.37,836.43z"/>
					</g>
				</g>
			</g>
			<g>
				<defs>
					<path id="XMLID_82_" d="M1164.03,423.35c0,0-64.55,81.55-6.31,319.52c0,0-1.2,18.64-1.84,33.42c0,0-1.23,66.62,51.49,164.64
						c0,0,14.55,4.09,26.02-2.88c0,0,2.71-53.79-0.1-98.78c0,0,47.52-0.21,52.11-80.77c0,0-1.09-41.06-6.15-59.68
						c0,0,38.31-187.67-23.57-284.09L1164.03,423.35z"/>
				</defs>
				<use xlink:href="#XMLID_82_"  style="overflow:visible;fill:#008064;"/>
				<clipPath id="XMLID_00000161591451993541406480000005318874651782949045_">
					<use xlink:href="#XMLID_82_"  style="overflow:visible;"/>
				</clipPath>
				<g style="opacity:0.5;clip-path:url(#XMLID_00000161591451993541406480000005318874651782949045_);">
					<path class="st21" d="M1147.4,471.3c-0.48,0-0.94-0.27-1.15-0.74c-0.29-0.63-0.01-1.37,0.62-1.66
						c0.26-0.12,26.13-12.03,30.02-28.04c0.16-0.67,0.83-1.09,1.52-0.92c0.67,0.17,1.08,0.85,0.92,1.52
						c-4.19,17.19-30.32,29.22-31.43,29.73C1147.75,471.27,1147.57,471.3,1147.4,471.3z"/>
				</g>
				<g style="opacity:0.5;clip-path:url(#XMLID_00000161591451993541406480000005318874651782949045_);">
					<path class="st21" d="M1269.27,472.12c-0.18,0-0.35-0.04-0.52-0.11c-17.72-8.13-24.17-28.38-24.44-29.24
						c-0.21-0.66,0.17-1.36,0.83-1.57c0.67-0.2,1.37,0.17,1.58,0.83c0.06,0.2,6.4,20.05,23.09,27.7c0.63,0.29,0.91,1.04,0.62,1.67
						C1270.21,471.85,1269.75,472.12,1269.27,472.12z"/>
				</g>
				<g style="opacity:0.5;clip-path:url(#XMLID_00000161591451993541406480000005318874651782949045_);">
					<path class="st21" d="M1209.26,510.84c-0.49,0-0.96-0.29-1.16-0.78c-5.14-12.66-27.06-30.66-27.28-30.84
						c-0.54-0.44-0.62-1.23-0.18-1.77c0.44-0.54,1.23-0.62,1.77-0.18c0.92,0.75,22.63,18.58,28.02,31.84
						c0.26,0.64-0.05,1.38-0.69,1.64C1209.58,510.81,1209.42,510.84,1209.26,510.84z"/>
				</g>
				<g style="opacity:0.5;clip-path:url(#XMLID_00000161591451993541406480000005318874651782949045_);">
					<path class="st21" d="M1210.9,516.99c-0.48,0-0.94-0.27-1.15-0.74c-4.08-8.94-26.88-21.42-27.11-21.54
						c-0.61-0.33-0.84-1.1-0.5-1.71c0.33-0.61,1.1-0.83,1.7-0.5c0.97,0.52,23.77,13.01,28.2,22.7c0.29,0.63,0.01,1.38-0.62,1.67
						C1211.25,516.95,1211.07,516.99,1210.9,516.99z"/>
				</g>
				<g style="opacity:0.5;clip-path:url(#XMLID_00000161591451993541406480000005318874651782949045_);">
					<path class="st21" d="M1219.91,512.89c-0.46,0-0.9-0.25-1.12-0.69c-0.32-0.62-0.07-1.38,0.55-1.69
						c0.28-0.14,28.3-14.37,34.75-18.19c0.6-0.35,1.37-0.16,1.72,0.44c0.36,0.6,0.16,1.37-0.43,1.72
						c-6.52,3.87-33.74,17.68-34.9,18.27C1220.3,512.84,1220.1,512.89,1219.91,512.89z"/>
				</g>
				<g style="opacity:0.5;clip-path:url(#XMLID_00000161591451993541406480000005318874651782949045_);">
					<path class="st21" d="M1232.58,827.35c-0.64,0-1.19-0.49-1.25-1.15c-1.68-20.21-10.27-93.74-10.38-95.95
						c-3.89-74.61-8.88-204.81-8.93-206.12c-0.03-0.69,0.51-1.28,1.21-1.3c0.66,0.04,1.28,0.51,1.3,1.21
						c0.05,1.31,5.08,131.49,8.92,206.01c0.16,1.39,8.91,78.19,10.39,95.94c0.06,0.69-0.45,1.3-1.15,1.36
						C1232.65,827.34,1232.62,827.35,1232.58,827.35z"/>
				</g>
				<path style="opacity:0.3;clip-path:url(#XMLID_00000161591451993541406480000005318874651782949045_);fill:#008064;" d="
					M1135.9,442.83c2.79,2.37,9.73,3.34,13.4,4.09c5.01,1.02,9.82,1.39,14.88,1.76c9.44,0.68,18.76,0.88,28.25,1.26
					c16.6,0.66,35.75,3.98,52.24,0.53c16.51-3.46,42.08-16.84,33.91-36.84c-2.42-5.92-4.86-11.97-10.45-15.64
					c-7.12-4.67-15.5-3.73-23.59-3.73c-19.71,0-39.71,3.41-58.83,8.27c-15.85,4.03-33.49,10.66-44.67,23.22
					c-3.07,3.45-9.57,15.39-3.04,18.33"/>
				<path style="opacity:0.3;clip-path:url(#XMLID_00000161591451993541406480000005318874651782949045_);fill:#008064;" d="
					M1290.82,722.1c-0.96-15.62-29.27-26.11-42.71-22.65c-13.01,3.35-18.2,24.21-20.09,35.84c-2.35,14.36-0.5,30.92,0.65,47.1
					c0.94,13.36,0.6,51.88,7.72,64.27c7.31,12.73,25.84-16.36,35.17-24.91c11.13-10.2,14.57-29.12,18.43-43.31
					c2.65-9.74,12.46-60.58-5.03-63.87"/>
			</g>
		</g>
		<g>
			<g>
				<g>
					<defs>
						<path id="XMLID_81_" d="M1111.55,310.36l-28.58,89.97c0,0-46.57,78.33-55.39,128.43l13.05,11.29c0,0,57.87-91.38,73.04-117.49
							l31.75-68.45L1111.55,310.36z"/>
					</defs>
					<use xlink:href="#XMLID_81_"  style="overflow:visible;fill:#FFC994;"/>
					<clipPath id="XMLID_00000125567588392440645370000003401048225950901151_">
						<use xlink:href="#XMLID_81_"  style="overflow:visible;"/>
					</clipPath>
					<path style="opacity:0.5;clip-path:url(#XMLID_00000125567588392440645370000003401048225950901151_);fill:#FFC994;" d="
						M1109.1,308.56c-3.47,5.15-12.57,8.15-13.41,14.22c-1.14,8.18,12.31,16.01,16.99,20.95c8.47,8.91,16.08,35.86,32.39,35.17
						c19.45-0.83,12.13-44.09,2.39-53.61c-10.81-10.56-25.73-18.87-40.87-20.07"/>
				</g>
				<path class="st1" d="M1030.99,636.06c0,0,10.53-23.43,12-35.35l-7.19,0.16C1035.8,600.87,1032.15,629.48,1030.99,636.06z"/>
				<g>
					<path class="st7" d="M1029.13,607.81c0,0,14.5,2.19,19.17-15.35c0,0,5.37-15.25-3.95-15.84l-12.81,5.82L1029.13,607.81z"/>
					<path class="st24" d="M1029.13,607.81c0,0,14.5,2.19,19.17-15.35c0,0,5.37-15.25-3.95-15.84l-12.81,5.82L1029.13,607.81z"/>
				</g>
				<path class="st7" d="M1025.02,529.42c0,0-3.1-13.83,5.77-6.43c0,0,22.95,13.22,17.14,20.63l-6.82,0.58c0,0-0.29,9.29-4.36,14.23
					c0,0,5.37,0.87,6.4,14.23c0,0-0.09,11.68-1.49,17.52c-1.41,5.85-2.12,7.94-4.14,5.88c-2.03-2.07-1.7-7.36-4.05-13.21
					c-2.36-5.86-5.62-10.12-5.62-10.12s-4.15,8.11-5.36,16.69c-1.21,8.59,1.17,14.52,0.79,17.57c-2.67-1.16-8.12-5.5-11.41-20.84
					C1010.22,578.61,1004.66,560.35,1025.02,529.42z"/>
				<path class="st1" d="M1030.99,635.48c0,0-17.32-43.27-3.17-62.75c0,0,4.3,5.17,5.64,10.04
					C1033.46,582.77,1025.24,609.24,1030.99,635.48z"/>
				<g>
					<path class="st11" d="M981.06,909.27c-12.53,0-22.81-8.63-22.95-8.75c-0.33-0.29-0.38-0.8-0.11-1.14
						c0.27-0.35,0.76-0.4,1.1-0.11c0.18,0.15,17.85,14.97,34.68,4.79c0.53-0.24,43.66-21.96,36.56-268.93
						c-0.01-0.45,0.32-0.83,0.76-0.84c0.44,0.01,0.78,0.34,0.8,0.79c7.15,248.92-35.62,269.68-37.44,270.44
						C989.94,908.25,985.37,909.27,981.06,909.27z"/>
				</g>
			</g>
			<g>
				<g>
					<defs>
						<path id="XMLID_80_" d="M1288.87,347.69c0,0,36.43,85.46,41.72,104.98c0,0,7.13,70.68,20.72,112.8l21.69-0.65
							c0,0-3.4-96.21-7.65-122.59c0,0-33.55-113.8-48.78-144.62L1288.87,347.69z"/>
					</defs>
					<use xlink:href="#XMLID_80_"  style="overflow:visible;fill:#FFC994;"/>
					<clipPath id="XMLID_00000018926959360447336870000016737285414329916607_">
						<use xlink:href="#XMLID_80_"  style="overflow:visible;"/>
					</clipPath>
					<path style="opacity:0.5;clip-path:url(#XMLID_00000018926959360447336870000016737285414329916607_);fill:#FFC994;" d="
						M1284.96,359.51c6.23-0.54,16.32-10.26,22.42-14.24c6.86-4.47,14.95-10.03,19.7-16.79c6.67-9.5,5.9-18.78-6.09-23.2
						c-14.22-5.23-22.96,7.48-29.29,18.4c-4.6,7.95-11.25,26.75-7.58,35.82"/>
				</g>
				<path class="st7" d="M1351.79,594.77c-0.25-0.06-2.69-0.09-3.45,4.54c0,0-4.61-5.75-6.14,3.98c0,0-3.96,34.59,18.02,29.94
					C1360.22,633.24,1363.64,597.41,1351.79,594.77z"/>
				<path class="st24" d="M1351.79,594.77c-0.25-0.06-2.69-0.09-3.45,4.54c0,0-4.61-5.75-6.14,3.98c0,0-3.96,34.59,18.02,29.94
					C1360.22,633.24,1363.64,597.41,1351.79,594.77z"/>
				<g>
					<path class="st21" d="M1336.3,687.26c0,0,2.93-62.83,19.89-77c0,0,30.62-28.22,43.4,34.33l-4.01,11.29l-3.42-8.04l-4.64,2.14
						c0,0,0.21-20.94-9.94-30.03c0,0-14.8-6.96-20.08,16.05c0,0-8.21,45.78-1.5,61.65c0,0-9.84-3.12-11.09-6.1
						C1344.92,691.55,1339.49,688.07,1336.3,687.26z"/>
					<g class="st26">
						<path class="st21" d="M1345.26,685.41c-0.32,0-0.59-0.24-0.63-0.57c-1.5-15.59,4.31-42.91,4.37-43.18
							c0.07-0.34,0.39-0.56,0.74-0.48c0.34,0.07,0.55,0.41,0.49,0.74c-0.06,0.27-5.84,27.4-4.35,42.8c0.04,0.35-0.22,0.65-0.56,0.69
							C1345.3,685.41,1345.28,685.41,1345.26,685.41z"/>
					</g>
					<g class="st26">
						<path class="st21" d="M1390.55,643.88c-0.31,0-0.57-0.22-0.62-0.54c-1.05-7.28-5.83-18.06-5.88-18.16
							c-0.14-0.32,0-0.69,0.32-0.83c0.31-0.14,0.69,0,0.83,0.32c0.2,0.44,4.9,11.05,5.98,18.49c0.05,0.35-0.19,0.66-0.53,0.71
							C1390.61,643.88,1390.58,643.88,1390.55,643.88z"/>
					</g>
				</g>
				<g class="st26">
					<path class="st7" d="M1348.8,601.94c0,0,1.19,4.62,1.75,7.8"/>
					<path class="st21" d="M1350.55,610.37c-0.3,0-0.56-0.21-0.62-0.52c-0.55-3.12-1.73-7.71-1.74-7.76
						c-0.09-0.33,0.11-0.68,0.45-0.77c0.34-0.08,0.68,0.12,0.77,0.45c0.01,0.05,1.21,4.68,1.76,7.86c0.06,0.34-0.17,0.66-0.51,0.72
						C1350.62,610.37,1350.59,610.37,1350.55,610.37z"/>
				</g>
				<path class="st7" d="M1341.08,561.77c0,0-2.75-7.37,14.15-8.77c0,0,23.69-4.46,24.15,4.22c0,0,0.91,5.28-4.65,6.05
					c0,0,13.79,34.72,7.28,57.82c0,0-7.26,13.74-24.13,15.01c0,0-3.12-17.45-0.81-29.81c0,0-11.32-14.67-9.71-34.89l1.04-6
					C1348.41,565.39,1342.02,565.4,1341.08,561.77z"/>
			</g>
			<g>
				<defs>
					<path id="XMLID_79_" d="M1089.72,321.05c0,0,26.82-36.59,35.84-52.94c0,0,10.7-13.54,40.23-16.48c0,0,56.57,38.29,112.89-9.35
						c0,0,13.29-1.01,26,16.02c0,0,19.79,31.2,30.68,36.57c0,0-23.2,27.66-33.43,34.34c0,0-14.35,89.14-43.11,97.86
						c0,0-29.69,4.22-34.02,6.92c0,0-15.68,1.67-32.64-5.96c0,0-6.7-1.6-12.91,2.14c0,0-36.46,11.59-44.64-46.87l-5.79-42.88
						C1128.81,340.44,1101.75,325.99,1089.72,321.05z"/>
				</defs>
				<use xlink:href="#XMLID_79_"  style="overflow:visible;fill:#4DFFD9;"/>
				<clipPath id="XMLID_00000169518224284240828850000008479166066689585039_">
					<use xlink:href="#XMLID_79_"  style="overflow:visible;"/>
				</clipPath>
				<g style="opacity:0.8;clip-path:url(#XMLID_00000169518224284240828850000008479166066689585039_);">
					<path class="st16" d="M1298.75,277.56c0,9.42-7.64,17.06-17.06,17.06c-9.42,0-17.07-7.64-17.07-17.06
						c0-9.42,7.64-17.06,17.07-17.06C1291.12,260.49,1298.75,268.13,1298.75,277.56z"/>
					<path class="st16" d="M1292.89,339.01c0,9.43-7.64,17.06-17.07,17.06c-9.42,0-17.06-7.64-17.06-17.06
						c0-9.42,7.64-17.07,17.06-17.07C1285.26,321.94,1292.89,329.58,1292.89,339.01z"/>
					<path class="st16" d="M1238.28,304.88c0,9.42-7.64,17.06-17.06,17.06c-9.42,0-17.06-7.64-17.06-17.06
						c0-9.42,7.64-17.06,17.06-17.06C1230.64,287.82,1238.28,295.46,1238.28,304.88z"/>
					<path class="st16" d="M1357.98,304.88c0,9.42-7.64,17.06-17.06,17.06c-9.42,0-17.06-7.64-17.06-17.06
						c0-9.42,7.64-17.06,17.06-17.06C1350.34,287.82,1357.98,295.46,1357.98,304.88z"/>
					<path class="st16" d="M1240.23,369.36c0,9.42-7.64,17.06-17.07,17.06c-9.42,0-17.06-7.64-17.06-17.06
						c0-9.43,7.64-17.07,17.06-17.07C1232.59,352.29,1240.23,359.94,1240.23,369.36z"/>
					<path class="st16" d="M1178.42,276.5c0,9.42-7.64,17.06-17.06,17.06s-17.06-7.64-17.06-17.06c0-9.43,7.64-17.06,17.06-17.06
						S1178.42,267.07,1178.42,276.5z"/>
					<path class="st16" d="M1181.71,338.23c0,9.42-7.64,17.06-17.07,17.06c-9.42,0-17.06-7.64-17.06-17.06
						c0-9.43,7.64-17.07,17.06-17.07C1174.08,321.16,1181.71,328.8,1181.71,338.23z"/>
					<path class="st16" d="M1178.42,406.89c0,9.42-7.64,17.06-17.06,17.06s-17.06-7.64-17.06-17.06c0-9.43,7.64-17.06,17.06-17.06
						S1178.42,397.47,1178.42,406.89z"/>
					<path class="st16" d="M1238.66,434.17c0,9.42-7.64,17.06-17.06,17.06c-9.42,0-17.06-7.64-17.06-17.06
						c0-9.43,7.64-17.07,17.06-17.07C1231.02,417.1,1238.66,424.74,1238.66,434.17z"/>
					<path class="st16" d="M1292.89,403.49c0,9.42-7.64,17.06-17.07,17.06c-9.42,0-17.06-7.64-17.06-17.06
						c0-9.43,7.64-17.07,17.06-17.07C1285.26,386.42,1292.89,394.06,1292.89,403.49z"/>
					<path class="st16" d="M1129.43,304.88c0,9.42-7.64,17.06-17.06,17.06c-9.42,0-17.06-7.64-17.06-17.06
						c0-9.42,7.64-17.06,17.06-17.06C1121.79,287.82,1129.43,295.46,1129.43,304.88z"/>
				</g>
			</g>
		</g>
		<g>
			<g>
				<defs>
					<path id="XMLID_78_" d="M1204.8,91.01c0,0-21.01-11.86-41,7.28c0,0-11.35,12.03-20.33,46.77c0,0-9.49,30.16-19.65,45.92
						c0,0-19.83,41.85-7.28,75.4c0,0,8.98,33.04,38.63,26.26c0,0,39.82-5.76,44.39-51.51c0,0-0.68-21.69-4.91-35.92
						c0,0-7.63-46.76,11.86-67.78C1206.5,137.43,1231.07,109.47,1204.8,91.01z"/>
				</defs>
				<use xlink:href="#XMLID_78_"  style="overflow:visible;fill:#FFA64D;"/>
				<clipPath id="XMLID_00000022538280287709382430000003221287622066793124_">
					<use xlink:href="#XMLID_78_"  style="overflow:visible;"/>
				</clipPath>
				<path style="opacity:0.4;clip-path:url(#XMLID_00000022538280287709382430000003221287622066793124_);fill:#FFA64D;" d="
					M1171.62,174.12c-5.91,7.41-8.7,12.1-13.67,23.45c-1.86,4.25-3.64,12.61-4.57,17.08c-1.36,6.5-1.53,11.17-1.13,17.67
					c0.32,5.34,1,11.76,3.54,16.59c2.21,4.22,6.41,8.78,10.37,11.22c6.49,3.99,11.9,4.24,17.78-0.59
					c7.59-6.25,11.74-15.03,12.8-24.79c0.55-5.06,0.36-10.14,0.55-15.2c0.17-4.88,1.83-9.76,1.61-14.62
					c-0.3-6.55-3.59-14.93-8.81-18.94c-1.35-1.03-2.96-2.52-4.67-2.82c-2.34-0.42-4.29,1.34-6.74,1.06"/>
			</g>
			<path class="st12" d="M1166.76,162.75c0,0-4.22-4.75-9.51-1.58c0,0-9.45,6.42,1.23,17.95c0,0,7.93,8.8,15.14,4.58
				c0,0,8.62,33.62,38.9,28.34c0,0,28.87-0.53,34.86-36.44c0,0,13.37-2.46,14.08-15.49c0,0,1.03-9.74-6.54-9.74
				c0,0-3.69-0.6-7.38,4.48c0,0,4.24-56.39-44.37-48.21C1203.16,106.65,1154.93,114.66,1166.76,162.75z"/>
			<path class="st1" d="M1166.74,162.64c0,0,37.17-17.59,46.77-36.67c0,0-3.12,12.22-8.86,18.46c0,0,15.59-10.23,20.58-21.58
				c0,0,1.25,8.6-2.87,14.59c0,0,3.87,1.12,8.23-7.98c0,0,14.22,18.83,15.96,25.94c0,0,16.96-49.89-34.8-56.25
				c0,0-29.06-1.5-41.04,16.59C1170.72,115.74,1152.64,138.81,1166.74,162.64z"/>
			<g>
				<defs>
					<path id="XMLID_76_" d="M1218.56,158.43c0-3.17,4.15-5.09,9.36-5.09s9.5,1.92,9.5,5.09c0,3.16-4.22,4.53-9.43,4.53
						C1222.79,162.96,1218.56,161.6,1218.56,158.43z"/>
				</defs>
				<use xlink:href="#XMLID_76_"  style="overflow:visible;fill:#FFFFFF;"/>
				<clipPath id="XMLID_00000130624015872638975040000014252107883802846353_">
					<use xlink:href="#XMLID_76_"  style="overflow:visible;"/>
				</clipPath>
				<path style="clip-path:url(#XMLID_00000130624015872638975040000014252107883802846353_);fill:#008064;" d="M1222.51,158.75
					c0-2.99,2.42-5.41,5.41-5.41c2.98,0,5.41,2.42,5.41,5.41s-2.42,5.41-5.41,5.41C1224.93,164.16,1222.51,161.73,1222.51,158.75z"
					/>
			</g>
			<g>
				<defs>
					<path id="XMLID_75_" d="M1180.49,159.5c0-3.17,4.15-5.09,9.36-5.09c5.21,0,9.5,1.92,9.5,5.09c0,3.16-4.22,4.53-9.43,4.53
						C1184.71,164.03,1180.49,162.67,1180.49,159.5z"/>
				</defs>
				<use xlink:href="#XMLID_75_"  style="overflow:visible;fill:#FFFFFF;"/>
				<clipPath id="XMLID_00000130613869928681814110000017913958014390716577_">
					<use xlink:href="#XMLID_75_"  style="overflow:visible;"/>
				</clipPath>
				<path style="clip-path:url(#XMLID_00000130613869928681814110000017913958014390716577_);fill:#008064;" d="M1184.45,159.82
					c0-2.99,2.42-5.41,5.4-5.41c2.98,0,5.4,2.42,5.4,5.41c0,2.99-2.42,5.41-5.4,5.41C1186.86,165.23,1184.45,162.81,1184.45,159.82z
					"/>
			</g>
			<path class="st1" d="M1221.6,143.39c0-1.6,3.02-2.9,6.75-2.9c3.73,0,6.75,1.3,6.75,2.9c0,1.6-3.02,2.9-6.75,2.9
				C1224.62,146.29,1221.6,144.99,1221.6,143.39z"/>
			<path class="st31" d="M1161.16,174.34c-1.56-2.88-1.26-6.06,0.67-7.11c1.93-1.04,4.76,0.45,6.31,3.33
				c1.56,2.88,1.26,6.06-0.67,7.1C1165.54,178.71,1162.71,177.22,1161.16,174.34z"/>
			<path class="st31" d="M1249.22,160.61c1.03-3.11,3.56-5.07,5.64-4.38c2.08,0.69,2.93,3.77,1.9,6.88
				c-1.04,3.11-3.55,5.07-5.64,4.38C1249.03,166.8,1248.19,163.72,1249.22,160.61z"/>
		</g>
	</g>
</g>
<path class="st32" d="M1197,192c0,0,13.9,6.03,19.93,0"/>
</svg>
