<?xml version="1.0" encoding="utf-8"?>
<!-- Generator: Adobe Illustrator 26.0.2, SVG Export Plug-In . SVG Version: 6.00 Build 0)  -->
<svg version="1.1" id="Capa_1" xmlns="http://www.w3.org/2000/svg" xmlns:xlink="http://www.w3.org/1999/xlink" x="0px" y="0px"
	 viewBox="0 0 831.8 576" style="enable-background:new 0 0 831.8 576;" xml:space="preserve">
<style type="text/css">
	.st0{fill:#FFBEA7;}
	.st1{fill:#FF9A79;}
	.st2{fill:#375A64;}
	.st3{fill:#2B454E;}
	.st4{fill:#C76668;}
	.st5{fill:#FF9090;}
	.st6{fill:#1A2E35;}
	.st7{fill:#D268CC;}
	.st8{opacity:0.1;enable-background:new    ;}
	.st9{opacity:0.3;fill:#FFFFFF;enable-background:new    ;}
	.st10{opacity:0.5;fill:#D268CC;enable-background:new    ;}
	.st11{opacity:0.5;fill:#FFFFFF;enable-background:new    ;}
	.st12{opacity:0.6;fill:#D268CC;enable-background:new    ;}
	.st13{opacity:0.2;fill:#FFFFFF;enable-background:new    ;}
	.st14{fill:#FFFFFF;}
	.st15{opacity:0.6;fill:#FFFFFF;enable-background:new    ;}
</style>
<g id="Character">
	<g id="Arm">
		<path class="st0" d="M716,222.9c-3.2-1.6-6.9-1.9-10.4-1.4c-5.7,0.8-10.9,3.5-16.4,5.1c-8.4,2.5-21.9,6.7-30.5,4.5
			c-1.8-0.5-5.3-1.9-2.4-3.6c3.7-2.2,7.7-4.1,11-7c3.3-2.8,6-6.8,6.1-11.1c0.1-1.3-0.3-2.6-1.1-3.7c-1.2-1.4-2.4-0.9-3.7-0.3
			c-1.4,0.6-2.9,1.1-4.4,1.5c-3.1,1-6.1,1.9-9.2,3c-17.8,5.9-35.9,13.4-48.6,27.7c-1.9,2.1-13.9,18.9-21.4,28.2
			c-6.3,8.6-43.2,51.7-43.2,51.7s-36.1-45.9-52.4-66.3c-15.8-19.9-32.2-47.1-65.7-44l20,110.5c0,0,48.6,52.6,56.5,60.3
			c24.2,23.6,34.4,27,53.8,14.5c23.8-15.3,32.7-36.5,45-59c13.9-25.4,19-37.8,25.4-45s14.2-6.1,19.9-6.7c10.5-1,13.2-1.7,23.2-4.8
			c6.7-2,13-4.9,18.9-8.6c2.5-1.6,6.4-3.7,7.9-6.3c1.4-2.4,1.5-5.4,3.2-7.8c1.9-2.7,5-4.4,6.7-7.3c1.3-2.3,1.4-4.9,2.1-7.4
			c1-4,4-5.8,7.3-7.8c1.6-1,3.4-1.8,4.4-3.4C719.8,225.7,718.1,224,716,222.9z"/>
		<path class="st1" d="M541.7,317.6c-14.6,16.2-18.9,33.6-18.5,40.7c-4.9-24.2,8.3-40.3,13.7-46.6L541.7,317.6z"/>
		<path class="st1" d="M647.1,236.6c-5.7,9.2-18.1,18.3-24.6,20.3c0,0,9.7,1,16-4.3C645.5,246.7,646.8,240.7,647.1,236.6z"/>
	</g>
	<path id="Chest" class="st2" d="M467.5,398.7c0.7-17.6,0.3-35.2-1.3-52.7c0,0,18-18,16.1-44.2c-1.6-22.2-10.8-33.2-29-57.1
		c-19.4-25.6-29.7-37.4-29.7-37.4l-14.7,1l-22.7,1.7c0,0-51.5,3.8-70.7,11l-25.3,5c-8.2,4.6-37.4,20.2-30.8,81.8
		c2.1,19.4,14.8,61.1,19.3,88.5c-2.2,45-21.7,56.3-24.5,95c0,16.5,17.7,33,39.5,45.6c43.5,25.1,114.1,25.1,157.5,0
		c21.8-12.6,35.7-32.1,35.6-48.6C486.9,488.3,474.4,421.7,467.5,398.7z"/>
	<g id="Head">
		<path class="st3" d="M295.7,64.1c-19.2,9.2-18.7,45.8-10.8,62c19.7,40.6,42.4,49.1,45.4,67.6l41.4-30l32.2-23.4
			c5.6-4,14.4-9.3,17.1-16c3-7.6,3.2-15.9,0.6-23.7c6.6,3.9,15,5.1,22,1.9c7-3.2,11.8-11.1,10.3-18.6c-3.7,3.1-9.9,1.8-12.9-2
			c-3-3.8-3.2-7.9-2-12.6c0.7-2.9,2.1-6.8,2.4-9.8c0.8-8.3-1.4-14.7-6.1-20.2c-8.4-9.7-22.5-16.1-34.5-19.6
			c-18.1-5.4-43.7-5.8-61.6,0C320.4,25.8,294.9,38.5,295.7,64.1z"/>
		<path class="st0" d="M328.8,199.8c-0.8-14.2-2.2-31.9-2.2-31.9s-8.5,8.2-21.4-2c-13.6-10.9-18.1-29.7-7.8-40.3
			c10.3-10.6,25.4-8.4,31.7,5.4c10.7,1.8,13.9-13.5,4.9-28.4c0,0,20.6-13.9,14.9-36.2c18.9,10.1,61.5,12.6,70.2-7
			c6.5,8.4,13.9,15.2,17.1,64.8c1.9,30.1-0.7,45.7-10.5,54.2c-8.3,7.2-19,10.1-32.5,9.8c0,0,0.3,9.4,0.8,14.2
			c0.3,3.7,1.5,5.8,6.4,5.8c7,0.1,8.4,0,8.4,0s6.9,20-27.6,27c-51.5,10.3-65.8-14.3-65.8-14.3s2-0.8,4.9-1.7
			C328,217.1,329.4,209.4,328.8,199.8z"/>
		<path class="st4" d="M379.2,143.9l18.9,7.7c-2,5.4-7.9,8.1-13.1,6C379.8,155.5,377.2,149.3,379.2,143.9z"/>
		<path class="st5" d="M380.1,148.5c5.3,0.3,9.7,4.3,10.5,9.6c-1.9,0.4-3.8,0.2-5.6-0.5c-3.7-1.5-6.1-5-6.4-9
			C379.1,148.5,379.6,148.5,380.1,148.5z"/>
		<path class="st3" d="M427.6,95.1l-14.3-5.2c1.2-3.8,5.3-6,9.1-4.8c0.1,0,0.3,0.1,0.4,0.1C426.8,86.7,428.8,91.1,427.6,95.1z"/>
		<path class="st3" d="M361.1,103.1l13-8.3c-2-3.5-6.5-4.8-10.1-2.8c-0.1,0.1-0.2,0.1-0.3,0.2C360.1,94.7,359,99.4,361.1,103.1z"/>
		<polygon class="st1" points="392.8,100.3 399.8,140.9 421.9,132.3 		"/>
		<path class="st6" d="M411.8,107c0,3.5,2.8,6.4,6.3,6.5c3.4,0.2,6.2-2.4,6.4-5.8c0-0.1,0-0.2,0-0.3c0-3.5-2.8-6.4-6.3-6.5
			c-3.4-0.2-6.2,2.4-6.4,5.8C411.8,106.8,411.8,106.9,411.8,107z"/>
		<path class="st6" d="M367.8,113c0,3.5,2.8,6.4,6.3,6.5c3.4,0.2,6.2-2.4,6.4-5.8c0-0.1,0-0.2,0-0.3c0-3.5-2.8-6.4-6.3-6.5
			c-3.4-0.2-6.2,2.4-6.4,5.8C367.8,112.8,367.8,112.9,367.8,113z"/>
		<path class="st1" d="M393.4,188.2c-35.9-0.5-52.7-9.6-58.8-20.2c0,0,1.5,11.4,15.8,19.8c13.8,8.2,43.4,9.5,43.4,9.5L393.4,188.2z"
			/>
	</g>
	<g id="Arm-2">
		<g id="Arm-3">
			<path class="st1" d="M241.4,531.4c-4.2-4.6-9.6-8.6-11.3-14.8c-0.9-3.2-0.6-6.9,1.5-9.4c0.5-0.5,0.9-1.1,1.1-1.7
				c0.1-0.6,0.1-1.1-0.1-1.7c-0.4-2.4-0.5-4.9,0.5-7c0.9-1.9,2.5-3.2,4.5-3.8c-1.1-3.5-1.1-7.2,0.1-10.6c1.4-4,5.6-7.3,8.3-2.7
				c1.3,2.2,2.4,4.6,3.2,7.1c2.1,6.1,3.4,12.4,4,18.9c0.7,6.7,2.3,25.6-8.1,26.5C244.3,532,242,532,241.4,531.4z"/>
			<path class="st0" d="M294.1,225.2c-43.1,6.6-50.1,25.1-73.9,57.8c-23.4,32.3-41,59.3-50.9,77.5c-10.4,19.1-11.9,26,7.2,50.4
				c9.4,12.1,19.1,22.3,36.8,41.7c11.3,12.4,23.5,25,35.3,37.5c3,3.2,4.2,8.3,3.2,13c-0.6,2.7-1.8,5.3-2.1,8
				c-0.4,3.5,0.7,7,0.8,10.6c0.2,3.5-1,7.6-4.2,9.1c-1.6,0.7-3.3,0.7-5.1,0.6c3,2.1,6.2,4.2,9.7,5.3c3.5,1.1,7.5,1.3,10.9-0.4
				c3.2-1.6,5.7-4.6,9.1-5.7c1.9-0.5,3.9-0.5,5.7-1c1.9-0.5,3.7-1.6,4.9-3.2c2-2.5,2.8-6,5.6-7.6c1.3-0.7,2.9-0.8,4.3-1.4
				c2.9-1.2,4.7-4.1,5.4-7.1c0.6-3,0.2-6.2-0.2-9.2c-1.2-8.2-2.9-16.4-5-24.4c-0.7-2.8-2.3-5.2-3.9-7.5c-1.9-2.7-3.6-5.5-5.7-8
				c-13.7-17.5-48.7-83.2-48.7-83.2l48.7-62.9C282.2,315.2,319.9,259.9,294.1,225.2z"/>
			<path class="st1" d="M233.5,378c-12.1,11.9-30.9,12.8-37.9,12.4c24.4,10,41.8-5.1,41.8-5.1L233.5,378z"/>
		</g>
	</g>
</g>
<g id="Lungs">
	<path class="st7" d="M384.5,257c-3.4,6.5-8.8,27.2-9.7,39c-1.9,23.6-1.7,36.4-0.3,48.6s5.2,28.9,21.6,38.4s42.9,14.3,54.1,5.8
		c4.3-3,5.6-29.2,1-41.9c-4.6-12.8-12.3-27.3-13.6-36.2c-1.3-8.8-7.1-35-13.6-48.3c-6.1-12.7-12.7-20.7-25.2-19.1
		C393.8,244,387.8,248.3,384.5,257z"/>
	<path class="st8" d="M442.4,387.7c0,0-11.4-0.8-26.6-6.6c-15.2-5.9-27.1-14.3-29.9-37.7c-2.8-23.4,1.1-49.6,0.2-64.8
		s1.4-26.7,10.4-25.9c0,0,0,0,0,0c5.1,1.4,9.7,6.2,10.6,14c1.7,14.3-7.7,20.3-6.4,35.9c1.3,15.6,13,22.6,18.7,34.4s2.6,25.2,6,33.8
		C428.1,377.7,436,384.6,442.4,387.7z"/>
	<path class="st9" d="M398.8,243.3c12.5-1.7,19,6.3,25.2,19.1c6.4,13.4,12.3,39.5,13.6,48.3c1.3,8.8,9,23.4,13.6,36.2
		c4.6,12.8,3.3,38.9-1,41.9c-4.3,3-20.6-7.4-24.9-18.2c-3.4-8.6-0.3-22.1-6-33.8c-5.6-11.8-17.3-18.8-18.7-34.4
		c-1.3-15.6,8-21.6,6.4-35.9c-1.6-14.3-15.9-18.8-22.5-9.5C387.8,248.3,393.8,244,398.8,243.3z"/>
	<path class="st10" d="M450.1,388.8c3.1-2.1,4.7-16.3,3.6-28.8l0,0c0,0-0.8,15.8-5.4,18.8c-4.6,3-9.3-6.8-5.7-20.9
		c3.6-14.1,1.5-25-1.1-32.8c1.9,17.3-7.7,32.3-10.9,30c-3.2-2.3-2.8-16.9-7.3-23c-4.5-6.1-13-11.1-19.7-18.6
		c4.2,8.7,11.5,14.8,15.6,23.3c5.6,11.8,2.6,25.2,6,33.8C429.5,381.4,445.8,391.8,450.1,388.8z"/>
	<path class="st2" d="M448.1,389.8c-1,0-2-0.2-2.9-0.5c-7.1-2.1-17.1-10.3-20.3-18.5c-1.5-3.8-1.7-8.5-2-13.5
		c-0.4-6.4-0.8-13.7-3.9-20.3c-2-4.2-4.9-7.9-7.7-11.5c-5-6.4-10.1-13-11-23c-0.7-7.9,1.4-13.4,3.4-18.7c2-5.3,3.8-10.2,3-17.2
		c-1-8.3-6-12.5-10.3-13.6c-4.4-1.1-8.6,0.5-11.4,4.3l-2.2,3.1l1.3-3.5c3.5-9.4,9.9-13.4,14.7-14.1l0,0c12.8-1.7,19.5,6.5,25.7,19.4
		c6.6,13.6,12.3,39.8,13.6,48.5c0.8,5.5,4.2,13.4,7.7,21.7c2,4.8,4.1,9.7,5.8,14.4c4.7,13.1,3.3,39.4-1.2,42.5
		C449.8,389.7,449,389.9,448.1,389.8z M393.5,251.7c1,0,2,0.1,3,0.4c4.7,1.2,10,5.6,11,14.4c0.8,7.2-1.1,12.3-3.1,17.6
		c-2,5.2-4,10.6-3.3,18.3c0.8,9.8,5.9,16.2,10.8,22.5c2.8,3.6,5.8,7.4,7.8,11.7c3.2,6.8,3.7,14.2,4,20.7c0.3,4.9,0.5,9.5,2,13.2
		c3,7.7,12.9,15.8,19.7,17.9c2,0.6,3.6,0.6,4.4,0c4.1-2.9,5.4-28.9,0.8-41.4c-1.7-4.7-3.8-9.6-5.8-14.3c-3.6-8.4-7-16.3-7.8-22
		c-1.3-8.6-7-34.7-13.5-48.2c-6-12.5-12.5-20.4-24.7-18.8c-4,0.5-9.2,3.6-12.7,10.7C388.2,252.7,390.8,251.7,393.5,251.7
		L393.5,251.7z"/>
	<path class="st2" d="M433,393.8c-12.1,0-26.7-4.2-37.2-10.4c-16.7-9.8-20.4-26.8-21.8-38.8c-1.3-11.1-1.7-23.6,0.3-48.7
		c1-12.3,6.4-32.9,9.8-39.2l0.9,0.5c-3.2,6.1-8.7,26.8-9.7,38.8c-2,25-1.6,37.5-0.3,48.5c1.4,11.8,5,28.5,21.3,38.1
		c16.3,9.5,42.7,14.1,53.6,5.8l0.6,0.8C446.2,392.4,440,393.8,433,393.8z"/>
	<path class="st2" d="M426.2,371.6c-0.6,0-1.1-0.2-1.4-0.7l0.9-0.5c0,0.1,0.2,0.3,0.7,0.2c3-0.4,10.4-7.6,13.3-19.3
		c3.5-14,1-28.3,1-28.5l1-0.2c0,0.1,2.5,14.6-1,28.9c-3,12.3-10.8,19.6-14.1,20C426.5,371.6,426.4,371.6,426.2,371.6z"/>
	<path class="st7" d="M396.5,302.6c-0.2-2.8-1.7-5.4-4-7c-1.1-0.7-2.1-0.7-2.9-0.2l0,0c-1.4,0.8-2.6,1-3.4,0.5
		c-1.9-1.1-4.1-5.5-4.1-14.1h-11.4c0,11.8,3.5,20.3,9.8,24c2.1,1.2,4.4,1.8,6.8,1.8c2.8,0,5.6-0.8,8.1-2.3l0,0
		C396,304.8,396.5,303.9,396.5,302.6z"/>
	<path class="st9" d="M396.5,302.6c-0.2-2.8-1.7-5.4-4-7c-1.1-0.7-2.1-0.7-2.9-0.2l0,0c-1.4,0.8-2.6,1-3.4,0.5
		c-1.9-1.1-4.1-5.5-4.1-14.1h-11.4c0,11.8,3.5,20.3,9.8,24c2.1,1.2,4.4,1.8,6.8,1.8c2.8,0,5.6-0.8,8.1-2.3l0,0
		C396,304.8,396.5,303.9,396.5,302.6z"/>
	<path class="st2" d="M387.2,308c-2.5,0-4.9-0.6-7-1.9c-6.5-3.7-10.1-12.4-10.1-24.4v-0.5h12.4v0.5c0,9.1,2.4,12.9,3.9,13.7
		c0.7,0.4,1.7,0.2,3-0.5l0.4-0.2v0c1-0.3,2.1-0.1,2.9,0.5c2.5,1.6,4.1,4.4,4.3,7.4c0.1,1-0.3,2-1.1,2.8v0l-0.4,0.3
		C393,307.2,390.1,308,387.2,308z M371.1,282.2c0.1,11.4,3.5,19.6,9.6,23.1c4.1,2.4,9.2,2.3,13.9-0.2l0,0l0.4-0.3
		c0.6-0.3,1-1.1,1-2.2c-0.1-2.7-1.6-5.1-3.8-6.5c-0.9-0.5-1.8-0.6-2.4-0.3l-0.4,0.3v0c-1.4,0.7-2.6,0.8-3.5,0.2
		c-2.1-1.2-4.3-5.5-4.4-14.1L371.1,282.2z"/>
	<path class="st7" d="M382,214.2c0-0.8-0.5-1.7-1.7-2.3c-2.5-1.3-5.5-1.3-8,0c-1.1,0.6-1.7,1.5-1.7,2.3l0,0v67.5
		c0,24.7-1.5,25.5-9.9,30.3l-0.5,0.3l0,0c-0.7,0.4-1.2,1.3-1.2,2.6c0.2,2.8,1.6,5.4,4,7c1.1,0.6,2.1,0.7,2.8,0.3l0,0l0.5-0.3
		c12.7-7.1,15.6-11.7,15.6-40.2V214.2z"/>
	<path class="st11" d="M382,214.2c0-0.8-0.5-1.7-1.7-2.3c-2.5-1.3-5.5-1.3-8,0c-1.1,0.6-1.7,1.5-1.7,2.3l0,0v67.5
		c0,24.7-1.5,25.5-9.9,30.3l-0.5,0.3l0,0c-0.7,0.4-1.2,1.3-1.2,2.6c0.2,2.8,1.6,5.4,4,7c1.1,0.6,2.1,0.7,2.8,0.3l0,0l0.5-0.3
		c12.7-7.1,15.6-11.7,15.6-40.2V214.2z"/>
	<path class="st12" d="M380.4,223.3c-2.5,1.3-5.5,1.3-8,0c-1.1-0.6-1.7-1.5-1.7-2.3v1.6c0,0.8,0.5,1.7,1.7,2.3c2.5,1.3,5.5,1.3,8,0
		c1.1-0.6,1.7-1.5,1.7-2.3V221C382,221.8,381.5,222.7,380.4,223.3z M380.4,231.8c-2.5,1.3-5.5,1.3-8,0c-1.1-0.6-1.7-1.5-1.7-2.3v1.6
		c0,0.8,0.5,1.7,1.7,2.3c2.5,1.3,5.5,1.3,8,0c1.1-0.6,1.7-1.5,1.7-2.3v-1.6C382,230.3,381.5,231.2,380.4,231.8L380.4,231.8z
		 M380.4,240.3c-2.5,1.3-5.5,1.3-8,0c-1.1-0.6-1.7-1.5-1.7-2.3v1.6c0,0.8,0.5,1.7,1.7,2.3c2.5,1.3,5.5,1.3,8,0
		c1.1-0.6,1.7-1.5,1.7-2.3V238C382,238.8,381.5,239.6,380.4,240.3L380.4,240.3z M380.4,248.8c-2.5,1.3-5.5,1.3-8,0
		c-1.1-0.6-1.7-1.5-1.7-2.3v1.6c0,0.8,0.5,1.7,1.7,2.3c2.5,1.3,5.5,1.3,8,0c1.1-0.6,1.7-1.5,1.7-2.3v-1.6
		C382,247.3,381.5,248.1,380.4,248.8L380.4,248.8z M380.4,257.2c-2.5,1.3-5.5,1.3-8,0c-1.1-0.6-1.7-1.5-1.7-2.3v1.6
		c0,0.8,0.5,1.7,1.7,2.3c2.5,1.3,5.5,1.3,8,0c1.1-0.6,1.7-1.5,1.7-2.3v-1.6C382,255.7,381.5,256.6,380.4,257.2L380.4,257.2z
		 M380.4,265.7c-2.5,1.3-5.5,1.3-8,0c-1.1-0.6-1.7-1.5-1.7-2.3v1.6c0,0.8,0.5,1.7,1.7,2.3c2.5,1.3,5.5,1.3,8,0
		c1.1-0.6,1.7-1.5,1.7-2.3v-1.6C382,264.2,381.5,265.1,380.4,265.7L380.4,265.7z M380.4,274.2c-2.5,1.3-5.5,1.3-8,0
		c-1.1-0.6-1.7-1.5-1.7-2.3v1.6c0,0.8,0.5,1.7,1.7,2.3c2.5,1.3,5.5,1.3,8,0c1.1-0.6,1.7-1.5,1.7-2.3v-1.6
		C382,272.7,381.5,273.5,380.4,274.2L380.4,274.2z M380.4,282.7c-2.5,1.3-5.5,1.3-8,0c-1.1-0.6-1.7-1.5-1.7-2.3v1.6
		c0,0.8,0.5,1.7,1.7,2.3c2.5,1.3,5.5,1.3,8,0c1.1-0.6,1.7-1.5,1.7-2.3v-1.6C382,281.2,381.5,282,380.4,282.7L380.4,282.7z
		 M380.3,291.1c-2.5,1.3-5.5,1.3-8,0c-1.1-0.6-1.7-1.5-1.7-2.3v1.6c0,0.8,0.5,1.7,1.7,2.3c2.5,1.3,5.5,1.3,8,0
		c1.1-0.6,1.7-1.5,1.7-2.3v-1.6C381.9,289.6,381.4,290.5,380.3,291.1L380.3,291.1z M379.6,300c-2.6,1-5.6,0.8-8-0.7
		c-1-0.7-1.5-1.6-1.4-2.5l-0.2,1.6c-0.1,0.8,0.4,1.7,1.4,2.5c2.4,1.5,5.4,1.8,8,0.7c1.2-0.5,1.8-1.3,1.9-2.1l0.2-1.6
		C381.4,298.7,380.8,299.4,379.6,300L379.6,300z M377.3,309.4c-2.8,0.3-5.6-0.7-7.6-2.8c-0.8-1-1.1-2-0.8-2.8l-0.6,1.5
		c-0.3,0.8-0.1,1.8,0.8,2.8c1.9,2.1,4.7,3.1,7.6,2.8c1.3-0.2,2.1-0.8,2.4-1.6l0.6-1.5C379.4,308.6,378.6,309.2,377.3,309.4
		L377.3,309.4z"/>
	<path class="st7" d="M372.3,211.9c-2.2,1.3-2.2,3.4,0,4.6c2.5,1.3,5.5,1.3,8,0c2.2-1.3,2.2-3.4,0-4.6
		C377.8,210.6,374.8,210.6,372.3,211.9z"/>
	<path class="st13" d="M372.3,211.9c-2.2,1.3-2.2,3.4,0,4.6c2.5,1.3,5.5,1.3,8,0c2.2-1.3,2.2-3.4,0-4.6
		C377.8,210.6,374.8,210.6,372.3,211.9z"/>
	<path class="st7" d="M374.2,213c-1.2,0.6-1.2,1.6,0,2.3c1.3,0.6,2.9,0.6,4.2,0c1.2-0.6,1.2-1.6,0-2.3
		C377.1,212.4,375.6,212.4,374.2,213z"/>
	<path class="st8" d="M374.2,213c-1.2,0.6-1.2,1.6,0,2.3c1.3,0.6,2.9,0.6,4.2,0c1.2-0.6,1.2-1.6,0-2.3
		C377.1,212.4,375.6,212.4,374.2,213z"/>
	<path class="st2" d="M364.8,322.9c-0.7,0-1.4-0.2-2-0.6c-2.5-1.6-4.1-4.4-4.3-7.4c0-1.4,0.5-2.5,1.5-3.1l0.5-0.3
		c8.1-4.6,9.6-5.4,9.6-29.8v-67.5c0-1.1,0.7-2,1.9-2.7l0,0c2.7-1.4,5.9-1.4,8.6,0c1.2,0.7,1.9,1.7,1.9,2.8v67.5
		c0,28.7-3,33.3-15.9,40.6l-1,0.5l0-0.1C365.4,322.9,365.1,322.9,364.8,322.9z M371.1,216.3v65.4c0,25-1.5,25.8-10.1,30.7l-0.5,0.3
		c-0.6,0.3-1,1.1-1,2.2c0.1,2.7,1.5,5.1,3.7,6.6c0.9,0.5,1.7,0.6,2.3,0.3l0.4-0.2l0,0l0.1-0.1c12.5-7.1,15.4-11.6,15.4-39.8v-65.5
		c-0.3,0.3-0.6,0.5-0.9,0.7c-2.7,1.4-5.9,1.4-8.6,0C371.7,216.7,371.4,216.5,371.1,216.3L371.1,216.3z M372.5,212.3
		c-0.9,0.5-1.4,1.2-1.4,1.9s0.5,1.4,1.4,1.9c2.4,1.2,5.2,1.2,7.6,0c0.9-0.5,1.4-1.2,1.4-1.9c0-0.7-0.5-1.4-1.4-1.9
		C377.7,211.1,374.9,211.1,372.5,212.3L372.5,212.3z"/>
	<path class="st7" d="M370.8,348.8c-0.5-5.3,0.1-10.1-0.1-16.1v0l0,0c-0.1-3.5-0.6-7-1.4-10.5c-2.1-9.5-3.4-16.4-2.6-32.8
		c1.1-22.1-3.2-31.5-16.5-32.3c-11.4-0.7-34.4,9.6-47.8,83.7c-9.1,10-9.7,54.8-9.7,70c0,15.2,7.1,30.5,24,31.6
		c7.6,0.5,15.1-2.2,22.1-6.6l0,0l0,0c14.5-9.1,26.8-25.2,32.1-34.5C378.8,387.3,371.5,356.8,370.8,348.8z"/>
	<path class="st9" d="M370.8,348.8c-0.5-5.3,0.1-10.1-0.1-16.1v0l0,0c-0.1-3.5-0.6-7-1.4-10.5c-2.1-9.5-3.4-16.4-2.6-32.8
		c1.1-22.1-3.2-31.5-16.5-32.3c-11.4-0.7-34.4,9.6-47.8,83.7c-9.1,10-9.7,54.8-9.7,70c0,15.2,7.1,30.5,24,31.6
		c7.6,0.5,15.1-2.2,22.1-6.6l0,0l0,0c14.5-9.1,26.8-25.2,32.1-34.5C378.8,387.3,371.5,356.8,370.8,348.8z"/>
	<path class="st10" d="M370.8,348.8c-0.4-4.4,0-8.6-0.1-13.4c-0.2,0.9-3.3,10-2,24.2c0.9,9.7,2.5,20.6,0.3,31
		c-2.2,10.4-9.3,18.7-17.3,25.3c-5.6,4.6-14.5,4.6-20.6-2c-6.1-6.7-13.5-14.6-26.1-13.4l0,0.3c2.8,0.2,5.9,1.4,9.3,3.6
		c7.2,6.3,15.4,23.8,6.3,30c-7.3,5.1-21.7-0.8-25.4-8.5c3.4,8.8,10.3,15.5,21.3,16.3c7.6,0.5,15.1-2.2,22.1-6.6l0,0l0.5-0.3
		c0.5-0.3,1.1-0.7,1.6-1c13.6-9.2,25-24.3,30.1-33.1C378.8,387.3,371.5,356.8,370.8,348.8z"/>
	<path class="st10" d="M370.7,332.6L370.7,332.6c-0.5,22.3-31.6,38-48.8,36.6c-10.7-0.9-16.2-6.1-18.5-13.4v0c5,8.2,27.7,5.4,43-7.3
		c14.9-12.4,14.7-20.8,12.7-42.6c-2-21.7,8.2-40.5-3.2-47.8c8.8,3.1,11.7,12.7,10.8,31.2c-0.8,16.5,0.4,23.3,2.6,32.8
		C370,325.6,370.5,329.1,370.7,332.6L370.7,332.6z"/>
	<path class="st2" d="M318.3,442.8c-0.6,0-1.2,0-1.7-0.1c-18-1.2-24.4-18-24.4-32.1c0-22.2,1.3-60.6,9.7-70.2
		c14.1-77.6,38.4-84.6,48.3-84c13.3,0.8,18.1,10,17,32.9c-0.8,16.3,0.5,23.2,2.6,32.7c1.7,7.4,1.5,13.2,1.4,18.2
		c-0.1,2.8-0.1,5.7,0.1,8.5c0.1,1.5,0.5,3.8,1,6.8c1.9,12.1,5.5,34.6-1,45.9C361.9,417.7,339.6,442.8,318.3,442.8z M349,257.5
		c-10.2,0-32.8,9-46.2,83.4v0.1l-0.1,0.1c-8.6,9.5-9.6,51.8-9.6,69.6c0,13.6,6.2,30,23.5,31.1c21.4,1.4,44.3-24.3,53.8-40.9
		c6.3-11,2.8-33.3,0.9-45.2c-0.5-2.9-0.8-5.3-1-6.8c-0.2-2.9-0.2-5.7-0.1-8.6c0.1-5.2,0.3-10.7-1.4-18c-2.1-9.6-3.4-16.5-2.6-33
		c1.1-22.4-3.3-31-16.1-31.8C349.8,257.5,349.4,257.5,349,257.5L349,257.5z"/>
	<path class="st2" d="M324.1,369.8c-0.8,0-1.6,0-2.3-0.1c-6.8-0.5-12-2.9-15.4-7c-4.1-5-5.6-12.4-4.6-22l1,0.1
		c-1,9.4,0.4,16.5,4.4,21.3c3.2,3.9,8.2,6.2,14.7,6.7c11,0.9,26.9-5.3,36.9-14.4c5.1-4.6,11.1-12,11.4-21.8h1
		c-0.2,8-4.2,15.7-11.7,22.5C349.8,363.9,335.3,369.8,324.1,369.8z"/>
	<path class="st2" d="M338.3,435.8c-3.7-8.3-8.6-15.9-14.8-22.6c-7.8-8.5-14.5-12.5-20.2-11.9c-3.9,0.4-7.3,3.1-10.1,7.9l-0.9-0.5
		c2.9-5.1,6.6-7.9,10.8-8.4c5.9-0.6,13.1,3.5,21.1,12.2c6.2,6.8,11.3,14.5,14.9,22.9L338.3,435.8z"/>
</g>
<g id="Lungs-2">
	<g id="Line-2">
		<polygon class="st2" points="537.3,258.8 477.1,258.8 477.1,256.1 535.7,256.1 595.5,151.3 597.8,152.7 		"/>
		<path class="st2" d="M482.2,257.4c0,2.8-2.3,5.1-5.1,5.1s-5.1-2.3-5.1-5.1c0-2.8,2.3-5.1,5.1-5.1
			C480,252.3,482.2,254.6,482.2,257.4C482.2,257.4,482.2,257.4,482.2,257.4z"/>
	</g>
	<path class="st7" d="M646.8,13.4c-43.6,0-79,35.4-79,79s35.4,79,79,79c43.6,0,79-35.5,79-79S690.4,13.4,646.8,13.4z M646.8,168
		c-41.7,0-75.7-33.9-75.7-75.7s33.9-75.6,75.7-75.6c41.7,0,75.6,33.9,75.6,75.6S688.5,168,646.8,168z"/>
	<path class="st14" d="M722.5,92.4c0,41.7-33.9,75.7-75.6,75.7c-41.7,0-75.7-33.9-75.7-75.7s33.9-75.6,75.7-75.6
		C688.6,16.7,722.5,50.7,722.5,92.4z"/>
	<g id="Lungs-3">
		<path class="st14" d="M685.9,140.3c-6.8,0-18.1-3.5-24.1-8.8c-6.2-5.4-8.3-12-8.3-16c0.1-1.5,0.3-3,0.8-4.4
			c0.7-2.4,1.5-5.2,0.6-9.5c-1.4-6.7-1.3-13.5,0.1-18.6c0.3-1.1,0.6-2.1,0.9-3.2l0.1-0.5l-0.3-0.3c-0.7-0.8-2.1-2.3-3.6-3.8
			l-0.8-0.8c-2-2-3.2-3.2-4.6-3.2s-2.6,1.2-4.6,3.2l-0.8,0.8c-1.5,1.5-2.8,2.9-3.6,3.8l-0.3,0.3l0.1,0.5c0.3,1.1,0.5,2.2,0.9,3.2
			c1.5,5.1,1.5,11.9,0.1,18.6c-0.9,4.4-0.1,7.1,0.6,9.5c0.5,1.4,0.8,2.9,0.8,4.4c0,4-2.2,10.5-8.3,16c-6,5.3-17.2,8.8-24,8.8
			c-6.9,0-11.8-14.5-11.8-35.3c0-26.4,17.5-44.6,21.1-48c4.6-4.4,8.9-5.3,11.7-5.3c2.9,0,5.7,1,7.4,2.7c3.3,3.3,2.5,8.5,1.3,13.1
			c-0.5,1.7-0.7,3.5-0.6,5.2v1.8l1.4-1.1c1.9-1.4,3.5-3.1,5-5c1.2-1.6,1.8-3.8,1.8-6.7V38.1c0-0.5,1-0.8,1.9-0.8
			c0.9,0,1.9,0.3,1.9,0.8v23.7c0,2.9,0.6,5.1,1.8,6.7c1.4,1.9,3.1,3.5,5,5l1.4,1.1v-1.8c0-1.8-0.2-3.5-0.6-5.2
			c-1.2-4.6-2.1-9.7,1.3-13.1c1.7-1.7,4.5-2.7,7.4-2.7c2.8,0,7.1,0.9,11.7,5.3c3.5,3.4,21,21.6,21,48
			C697.6,125.8,692.8,140.3,685.9,140.3z"/>
		<path class="st7" d="M638.7,101.7c1.4-6.9,1.3-13.7-0.1-18.6c-1.4-4.9-2.6-10.2-1.1-15.6s1.8-10-1.3-13.1
			c-1.9-1.9-5.7-3.3-10.3-2.4c3.1,0.5,6.3,1.7,7.4,4.5c0.8,2,0.2,4.3-0.8,6.2c-1,1.9-2.3,3.6-3.2,5.6c-2.3,5.2-0.8,11.2,0.7,16.6
			c1.5,5.5,3.1,11.4,1.1,16.7c-0.6,1.6-1.5,3-2.2,4.6c-2,4.4-2.6,9.3-5.7,13.3c-2.9,3.7-9.3,4.3-13.6,3.4c-4.7-1.1-8.7-4-11.1-8.2
			c-1.1-2.2-2-4.4-2.7-6.8c0.4,20.7,5.6,32.5,11.8,32.5c6.5,0,18-3.5,24.1-8.8c6.1-5.3,8.4-11.8,8.4-16
			C640.1,111.4,637.3,108.6,638.7,101.7z"/>
		<path class="st15" d="M638.7,101.7c1.4-6.9,1.3-13.7-0.1-18.6c-1.4-4.9-2.6-10.2-1.1-15.6s1.8-10-1.3-13.1
			c-1.9-1.9-5.7-3.3-10.3-2.4c3.1,0.5,6.3,1.7,7.4,4.5c0.8,2,0.2,4.3-0.8,6.2c-1,1.9-2.3,3.6-3.2,5.6c-2.3,5.2-0.8,11.2,0.7,16.6
			c1.5,5.5,3.1,11.4,1.1,16.7c-0.6,1.6-1.5,3-2.2,4.6c-2,4.4-2.6,9.3-5.7,13.3c-2.9,3.7-9.3,4.3-13.6,3.4c-4.7-1.1-8.7-4-11.1-8.2
			c-1.1-2.2-2-4.4-2.7-6.8c0.4,20.7,5.6,32.5,11.8,32.5c6.5,0,18-3.5,24.1-8.8c6.1-5.3,8.4-11.8,8.4-16
			C640.1,111.4,637.3,108.6,638.7,101.7z"/>
		<path class="st7" d="M654.8,101.7c-1.4-6.9-1.3-13.7,0.1-18.6c1.4-4.9,2.6-10.2,1.2-15.6c-1.4-5.3-1.8-10,1.3-13.1
			c1.9-1.9,5.7-3.3,10.3-2.4c-3.1,0.5-6.3,1.7-7.4,4.5c-0.8,2-0.2,4.3,0.8,6.2c1,1.9,2.3,3.6,3.2,5.6c2.3,5.2,0.8,11.2-0.7,16.6
			c-1.5,5.5-3.1,11.4-1.1,16.7c0.6,1.6,1.5,3,2.2,4.6c2,4.4,2.6,9.3,5.7,13.3c2.9,3.7,9.3,4.3,13.6,3.4c4.7-1.1,8.7-4,11.1-8.2
			c1.1-2.2,2-4.4,2.7-6.8c-0.4,20.7-5.6,32.5-11.8,32.5c-6.5,0-18-3.5-24.1-8.8c-6.1-5.3-8.4-11.8-8.4-16S656.3,108.6,654.8,101.7z"
			/>
		<path class="st15" d="M654.8,101.7c-1.4-6.9-1.3-13.7,0.1-18.6c1.4-4.9,2.6-10.2,1.2-15.6c-1.4-5.3-1.8-10,1.3-13.1
			c1.9-1.9,5.7-3.3,10.3-2.4c-3.1,0.5-6.3,1.7-7.4,4.5c-0.8,2-0.2,4.3,0.8,6.2c1,1.9,2.3,3.6,3.2,5.6c2.3,5.2,0.8,11.2-0.7,16.6
			c-1.5,5.5-3.1,11.4-1.1,16.7c0.6,1.6,1.5,3,2.2,4.6c2,4.4,2.6,9.3,5.7,13.3c2.9,3.7,9.3,4.3,13.6,3.4c4.7-1.1,8.7-4,11.1-8.2
			c1.1-2.2,2-4.4,2.7-6.8c-0.4,20.7-5.6,32.5-11.8,32.5c-6.5,0-18-3.5-24.1-8.8c-6.1-5.3-8.4-11.8-8.4-16S656.3,108.6,654.8,101.7z"
			/>
		<path class="st2" d="M607.7,141.2c-7.6,0-12.7-14.5-12.7-36.2c0-26.7,17.8-45.2,21.3-48.7c8-7.8,16.7-6.2,20.3-2.6
			s2.8,9.1,1.5,13.9c-1.4,5.1-0.3,10.3,1.2,15.1c1.5,5.2,1.6,12.1,0.2,19c-0.9,4.1-0.1,6.7,0.6,9.1c0.5,1.5,0.8,3,0.9,4.6
			c0,4.2-2.3,11-8.6,16.6C626.2,137.6,614.7,141.2,607.7,141.2z M628.6,52.5c-3.2,0-7.1,1.3-11.1,5.1C614,60.9,596.7,79,596.7,105
			c0,23.7,5.7,34.5,11,34.5c6.5,0,17.8-3.5,23.6-8.6c6-5.3,8.1-11.6,8.1-15.4c-0.1-1.4-0.3-2.8-0.8-4.1c-0.7-2.5-1.6-5.4-0.6-9.9
			c1.4-6.6,1.3-13.3-0.1-18.2c-1.5-5.1-2.7-10.5-1.2-16c1.7-6.2,1.4-9.9-1.1-12.3C634.3,53.7,631.8,52.5,628.6,52.5L628.6,52.5z"/>
		<path class="st2" d="M685.9,141.2c-7,0-18.5-3.6-24.6-9c-6.4-5.6-8.6-12.5-8.6-16.6c0.1-1.6,0.3-3.1,0.9-4.6
			c0.7-2.4,1.5-4.9,0.6-9.1c-1.4-6.9-1.4-13.8,0.2-19c1.4-4.8,2.5-10,1.2-15.1c-1.3-4.8-2.1-10.3,1.5-13.9l0,0
			c3.6-3.6,12.3-5.2,20.3,2.6c3.6,3.4,21.3,21.9,21.3,48.7C698.5,126.7,693.4,141.2,685.9,141.2z M665,52.5c-3.2,0-5.7,1.3-7,2.5
			l0,0c-2.4,2.4-2.8,6.1-1.1,12.3c1.5,5.5,0.3,11-1.2,16c-1.5,5-1.5,11.6-0.1,18.2c0.9,4.5,0.1,7.4-0.6,9.9
			c-0.5,1.3-0.7,2.7-0.8,4.1c0,3.8,2.1,10.1,8.1,15.4c5.8,5.1,17,8.6,23.6,8.6c5.3,0,11-10.8,11-34.5c0-26.1-17.3-44.1-20.8-47.5
			C672.1,53.7,668.2,52.5,665,52.5L665,52.5z M657.5,54.4L657.5,54.4z"/>
		<path class="st2" d="M651.2,67.9c-1.5-1.9-1.6-4.5-1.6-6.2V38.1c0-2.3-5.5-2.3-5.5,0v23.7c0,1.7-0.2,4.3-1.6,6.2
			c-1.7,2.2-3.5,4.2-5.5,6.1l1,5.8c0,0,1.7-1.9,4-4.2s3.7-3.4,4.9-3.4c1.2,0,2.3,0.6,4.6,3c2.3,2.3,4.3,4.4,4.3,4.4l1.1-6.2
			C654.6,71.8,652.8,70,651.2,67.9z"/>
		<path class="st2" d="M691.1,114.5c-0.6,0-1.9,0-2-0.2c0-0.1,0-0.2,0.1-0.2l0.7-1.2c0.1-0.2,0.2-0.3,0.2-0.5
			c-0.1,0-0.2,0.1-0.3,0.1c-0.5,0.6-1.1,1.1-1.7,1.5c-0.6,0.3-1.3,0.5-2,0.6c-1.2,0.2-2.4,0-3.5-0.4c-2.3-0.9-4.3-2.2-6.1-3.9
			c-1.4-1.3-2.8-2.6-4-4.1c-0.9-1.2-1.8-2.4-2.5-3.7c-0.4-0.6-0.7-1.2-1-1.9c-0.2-0.8-0.4-1.6-0.5-2.4c-0.1-0.5-0.1-1.1-0.1-1.6
			c0-0.3,0-0.5,0-0.8c0-0.1,0-0.7,0-0.8c2,1.5,4.1,3,5.1,5.4c1.2,2.6,1.1,6,3.5,7.8c0.1,0.1,0.2-0.2,0.1-0.3c-1.3-1-1.5-2.5-1.7-4.1
			c-0.1-1.4-0.3-2.8-0.8-4.2c0.9,0.8,1.7,1.7,2.4,2.7c0.4,0.4,0.7,0.9,1.1,1.3c0.4,0.4,0.8,0.8,1.2,1.1c0.4,0.3,0.8,0.6,1.2,1
			c0.1,0.1,0.2-0.2,0.1-0.3c-0.4-0.4-0.8-0.8-1.1-1.2c-0.3-0.4-0.7-0.9-1.1-1.3c-0.3-0.4-0.6-0.7-0.9-1.1l-0.2-0.3
			c1.4,0.9,3,1.4,4.7,1.7c0.1,0,0.1-0.2,0-0.2c-0.8-0.4-1.6-0.7-2.3-1.1s-1.5-0.8-2.1-1.2c-0.7-0.4-1.4-0.9-2.1-1.5
			c-0.7-0.5-1.4-1.1-2.1-1.7s-1.2-1.2-1.9-1.8c-1.1-0.9-2.2-1.7-3.3-2.6c0,0-0.1,0-0.1-0.1c-0.2-1.3-0.5-2.6-1-3.9
			c-0.9-2.1-2-4-3.5-5.8c1.1,0.3,2.3,0.4,3.5,0.6c1,0.2,1.9,0.6,2.7,1.3c0.7,0.7,1.4,1.4,2.1,2.2c1.1,1.3,2.1,2.6,3.2,3.8
			c1,1.1,2.1,2.1,3.2,3.1c0.3,0.3,0.6,0.5,0.9,0.8c0.1,0.2,0.3,0.3,0.4,0.5c0.3,0.4,0.6,0.9,0.9,1.3c0.5,0.9,0.9,2,1.1,3
			c0.1,0.3,0.4,0.2,0.3-0.1c-0.2-1.1-0.5-2.2-1.1-3.3c0-0.1-0.1-0.1-0.1-0.2c1.5,1.2,2.8,2.6,4,4.1c0.1,0.1,0.1-0.1,0.1-0.2
			c-1.6-2.3-3.4-4.4-5.6-6.2c-1.1-1-2.1-1.9-3.1-3c-0.3-0.3-0.6-0.6-0.9-1c0.7,0.5,1.4,1,2.1,1.4c2,1.2,4.1,2.3,6.2,3.3
			s4.7,1.9,5.9,4.2c0.2,0.3,0.4,0,0.3-0.2c-1.3-2.2-3.5-3.4-5.6-4.5l-1.2-0.7l0.3,0c0.8,0.1,1.6,0.1,2.4,0.2l1.3,0.1
			c0.1,0,0.5,0.1,0.5,0c0.1-0.1,0-0.2-0.1-0.2c-1.3-0.3-2.6-0.4-3.8-0.7c-1-0.2-2.1-0.5-3.1-0.9c-0.4-0.2-0.9-0.5-1.3-0.8
			c-0.5-0.3-1-0.6-1.4-0.9c-2.1-1.3-4.1-2.9-5.8-4.8c-0.8-1-1.6-1.8-2.6-2.6c1.1-0.3,2.2-0.8,3.2-1.4c0.7-0.4,1.5-0.7,2.3-0.8
			c0.8-0.1,1.6-0.1,2.3,0.2c2,0.6,4.3,1.8,5.2,3.9c0.2,0.4,0.3,0.8,0.3,1.2c0,0.2,0.1,0.4,0.1,0.7s0,0.5,0.1,0.8
			c0,0.1,0.2,0.2,0.2,0c0-0.2,0-0.5,0-0.7c0-0.2,0-0.5,0-0.7c0-0.5-0.2-1-0.3-1.5c-0.1-0.3-0.3-0.6-0.4-0.9c1.3,0.8,2.5,1.6,3.7,2.5
			c0.1,0.1,0.1-0.1,0.1-0.2c-1.9-1.8-4-3.4-6.2-4.7c-0.5-0.3-1.1-0.6-1.6-0.8l0.3,0c1.3,0.2,2.6,0.5,3.9,0.8
			c0.8,0.2,1.5,0.4,2.3,0.7c0.4,0.1,0.7,0.3,1.1,0.5c0.1,0,0.4,0.2,0.5,0.2c0.1,0,0.1-0.1,0.1-0.2c0,0,0,0,0,0
			c-0.3-0.3-0.5-0.5-0.9-0.6c-0.3-0.2-0.7-0.4-1-0.6c-0.1,0-0.2-0.1-0.3-0.1c0.8-0.1,1.7-0.3,2.5-0.6c0.1,0,0.1-0.3,0-0.3
			c-1.1,0.1-2.1,0.2-3.2,0.2c0.1,0,0.2-0.1,0.3-0.1c0.4-0.3,0.7-0.6,1-1c0.3-0.3,0.5-0.6,0.8-0.9c0-0.1,0-0.3-0.1-0.3
			c-0.2,0.1-0.3,0.3-0.5,0.4c-0.1,0.1-0.3,0.2-0.4,0.4c-0.3,0.3-0.7,0.5-1.1,0.7c-1.1,0.5-2.4,0.6-3.5,0.4c-0.5-0.1-0.9-0.3-1.4-0.4
			c-1.2-0.4-2.4-0.5-3.7-0.3c-0.4,0.1-0.9,0.2-1.3,0.4c-0.2,0.1-0.4,0.2-0.6,0.3c-0.1,0-0.5,0.3-0.4,0c0.3-0.9,0.6-1.7,0.9-2.6
			c0.2-0.9,0.7-1.8,1.2-2.5c0.6-0.7,1.3-1.3,2-1.9c0.2-0.2,0.5-0.4,0.7-0.6c0.6-0.4,1.3-0.8,1.9-1.1c0.4-0.2,0.9-0.3,1.3-0.3
			c0.1,0,0.2,0,0.3-0.1c0.3,0,0.7-0.2,0.2-0.3c-0.3-0.1-0.6-0.1-0.9-0.1c-0.6,0-1.2,0.2-1.7,0.4l-0.3,0.2c0.1-0.1,0.2-0.3,0.2-0.4
			c0.4-0.9,0.7-2,0.7-3c0-0.1-0.2-0.3-0.2-0.1c-0.1,0.5-0.2,1.1-0.4,1.6c-0.3,0.5-0.6,1-1,1.4c-0.7,0.9-1.4,1.7-2.2,2.4
			c-0.6,0.5-1.1,1-1.6,1.6c0-0.3,0-0.7,0-1l0-0.4c0-0.5,0.1-1,0.3-1.6c0.4-0.9,0.7-1.9,0.9-2.9c0.4-2,0.2-4.1,0-6.1
			c0-0.1-0.2-0.2-0.2,0c-0.1,2-0.4,4-0.8,5.9c-0.2,0.6-0.3,1.1-0.6,1.6c-0.2-1.1-0.5-2.2-1-3.3c-0.5-1.4-1.2-2.6-2.1-3.8
			c-0.1-0.1-0.1,0.1-0.1,0.2c0.7,1.4,1.2,2.9,1.5,4.5c0.3,1.5,0.5,3.1,0.7,4.7c0.1,2.5,0,5.8-1.6,7.8c-0.8,1.1-2.2,1.4-3.5,1.5
			s-2.8-0.9-3.8-1.8c-1-0.9-2-1.9-3-2.9c-1.1-1.1-4.1-3.9-5.2-5c-0.6-0.5-1.1-1-1.6-1.5c-0.7,1.3-1.3,2.7-1.8,4
			c3.3,2.8,3.4,3.1,5.4,4.9c2.1,1.9,4.4,4,5.6,5.4c1.2,1.3,2.5,2.9,3.2,4.6c1.3,3.2,1.3,6.7,1.2,10.1c-0.1,2.3-0.3,4.6-0.2,6.9
			c-1.5,0.3-2.9,0.8-4.1,1.6c-0.6,0.4-1.2,0.9-1.7,1.4c-0.3,0.3-0.5,0.5-0.8,0.8c-0.3,0.4-0.7,0.8-1,1.2c0,0,0,0.1,0,0.1
			c0.2-0.1,0.3-0.1,0.5-0.2c0.2-0.1,0.3-0.2,0.5-0.3c0.3-0.2,0.7-0.5,1-0.7c0.6-0.5,1.2-0.9,1.9-1.3c0.1-0.1,0.2-0.1,0.3-0.1
			c-0.3,0.5-0.5,1-0.8,1.5c-0.3,0.8-0.6,1.7-0.7,2.6c0,0.2,0.2,0.4,0.3,0.2c0.2-0.8,0.5-1.6,0.9-2.4c0.3-0.7,0.7-1.3,1.2-1.8
			c0.4-0.4,1-0.7,1.6-0.8c0.2,0,0.6-0.1,0.8,0.2s-0.2,0.6-0.3,0.8l-2.4,4.1c-0.3,0.6-0.7,1.3-1.1,1.8c-1.1,1.5-2.5,2.8-3.5,4.3
			c-0.1,0.1-0.1,0.2,0,0.3c0,0.1,0.1,0.1,0.2,0c0.6-0.9,1.4-1.6,2.3-2.2l0.1-0.1c-0.4,1.7-0.4,3.8,0.7,5c0,0,0.1,0,0.1-0.1
			c-0.3-1.1-0.4-2.2-0.3-3.3c0.2-1.1,0.5-2.2,1-3.2c0.2-0.3,0.4-0.7,0.5-1c-0.3,2.5,0.5,5,1,7.4c0.1,0.4,0.6,0.4,0.5,0
			c-0.5-2.7-0.7-5.8,0.1-8.6c0.4-1.4,1.1-2.8,1.7-4.2c0,0,0-0.1,0.1-0.1c0,0,0.1,0.1,0.1,0.2c-0.2,2.5,0.3,5,0.4,7.5
			c0.1,1.1,0.1,2.2,0.2,3.4c0,1.2,0.1,2.5,0.2,3.7c0,0.1,0.1,0.1,0.1,0c0.2-1.1,0.4-2.2,0.3-3.3c0.1-1.2,0-2.4,0-3.6
			c0-0.5-0.1-1.1-0.1-1.6c0.5,1.2,1,2.4,1.6,3.6c1.4,2.7,3.5,5.4,6.3,6.6c0.2,0.1,0.2-0.3,0-0.4c-3-1.3-4.5-4.4-5.7-7.4
			c-1.4-3.2-2.2-6.6-2.4-10.1c-0.1-2,0-4,0.1-6c1.3,2.3,2.8,4.4,4.7,6.3c0.3,0.6,0.7,1.1,1,1.7c0.4,0.7,0.7,1.5,1,2.3
			c0.6,1.5,1.3,2.9,2.1,4.3c0.5,0.8,1.1,1.6,1.7,2.3c0.5,0.5,0.8,1.1,1.1,1.7c0.3,0.6,0.5,1.2,0.7,1.9c0.1,0.8,0.2,1.7,0.3,2.5
			c0.1,0.4,0.2,0.9,0.3,1.3c0,0.1,0.1,0.5,0.2,0.5c0.1,0,0.1-0.3,0.1-0.4c-0.3-1.3-0.5-2.6-0.6-4c0-0.5-0.1-0.9-0.3-1.4
			c1.1,1.1,2.2,2.1,3.3,3.1c0.1,0.1,0.1-0.1,0.1-0.1c-2.3-2.5-4.7-5.1-6.3-8.2c-0.7-1.4-1.4-2.9-2-4.4c-0.1-0.2-0.2-0.4-0.2-0.6
			c4,3.4,8.7,5.7,13.8,6.9c0.1,0,0.1-0.2,0-0.3c-1.7-0.7-3.4-1.5-5-2.4c-0.1,0-0.1-0.1-0.1-0.1c1,0.1,2,0,3-0.1
			c0.4-0.1,0.7-0.2,1.1-0.3c1-0.2,2.1,0,3-0.4c0-0.1-0.1-0.1-0.1-0.1L691.1,114.5z"/>
		<path class="st2" d="M602.6,114.5c0.6,0,1.9,0,2-0.2c0-0.1,0-0.2-0.1-0.2l-0.7-1.2c-0.1-0.2-0.2-0.3-0.2-0.5
			c0.1,0,0.2,0.1,0.3,0.1c0.5,0.6,1.1,1.1,1.7,1.5c0.6,0.3,1.3,0.5,1.9,0.6c1.2,0.2,2.4,0,3.5-0.4c2.2-0.9,4.3-2.2,6.1-3.9
			c1.4-1.3,2.8-2.6,4-4.1c0.9-1.2,1.8-2.4,2.5-3.7c0.4-0.6,0.7-1.2,1-1.9c0.2-0.8,0.4-1.6,0.5-2.4c0.1-0.5,0.1-1.1,0.1-1.6
			c0-0.3,0-0.5,0-0.8c0-0.1,0-0.7,0-0.8c-2,1.5-4.1,3-5.1,5.4c-1.2,2.6-1.1,6-3.5,7.8c-0.1,0.1-0.2-0.2-0.1-0.3
			c1.3-1,1.5-2.5,1.7-4.1c0.1-1.4,0.3-2.8,0.8-4.2c-0.9,0.8-1.7,1.7-2.4,2.7c-0.4,0.4-0.7,0.9-1.1,1.3c-0.4,0.4-0.8,0.8-1.2,1.1
			c-0.4,0.3-0.8,0.6-1.2,1c-0.1,0.1-0.2-0.2-0.1-0.3c0.4-0.4,0.8-0.8,1.1-1.2c0.4-0.4,0.7-0.9,1.1-1.3c0.3-0.4,0.6-0.7,0.9-1.1
			l0.2-0.3c-1.4,0.9-3,1.4-4.7,1.7c-0.1,0-0.1-0.2,0-0.2c0.8-0.4,1.6-0.7,2.3-1.1c0.8-0.4,1.5-0.8,2.1-1.2c0.7-0.4,1.4-0.9,2.1-1.5
			c0.7-0.5,1.4-1.1,2.1-1.7c0.7-0.6,1.2-1.2,1.9-1.8c1.1-0.9,2.1-1.7,3.3-2.6c0,0,0.1,0,0.1-0.1c0.2-1.3,0.5-2.6,1-3.9
			c0.9-2.1,2-4,3.5-5.8c-1.1,0.3-2.3,0.4-3.5,0.6c-1,0.2-1.9,0.6-2.7,1.3c-0.7,0.7-1.4,1.4-2.1,2.2c-1.1,1.3-2.1,2.6-3.2,3.8
			c-1,1.1-2.1,2.1-3.2,3.1c-0.3,0.3-0.6,0.5-0.9,0.8c-0.1,0.2-0.3,0.3-0.4,0.5c-0.3,0.4-0.6,0.9-0.9,1.3c-0.5,0.9-0.9,2-1.1,3
			c-0.1,0.3-0.4,0.2-0.3-0.1c0.2-1.1,0.5-2.2,1.1-3.3c0-0.1,0.1-0.1,0.1-0.2c-1.5,1.2-2.8,2.6-4,4.1c-0.1,0.1-0.1-0.1-0.1-0.2
			c1.6-2.3,3.4-4.4,5.6-6.2c1.1-1,2.1-1.9,3.1-3c0.3-0.3,0.6-0.6,0.9-1c-0.7,0.5-1.4,1-2.1,1.4c-2,1.2-4.1,2.3-6.2,3.3
			c-2.1,1-4.7,1.9-5.9,4.2c-0.2,0.3-0.4,0-0.3-0.2c1.3-2.2,3.5-3.4,5.6-4.5c0.4-0.2,0.8-0.4,1.2-0.6l-0.3,0
			c-0.8,0.1-1.6,0.1-2.4,0.2l-1.3,0.1c-0.1,0-0.5,0.1-0.5,0c-0.1-0.1,0-0.2,0.1-0.2c1.3-0.3,2.6-0.4,3.8-0.7c1-0.2,2.1-0.5,3.1-0.9
			c0.4-0.2,0.9-0.5,1.3-0.8c0.5-0.3,1-0.6,1.4-0.9c2.1-1.3,4.1-2.9,5.8-4.8c0.8-1,1.6-1.8,2.6-2.6c-1.1-0.3-2.2-0.8-3.2-1.4
			c-0.7-0.4-1.5-0.7-2.3-0.8c-0.8-0.1-1.6-0.1-2.3,0.2c-2,0.6-4.3,1.8-5.2,3.9c-0.2,0.4-0.3,0.8-0.3,1.2c0,0.2-0.1,0.4-0.1,0.7
			c0,0.3,0,0.5-0.1,0.8c0,0.1-0.1,0.2-0.2,0c0-0.2-0.1-0.5,0-0.7c0-0.2,0-0.5,0-0.7c0-0.5,0.2-1,0.3-1.5c0.1-0.3,0.3-0.6,0.4-0.9
			c-1.3,0.8-2.5,1.6-3.7,2.5c-0.1,0.1-0.1-0.1-0.1-0.2c1.9-1.8,4-3.4,6.2-4.7c0.5-0.3,1.1-0.6,1.6-0.8l-0.3,0
			c-1.3,0.2-2.6,0.5-3.9,0.8c-0.8,0.2-1.5,0.4-2.3,0.7c-0.4,0.1-0.7,0.3-1.1,0.5c-0.1,0-0.4,0.2-0.5,0.2c-0.1,0-0.1-0.1-0.1-0.2
			c0,0,0,0,0,0c0.3-0.2,0.5-0.5,0.9-0.6c0.3-0.2,0.7-0.4,1-0.6c0.1,0,0.2-0.1,0.3-0.1c-0.8-0.1-1.7-0.3-2.5-0.6
			c-0.1,0-0.1-0.3,0-0.3c1.1,0.1,2.1,0.2,3.2,0.2c-0.1,0-0.2-0.1-0.3-0.1c-0.4-0.3-0.7-0.6-1-1c-0.3-0.3-0.5-0.6-0.8-0.9
			c0-0.1,0-0.3,0.1-0.3c0.2,0.1,0.3,0.3,0.5,0.4c0.1,0.1,0.3,0.2,0.4,0.4c0.4,0.2,0.7,0.5,1.1,0.7c1.1,0.5,2.4,0.6,3.6,0.4
			c0.5-0.1,0.9-0.3,1.4-0.4c1.2-0.4,2.4-0.5,3.7-0.3c0.4,0.1,0.9,0.2,1.3,0.4c0.2,0.1,0.4,0.2,0.6,0.3c0.1,0,0.4,0.3,0.4,0l-0.9-2.6
			c-0.2-0.9-0.7-1.8-1.2-2.5c-0.6-0.7-1.3-1.3-2-1.9c-0.2-0.2-0.5-0.4-0.7-0.6c-0.6-0.4-1.3-0.8-1.9-1.1c-0.4-0.2-0.8-0.3-1.2-0.4
			c-0.1,0-0.2,0-0.3-0.1c-0.3,0-0.7-0.2-0.2-0.3c0.3-0.1,0.6-0.1,0.9-0.1c0.6,0,1.2,0.2,1.7,0.4l0.3,0.2c-0.1-0.1-0.2-0.3-0.2-0.4
			c-0.4-0.9-0.7-2-0.7-3c0-0.1,0.2-0.3,0.2-0.1c0.1,0.5,0.2,1.1,0.4,1.6c0.3,0.5,0.6,1,1,1.4c0.7,0.9,1.4,1.7,2.2,2.4
			c0.6,0.5,1.1,1,1.6,1.6c0-0.3,0-0.7,0-1c0-0.1,0-0.2,0-0.4c0-0.5-0.1-1-0.3-1.6c-0.4-0.9-0.7-1.9-0.9-2.9c-0.4-2-0.2-4.1,0-6.1
			c0-0.1,0.2-0.2,0.2,0c0.1,2,0.4,4,0.8,5.9c0.2,0.6,0.3,1.1,0.5,1.6c0.2-1.1,0.6-2.2,1-3.3c0.5-1.4,1.2-2.6,2.1-3.8
			c0.1-0.1,0.1,0.1,0.1,0.2c-0.7,1.4-1.2,2.9-1.5,4.5c-0.3,1.5-0.5,3.1-0.7,4.7c-0.1,2.5,0,5.8,1.6,7.8c0.8,1.1,2.2,1.4,3.5,1.5
			s2.8-0.9,3.8-1.8c1-0.9,2-1.9,3-2.9c1.1-1.1,4.1-3.9,5.2-5c0.6-0.5,1.1-1,1.6-1.5c0.7,1.3,1.3,2.7,1.8,4c-3.3,2.8-3.4,3.1-5.4,4.9
			c-2.1,1.9-4.4,4-5.6,5.4c-1.2,1.3-2.5,2.9-3.2,4.6c-1.3,3.2-1.3,6.7-1.2,10.1c0.1,2.3,0.3,4.6,0.2,6.9c1.5,0.3,2.9,0.8,4.1,1.6
			c0.6,0.4,1.2,0.9,1.7,1.4c0.3,0.3,0.5,0.5,0.8,0.8c0.3,0.4,0.7,0.8,1,1.2c0,0,0,0.1,0,0.1c-0.2-0.1-0.3-0.1-0.5-0.2
			c-0.2-0.1-0.3-0.2-0.5-0.3c-0.3-0.2-0.7-0.5-1-0.7c-0.6-0.5-1.2-0.9-1.9-1.3c-0.1-0.1-0.2-0.1-0.3-0.1c0.3,0.5,0.5,1,0.8,1.5
			c0.3,0.8,0.6,1.7,0.7,2.6c0,0.2-0.2,0.4-0.3,0.2c-0.2-0.8-0.5-1.6-0.9-2.4c-0.3-0.7-0.7-1.3-1.2-1.8c-0.4-0.4-1-0.7-1.6-0.8
			c-0.2,0-0.6-0.1-0.8,0.2s0.2,0.6,0.3,0.8l2.4,4.1c0.3,0.6,0.7,1.3,1.2,1.8c1.1,1.5,2.5,2.8,3.5,4.3c0.1,0.1,0.1,0.2,0,0.3
			c0,0.1-0.1,0.1-0.2,0c-0.6-0.9-1.4-1.6-2.3-2.2l-0.1-0.1c0.4,1.7,0.4,3.8-0.7,5c0,0-0.1,0-0.1-0.1c0.3-1.1,0.4-2.2,0.3-3.3
			c-0.2-1.1-0.5-2.2-1-3.2c-0.2-0.3-0.3-0.7-0.5-1c0.3,2.5-0.5,5-1,7.4c-0.1,0.4-0.6,0.4-0.5,0c0.5-2.7,0.7-5.8-0.1-8.6
			c-0.4-1.4-1.1-2.8-1.7-4.2c0,0,0-0.1-0.1-0.1s-0.1,0.1-0.1,0.2c0.1,2.5-0.3,5-0.4,7.5c-0.1,1.1-0.1,2.2-0.2,3.4
			c0,1.2-0.1,2.5-0.2,3.7c0,0.1-0.1,0.1-0.1,0c-0.2-1.1-0.4-2.2-0.3-3.3c-0.1-1.2,0-2.4,0-3.6c0-0.5,0.1-1.1,0.1-1.6
			c-0.5,1.2-1,2.4-1.6,3.6c-1.4,2.7-3.5,5.4-6.3,6.6c-0.2,0.1-0.2-0.3,0-0.4c3-1.3,4.5-4.4,5.7-7.4c1.4-3.2,2.2-6.6,2.4-10.1
			c0.1-2,0-4-0.1-6c-1.3,2.3-2.8,4.4-4.7,6.3c-0.3,0.6-0.7,1.1-1,1.7c-0.4,0.7-0.7,1.5-1,2.3c-0.6,1.5-1.3,2.9-2.1,4.3
			c-0.5,0.8-1.1,1.6-1.7,2.3c-0.5,0.5-0.8,1.1-1.1,1.7c-0.3,0.6-0.5,1.2-0.7,1.9c-0.1,0.8-0.2,1.7-0.3,2.5c-0.1,0.4-0.2,0.9-0.3,1.3
			c0,0.1-0.1,0.5-0.3,0.5s-0.1-0.3-0.1-0.4c0.3-1.3,0.5-2.7,0.6-4c0-0.5,0.1-0.9,0.3-1.4c-1.1,1.1-2.2,2.1-3.4,3.1
			c-0.1,0.1-0.1-0.1-0.1-0.1c2.3-2.5,4.7-5.1,6.3-8.2c0.7-1.4,1.4-2.9,2-4.4c0.1-0.2,0.2-0.4,0.2-0.6c-4,3.4-8.7,5.7-13.8,6.9
			c-0.1,0-0.1-0.2,0-0.3c1.7-0.7,3.4-1.5,5-2.4c0,0,0.1-0.1,0.1-0.1c-1,0.1-2,0-3-0.1c-0.4-0.1-0.7-0.2-1.1-0.3c-1-0.2-2.1,0-3-0.4
			c0-0.1,0.1-0.1,0.1-0.1L602.6,114.5z"/>
	</g>
</g>
</svg>
